<svg width="15" height="15" viewBox="0 0 15 15" fill="none" xmlns="http://www.w3.org/2000/svg">
<path d="M2.76825 0.859841C2.41468 0.435564 1.78412 0.37824 1.35984 0.731804C0.935564 1.08537 0.87824 1.71593 1.2318 2.14021L5.69832 7.50003L1.2318 12.8598C0.87824 13.2841 0.935564 13.9147 1.35984 14.2682C1.78412 14.6218 2.41468 14.5645 2.76825 14.1402L8.30173 7.50003L2.76825 0.859841Z" fill="#006DB1"/>
<path d="M7.76825 0.859841C7.41468 0.435564 6.78412 0.37824 6.35984 0.731804C5.93556 1.08537 5.87824 1.71593 6.2318 2.14021L10.6983 7.50003L6.2318 12.8598C5.87824 13.2841 5.93556 13.9147 6.35984 14.2682C6.78412 14.6218 7.41468 14.5645 7.76825 14.1402L13.3017 7.50003L7.76825 0.859841Z" fill="#006DB1"/>
</svg>
