<svg width="62" height="62" viewBox="0 0 62 62" fill="none" xmlns="http://www.w3.org/2000/svg">
<g clip-path="url(#clip0_2164_730)">
<path d="M60.7583 32.9403L57.0125 34.3235C56.5418 34.4975 56.3015 35.0197 56.4751 35.4904C56.6492 35.9611 57.1709 36.2014 57.642 36.0278L60.1836 35.0888V39.2784C60.0611 39.2978 59.9523 39.319 59.8525 39.3446C55.4198 40.468 53.0362 42.4746 51.1214 44.0866C48.744 46.0885 47.8036 46.8708 41.7149 47.2729C38.8214 47.464 35.8296 47.6613 33.3159 49.3107C32.386 49.9214 31.605 50.6825 30.8501 51.419C29.1656 53.0613 28.2726 53.8512 25.7362 54.5428C25.2523 54.6748 24.9671 55.1738 25.099 55.6577C25.2305 56.1411 25.7291 56.4273 26.214 56.2953C29.0753 55.5149 30.2276 54.5631 32.1182 52.7193C32.8434 52.0121 33.5288 51.3438 34.3126 50.8291C36.4265 49.4422 39.0532 49.2686 41.8346 49.0855C48.3349 48.656 49.6357 47.7124 52.2912 45.4764C54.1384 43.9211 56.2296 42.1605 60.1836 41.135V60.1836H16.4153C18.5269 58.3908 19.8707 57.7461 22.3077 57.1738C22.7959 57.0588 23.0991 56.5702 22.9842 56.082C22.8692 55.5934 22.3806 55.2916 21.892 55.4056C18.2265 56.267 16.7327 57.4159 13.6921 60.1713L13.6784 60.1836H1.81641V56.0584C1.81735 56.0361 1.81783 56.0144 1.81735 55.9921C1.80647 55.5021 2.15935 55.1672 2.39775 55.1606C2.72224 55.1511 3.01694 54.9699 3.17114 54.6847C3.32582 54.399 3.31589 54.0532 3.1456 53.7765C2.30551 52.4114 1.83154 49.366 3.48145 47.166C4.46486 45.8548 6.1649 44.9466 8.02861 44.7375C9.22914 44.6022 9.99307 44.8198 10.1922 44.9887C10.7731 45.4821 11.6695 45.08 11.6879 44.3179C11.7026 43.695 12.4287 41.9826 14.0544 41.6364C15.0104 41.4325 15.798 41.5418 16.4565 41.8209C16.4673 41.8261 16.4787 41.8308 16.4896 41.8355C18.244 42.5995 18.849 44.3331 19.9237 45.1311C21.699 46.5014 25.0546 47.9049 27.7016 47.0842C27.7168 47.0795 27.7324 47.0742 27.7475 47.0686C29.335 46.4825 52.5003 37.9265 54.0073 37.3702C54.478 37.1961 54.7183 36.6739 54.5447 36.2032C54.3706 35.7331 53.8489 35.4923 53.3782 35.6659L46.8027 38.0944V34.0079C51.0727 33.4422 54.3224 31.7251 55.3484 31.1282C55.688 30.93 55.8824 30.5634 55.8559 30.1713C55.8294 29.7782 55.5868 29.4395 55.2183 29.2867C53.7235 28.6732 52.2084 27.6089 50.7019 26.116C51.8324 25.6705 52.6526 25.2282 53.0499 24.9978C53.3915 24.8025 53.5887 24.4378 53.5646 24.0452C53.5405 23.6525 53.3002 23.3139 52.9364 23.1615C51.5301 22.5731 50.1096 21.4795 48.7038 19.9034C49.6201 19.5406 50.2865 19.1673 50.5992 18.9786C50.9265 18.7814 51.1158 18.4223 51.0935 18.0406C51.0713 17.6593 50.8409 17.324 50.4923 17.166C48.2918 16.1698 46.2313 13.2418 45.036 10.8332C44.8525 10.4628 44.4811 10.2324 44.0677 10.2324C43.6538 10.2324 43.283 10.4628 43.099 10.8332C41.9041 13.2418 39.8427 16.1703 37.6427 17.166H37.6422C37.294 17.324 37.0637 17.6589 37.041 18.0406C37.0187 18.4219 37.2079 18.7814 37.5353 18.9791C37.8484 19.1673 38.5154 19.541 39.4312 19.9038C38.0253 21.4795 36.6048 22.5731 35.1967 23.162C34.8338 23.3143 34.5936 23.653 34.5694 24.0456C34.5453 24.4378 34.7426 24.8025 35.0793 24.995C35.4786 25.2263 36.3007 25.67 37.4326 26.116C35.9246 27.6098 34.4091 28.6741 32.912 29.2881C32.5454 29.4409 32.3022 29.7815 32.2776 30.1774C32.2535 30.5714 32.4517 30.9371 32.7857 31.1268C33.8102 31.7251 37.0641 33.4493 41.353 34.0113V40.1071L27.142 45.3562C25.3895 45.8851 22.865 44.9475 21.3726 43.9376V37.0353C25.6425 36.4696 28.8927 34.7525 29.9182 34.1555C30.2578 33.9573 30.4522 33.5907 30.4262 33.1991C30.3997 32.8055 30.1566 32.4673 29.7886 32.3141C28.2934 31.7005 26.7783 30.6362 25.2722 29.1434C26.4022 28.6978 27.2229 28.2555 27.6198 28.0252C27.9613 27.8298 28.1586 27.4651 28.1349 27.0725C28.1108 26.6799 27.87 26.3412 27.5067 26.1889C26.1033 25.6023 24.6861 24.512 23.2831 22.9411C24.1852 22.5868 24.8427 22.2226 25.153 22.0372C25.4812 21.8413 25.6723 21.4828 25.6515 21.1015C25.6307 20.7198 25.4018 20.3835 25.0541 20.2245C24.5721 20.0032 24.0773 19.681 23.5835 19.2672C23.1989 18.945 22.6266 18.9956 22.304 19.3797C21.9818 19.7643 22.032 20.3371 22.4165 20.6593C22.6053 20.8172 22.7945 20.9648 22.9851 21.1025C20.0623 22.3645 17.1906 22.3574 14.2635 21.0594C16.2318 19.6635 17.7663 17.4105 18.6503 15.8936C18.9337 16.3916 19.2851 16.9687 19.6971 17.5685C19.9814 17.9819 20.5471 18.087 20.9601 17.8027C21.3735 17.5189 21.4785 16.9536 21.1942 16.5402C20.4227 15.4172 19.8826 14.3822 19.629 13.8652C19.4469 13.4939 19.077 13.2621 18.6636 13.2598C18.2473 13.255 17.8779 13.4859 17.692 13.8558C16.4853 16.2583 14.4106 19.1768 12.2049 20.1626C11.8558 20.3182 11.6236 20.6526 11.5995 21.0339C11.5753 21.4151 11.7626 21.7756 12.0895 21.9747C12.4045 22.1668 13.081 22.5499 14.0109 22.9208C12.6023 24.5021 11.1785 25.599 9.76744 26.1894C9.40416 26.3417 9.16386 26.6799 9.13974 27.073C9.11609 27.4651 9.31334 27.8298 9.64966 28.0219C10.0494 28.2536 10.871 28.6969 12.0025 29.1429C10.4959 30.6362 8.98033 31.701 7.48227 32.3155C7.11757 32.4668 6.87491 32.8055 6.84842 33.1991C6.8224 33.5912 7.01729 33.9578 7.35739 34.156C8.38385 34.7534 11.6434 36.4752 15.9238 37.0377V39.7831C15.2559 39.6743 14.5095 39.6819 13.676 39.8597C11.7546 40.2693 10.625 41.765 10.1449 43.0337C9.48741 42.8743 8.688 42.835 7.82568 42.932C6.69658 43.0592 3.87122 43.6193 2.02832 46.0762C0.0912933 48.6584 0.362335 51.8049 1.12579 53.7609C0.452682 54.2349 -0.000473022 55.0627 0.000946045 55.9746C0.000473022 55.9874 0 55.9997 0 56.012V61.0918C0 61.5932 0.406326 62 0.908203 62H61.0918C61.5937 62 62 61.5932 62 61.0918V33.7852C62 33.1404 61.3477 32.7071 60.7583 32.9403ZM44.0677 12.8657C44.9447 14.387 46.4678 16.6476 48.4295 18.0534C45.4414 19.3613 42.5706 19.3074 39.7055 18.0534C41.6671 16.6476 43.1907 14.387 44.0677 12.8657ZM41.3147 20.4994C43.1255 20.9308 44.8998 20.9568 46.8207 20.4994C48.121 22.0627 49.4569 23.2689 50.8107 24.1014C48.7298 25.0394 46.3869 25.6151 44.0672 25.6151C41.8942 25.6151 39.5475 25.1038 37.3243 24.1014C38.6786 23.2684 40.0149 22.0627 41.3147 20.4994ZM39.3418 26.7584C40.7126 27.143 42.3223 27.4315 44.0672 27.4315C45.8127 27.4315 47.4229 27.143 48.7937 26.7584C50.2033 28.2607 51.6403 29.4329 53.084 30.2578C47.0988 33.0695 41.0186 33.0671 35.0495 30.2578C36.4937 29.4324 37.9312 28.2612 39.3418 26.7584ZM43.1699 34.1707C43.7697 34.1972 44.3695 34.1976 44.9863 34.1697V38.7651L43.1699 39.4359V34.1707ZM15.8902 23.5206C16.7176 23.7197 17.6366 23.8559 18.612 23.8602C18.63 23.8602 18.647 23.8607 18.6645 23.8607C19.6441 23.8607 20.567 23.7282 21.3962 23.5329C22.6947 25.0934 24.0291 26.2972 25.381 27.1288C23.1937 28.115 20.847 28.6425 18.6376 28.6425C16.438 28.6425 14.0928 28.1198 11.8946 27.1288C13.2508 26.2948 14.5885 25.0872 15.8902 23.5206ZM13.9106 29.7853C15.2819 30.1703 16.8916 30.4589 18.6376 30.4589C20.383 30.4589 21.9932 30.1703 23.364 29.7858C24.7736 31.2881 26.2106 32.4602 27.6543 33.2852C21.8541 36.0098 15.8027 36.1891 9.62033 33.2852C11.0649 32.4593 12.5015 31.2881 13.9106 29.7853ZM17.7402 37.198C18.3367 37.2245 18.9365 37.2254 19.5566 37.1971V41.95C19.0841 41.4183 18.4867 40.8587 17.7402 40.4321V37.198Z" fill="#006DB1"/>
<path d="M48.5065 52.8499C48.6205 52.8499 48.7359 52.8281 48.848 52.7832L57.8004 49.1504C58.2649 48.9616 58.4891 48.4319 58.3004 47.9669C58.1117 47.5024 57.5824 47.2786 57.1174 47.4669L48.1645 51.0997C47.7 51.2884 47.4762 51.8182 47.6645 52.2827C47.8083 52.6356 48.1479 52.8499 48.5065 52.8499Z" fill="#006DB1"/>
<path d="M47.0577 58.0701C47.201 58.423 47.5406 58.6368 47.8997 58.6368C48.0132 58.6368 48.1291 58.6155 48.2407 58.5701L53.9648 56.2476C54.4293 56.0588 54.653 55.529 54.4648 55.0645C54.276 54.5995 53.7467 54.3758 53.2817 54.5645L47.5577 56.8871C47.0932 57.0758 46.8694 57.6051 47.0577 58.0701Z" fill="#006DB1"/>
<path d="M33.2554 57.3133C33.3689 57.3133 33.4848 57.2916 33.5964 57.2466L39.32 54.9241C39.785 54.7354 40.0087 54.2056 39.82 53.7411C39.6313 53.2761 39.1019 53.0519 38.637 53.2406L32.9134 55.5631C32.4484 55.7519 32.2247 56.2817 32.4134 56.7462C32.5567 57.0995 32.8964 57.3133 33.2554 57.3133Z" fill="#006DB1"/>
<path d="M15.8387 44.1491C14.3364 44.1491 13.1141 45.3714 13.1141 46.8737C13.1141 48.376 14.3364 49.5983 15.8387 49.5983C17.3406 49.5983 18.5634 48.376 18.5634 46.8737C18.5634 45.3714 17.3406 44.1491 15.8387 44.1491ZM15.8387 47.7819C15.3378 47.7819 14.9305 47.3746 14.9305 46.8737C14.9305 46.3728 15.3378 45.9655 15.8387 45.9655C16.3392 45.9655 16.7469 46.3728 16.7469 46.8737C16.7469 47.3746 16.3392 47.7819 15.8387 47.7819Z" fill="#006DB1"/>
<path d="M8.65857 54.1535C7.15625 54.1535 5.93396 55.3758 5.93396 56.8781C5.93396 58.3804 7.15625 59.6027 8.65857 59.6027C10.1604 59.6027 11.3832 58.3804 11.3832 56.8781C11.3832 55.3758 10.1604 54.1535 8.65857 54.1535ZM8.65857 57.7863C8.15764 57.7863 7.75037 57.379 7.75037 56.8781C7.75037 56.3772 8.15764 55.9699 8.65857 55.9699C9.15903 55.9699 9.56677 56.3772 9.56677 56.8781C9.56677 57.379 9.15903 57.7863 8.65857 57.7863Z" fill="#006DB1"/>
<path d="M4.35974 39.065C5.86159 39.065 7.08435 37.8428 7.08435 36.3404C7.08435 34.8381 5.86159 33.6158 4.35974 33.6158C2.85742 33.6158 1.63513 34.8381 1.63513 36.3404C1.63513 37.8428 2.85742 39.065 4.35974 39.065ZM4.35974 35.4322C4.8602 35.4322 5.26794 35.8395 5.26794 36.3404C5.26794 36.8414 4.8602 37.2486 4.35974 37.2486C3.85881 37.2486 3.45154 36.8414 3.45154 36.3404C3.45154 35.8395 3.85881 35.4322 4.35974 35.4322Z" fill="#006DB1"/>
<path d="M9.61743 9.96989C11.1198 9.96989 12.342 8.7476 12.342 7.24528C12.342 5.74297 11.1198 4.52068 9.61743 4.52068C8.11511 4.52068 6.89282 5.74297 6.89282 7.24528C6.89282 8.7476 8.11511 9.96989 9.61743 9.96989ZM9.61743 6.33708C10.1184 6.33708 10.5256 6.74435 10.5256 7.24528C10.5256 7.74622 10.1184 8.15349 9.61743 8.15349C9.1165 8.15349 8.70923 7.74622 8.70923 7.24528C8.70923 6.74435 9.1165 6.33708 9.61743 6.33708Z" fill="#006DB1"/>
<path d="M31.9243 12.5488C33.4266 12.5488 34.6489 11.3265 34.6489 9.82421C34.6489 8.32189 33.4266 7.0996 31.9243 7.0996C30.422 7.0996 29.1997 8.32189 29.1997 9.82421C29.1997 11.3265 30.422 12.5488 31.9243 12.5488ZM31.9243 8.91601C32.4252 8.91601 32.8325 9.32328 32.8325 9.82421C32.8325 10.3251 32.4252 10.7324 31.9243 10.7324C31.4234 10.7324 31.0161 10.3251 31.0161 9.82421C31.0161 9.32328 31.4234 8.91601 31.9243 8.91601Z" fill="#006DB1"/>
<path d="M56.5394 5.44922C58.0417 5.44922 59.264 4.22693 59.264 2.72461C59.264 1.22229 58.0417 0 56.5394 0C55.0366 0 53.8148 1.22229 53.8148 2.72461C53.8148 4.22693 55.0371 5.44922 56.5394 5.44922ZM56.5394 1.81641C57.0399 1.81641 57.4476 2.22368 57.4476 2.72461C57.4476 3.22554 57.0399 3.63281 56.5394 3.63281C56.0385 3.63281 55.6312 3.22554 55.6312 2.72461C55.6312 2.22368 56.0385 1.81641 56.5394 1.81641Z" fill="#006DB1"/>
</g>
<defs>
<clipPath id="clip0_2164_730">
<rect width="62" height="62" fill="white"/>
</clipPath>
</defs>
</svg>
