<svg width="62" height="62" viewBox="0 0 62 62" fill="none" xmlns="http://www.w3.org/2000/svg">
<g clip-path="url(#clip0_2164_4302)">
<path d="M31.0002 16.6329C34.2262 16.6329 37.2744 17.6778 39.8145 19.6545C40.2104 19.963 40.7809 19.8915 41.0888 19.4956C41.3972 19.0997 41.3258 18.5292 40.9299 18.2213C38.0676 15.9938 34.6339 14.8165 31.0002 14.8165C22.0766 14.8165 14.8171 22.0764 14.8171 31C14.8171 38.7769 20.3312 45.289 27.6545 46.8349C27.6748 46.8396 27.6956 46.8443 27.7165 46.8481C29.8725 47.2942 32.1189 47.2961 34.2839 46.8481C34.3047 46.8443 34.3255 46.8401 34.3459 46.8349C41.6692 45.289 47.1837 38.7769 47.1837 31C47.1837 27.5346 46.1028 24.2291 44.0584 21.4407C43.7619 21.0362 43.1938 20.9487 42.7893 21.2453C42.3844 21.5419 42.2969 22.1105 42.5935 22.5149C44.408 24.9893 45.3673 27.9234 45.3673 31C45.3673 37.5225 40.9975 43.0431 35.0322 44.79V35.9833C35.8912 35.5576 36.6869 34.9951 37.3898 34.3022C41.5845 30.1651 40.8282 23.1379 35.7124 20.0363C35.2219 19.7387 34.607 19.7288 34.1075 20.0103C33.6084 20.2912 33.2986 20.8215 33.2986 21.3938V26.6335L30.942 28.886L28.7018 26.6458V21.3938C28.7018 20.8215 28.3919 20.2912 27.8929 20.0103C27.3934 19.7288 26.778 19.7392 26.287 20.0367C21.2564 23.0873 20.3316 30.1315 24.6678 34.3414C25.3561 35.0098 26.1328 35.5552 26.9681 35.9719V39.0158C26.9681 39.5172 27.3749 39.924 27.8763 39.924C28.3782 39.924 28.7845 39.5172 28.7845 39.0158V36.6474C30.2486 37.0168 31.7778 37.0102 33.2158 36.6526V45.1959C32.7858 45.2626 32.3497 45.3099 31.9084 45.3373V40.2263C31.9084 39.7249 31.5016 39.3181 31.0002 39.3181C30.4988 39.3181 30.092 39.7249 30.092 40.2263V45.3373C29.6507 45.3094 29.2145 45.2626 28.7845 45.1959V43.2541C28.7845 42.7522 28.3782 42.3459 27.8763 42.3459C27.3749 42.3459 26.9681 42.7522 26.9681 43.2541V44.79C21.0029 43.0431 16.6331 37.5225 16.6331 31C16.6331 23.0778 23.078 16.6329 31.0002 16.6329ZM28.312 34.5916C28.2538 34.56 28.1918 34.5354 28.127 34.5164C25.6281 33.4431 23.8448 31.0123 23.7232 28.1406C23.6158 25.6165 24.8192 23.2282 26.8854 21.8115V26.7551C26.8854 27.1699 27.0467 27.5597 27.3399 27.853L29.8403 30.3529C30.4321 30.9451 31.4056 30.956 32.0101 30.3775L34.6354 27.8686C34.94 27.5772 35.1145 27.168 35.1145 26.7466V21.8111C37.1069 23.1724 38.2838 25.3904 38.2838 27.8222C38.2838 30.9063 36.3889 33.4677 33.8071 34.5472C33.7782 34.5581 33.7499 34.5699 33.7224 34.5836C32.0621 35.2529 30.11 35.3064 28.312 34.5916Z" fill="#006DB1"/>
<path d="M59.6907 24.1554L53.7358 23.4364C53.5698 23.4165 53.4307 23.3016 53.3725 23.1365C53.0864 22.3224 52.75 21.5135 52.3735 20.7312C52.3011 20.5807 52.3172 20.4086 52.4161 20.2827L56.1274 15.5525C56.9458 14.509 56.8559 13.0152 55.9184 12.0772L49.9228 6.08165C48.9848 5.14412 47.491 5.05424 46.4475 5.87257L41.7173 9.58438C41.591 9.68277 41.4193 9.69933 41.2688 9.62648C40.4869 9.24995 39.6776 8.91364 38.864 8.62746C38.6984 8.56927 38.5835 8.43021 38.5636 8.26418L37.8446 2.3093C37.6857 0.992874 36.5656 0 35.2397 0H26.7603C25.4344 0 24.3143 0.992874 24.1554 2.3093L23.4364 8.2637C23.4165 8.43021 23.3016 8.56927 23.1365 8.62746C22.3224 8.91364 21.5131 9.24995 20.7316 9.62648C20.5807 9.69885 20.409 9.68277 20.2832 9.58391L15.5525 5.87257C14.509 5.05377 13.0152 5.14412 12.0777 6.08165L10.5782 7.58113C10.2234 7.9359 10.2234 8.51109 10.5782 8.86539C10.933 9.22015 11.5077 9.22015 11.8625 8.86539L13.3619 7.36638C13.6505 7.07784 14.1098 7.04993 14.4314 7.30205L19.1617 11.0134C19.8367 11.5427 20.7401 11.6387 21.5197 11.2631C22.2415 10.9155 22.9879 10.6052 23.7391 10.3412C24.5612 10.0517 25.1364 9.33936 25.24 8.48177L25.9585 2.52689C26.0077 2.12198 26.3521 1.81641 26.7603 1.81641H35.2397C35.6474 1.81641 35.9923 2.12198 36.0415 2.52689L36.76 8.48177C36.8636 9.33936 37.4388 10.0517 38.2609 10.3407C39.0121 10.6052 39.7585 10.9155 40.4803 11.2631C41.2599 11.6382 42.1633 11.5427 42.8383 11.0134L47.5686 7.30205C47.8897 7.04993 48.3495 7.07784 48.6381 7.36638L54.6336 13.3619C54.9222 13.6505 54.9501 14.1103 54.698 14.4314L50.9866 19.1617C50.4573 19.8367 50.3618 20.7401 50.7369 21.5197C51.0845 22.2415 51.3948 22.9884 51.6593 23.7391C51.9483 24.5612 52.6611 25.1364 53.5182 25.24L59.4726 25.9585C59.878 26.0077 60.1836 26.3521 60.1836 26.7603V35.2397C60.1836 35.6479 59.878 35.9923 59.4731 36.0415L53.5182 36.7605C52.6611 36.8636 51.9483 37.4388 51.6593 38.2609C51.3948 39.0121 51.0845 39.7585 50.7369 40.4803C50.3618 41.2599 50.4573 42.1633 50.9866 42.8383L54.698 47.569C54.9501 47.8902 54.9222 48.35 54.6336 48.6385L48.6381 54.6341C48.3495 54.9226 47.8897 54.9501 47.5686 54.6984L42.8383 50.9871C42.1633 50.4573 41.2599 50.3618 40.4803 50.7373C39.7585 51.085 39.0121 51.3953 38.2609 51.6593C37.4388 51.9487 36.8636 52.6611 36.76 53.5187L36.0415 59.4731C35.9923 59.8785 35.6479 60.1841 35.2397 60.1841H26.7603C26.3521 60.1841 26.0077 59.8785 25.9585 59.4731L25.24 53.5187C25.1364 52.6611 24.5612 51.9487 23.7391 51.6593C22.9879 51.3953 22.2415 51.085 21.5197 50.7373C20.7401 50.3618 19.8367 50.4573 19.1617 50.9871L14.4314 54.698C14.1103 54.9496 13.6505 54.9222 13.3619 54.6336L7.36638 48.6381C7.07784 48.3495 7.04993 47.8897 7.30205 47.5686L11.0134 42.8383C11.5427 42.1633 11.6382 41.2599 11.2631 40.4803C10.9155 39.7585 10.6052 39.0116 10.3407 38.2609C10.0517 37.4388 9.33888 36.8636 8.48177 36.76L2.52736 36.0415C2.12198 35.9923 1.81641 35.6479 1.81641 35.2397V26.7603C1.81641 26.3521 2.12198 26.0077 2.52689 25.9585L8.48177 25.2395C9.33888 25.1364 10.0517 24.5612 10.3407 23.7391C10.6052 22.9879 10.9155 22.2415 11.2631 21.5197C11.6382 20.7401 11.5427 19.8367 11.0134 19.1617L7.30205 14.4314C7.04993 14.1103 7.07784 13.6505 7.36638 13.3619L8.86586 11.8625C9.22015 11.5077 9.22015 10.9325 8.86586 10.5782C8.51109 10.2234 7.9359 10.2234 7.58113 10.5782L6.08212 12.0777C5.14412 13.0152 5.05424 14.509 5.87305 15.5525L9.58438 20.2832C9.68324 20.409 9.69933 20.5807 9.62648 20.7316C9.24995 21.5135 8.91364 22.3229 8.62746 23.136C8.56927 23.3016 8.43021 23.4165 8.26418 23.4364L2.3093 24.1554C0.992874 24.3143 0 25.4344 0 26.7603V35.2397C0 36.5656 0.992874 37.6857 2.3093 37.8446L8.26418 38.5636C8.43021 38.5835 8.56927 38.6984 8.62746 38.8635C8.91364 39.6771 9.24995 40.4865 9.62648 41.2684C9.69933 41.4193 9.68277 41.591 9.58438 41.7168L5.87305 46.4475C5.05424 47.491 5.14412 48.9848 6.08212 49.9223L12.0777 55.9179C13.0152 56.8559 14.509 56.9458 15.5525 56.127L20.2832 52.4156C20.409 52.3168 20.5807 52.3007 20.7316 52.3735C21.5131 52.75 22.3224 53.0859 23.1365 53.3725C23.3016 53.4303 23.4165 53.5698 23.4364 53.7358L24.1554 59.6902C24.3143 61.0071 25.4344 62 26.7603 62H35.2397C36.5656 62 37.6857 61.0071 37.8446 59.6907L38.5636 53.7358C38.5835 53.5698 38.6984 53.4307 38.8635 53.3725C39.6776 53.0864 40.4869 52.75 41.2684 52.3735C41.4193 52.3007 41.591 52.3172 41.7168 52.4161L46.4475 56.1274C47.4905 56.9458 48.9848 56.8559 49.9223 55.9184L55.9179 49.9228C56.8559 48.9848 56.9458 47.491 56.127 46.4475L52.4156 41.7173C52.3168 41.5914 52.3007 41.4193 52.3735 41.2688C52.75 40.4865 53.0859 39.6776 53.3725 38.864C53.4303 38.6989 53.5698 38.584 53.7358 38.5636L59.6902 37.8446C61.0071 37.6857 62 36.5656 62 35.2397V26.7603C62 25.4344 61.0071 24.3143 59.6907 24.1554Z" fill="#006DB1"/>
</g>
<defs>
<clipPath id="clip0_2164_4302">
<rect width="62" height="62" fill="white"/>
</clipPath>
</defs>
</svg>
