<svg width="292" height="50" viewBox="0 0 292 50" fill="none" xmlns="http://www.w3.org/2000/svg">
<path fill-rule="evenodd" clip-rule="evenodd" d="M8.15455 48.0779C9.24224 48.0409 10.3299 48.0057 11.4176 47.9835C12.5053 47.9613 13.593 47.952 14.6807 47.9465C15.0365 47.9446 15.3278 48.239 15.3278 48.5963C15.3278 48.6907 15.3278 48.7814 15.3278 48.8703C15.3278 49.2294 15.0365 49.5201 14.6807 49.5201C13.593 49.5201 12.5035 49.5201 11.4176 49.5201C10.3299 49.5201 9.24224 49.5201 8.15455 49.5201C7.79875 49.5201 7.50746 49.2591 7.50746 48.9369C7.50746 48.8573 7.50746 48.7722 7.50746 48.6889C7.50931 48.3686 7.79875 48.0909 8.15455 48.0779ZM16.8966 47.8724C18.1742 47.8539 19.45 47.8354 20.7257 47.828C22.0014 47.8206 23.2772 47.8021 24.551 47.7984C24.9732 47.7965 25.3106 48.1205 25.3106 48.5167C25.3106 48.6204 25.3087 48.7203 25.3087 48.8185C25.3069 49.2091 24.964 49.522 24.5418 49.522C23.2606 49.522 21.9811 49.522 20.7017 49.522C19.4223 49.522 18.1429 49.522 16.8635 49.522C16.4431 49.522 16.1113 49.2239 16.1168 48.8536C16.1187 48.7592 16.1205 48.6648 16.1224 48.5704C16.126 48.1946 16.4782 47.878 16.8966 47.8724ZM16.9649 44.8326C18.2351 44.7771 19.5034 44.7252 20.7718 44.6882C22.0383 44.6512 23.3085 44.6234 24.5805 44.6086C24.9953 44.603 25.3382 44.9252 25.3309 45.3232C25.329 45.4213 25.3309 45.5213 25.3309 45.6213C25.329 46.0174 24.9861 46.3433 24.5676 46.3451C23.2956 46.3525 22.0217 46.3766 20.7497 46.3988C19.4776 46.421 18.2019 46.4506 16.9335 46.4877C16.5169 46.5006 16.1758 46.2044 16.1832 45.8286C16.185 45.7397 16.185 45.6453 16.1869 45.5509C16.1979 45.1806 16.5482 44.8511 16.9649 44.8326ZM17.0312 41.7891C18.294 41.6965 19.5569 41.6113 20.8197 41.5502C22.0825 41.491 23.3454 41.4484 24.6063 41.4207C25.0193 41.4114 25.3659 41.7372 25.3604 42.1353C25.3585 42.2352 25.3548 42.3333 25.3548 42.4333C25.353 42.8295 25.0101 43.1516 24.5953 43.1572C23.3288 43.1757 22.0641 43.2164 20.7976 43.2608C19.5329 43.3053 18.2646 43.3756 16.9999 43.4497C16.5832 43.4737 16.2459 43.1868 16.2569 42.8147C16.2606 42.7203 16.2606 42.6259 16.2625 42.537C16.2698 42.1612 16.6183 41.8205 17.0312 41.7891ZM17.0957 38.7418C18.353 38.6122 19.6103 38.4993 20.8676 38.4141C22.1231 38.329 23.3785 38.2679 24.6303 38.2309C25.0433 38.2179 25.3825 38.5437 25.3825 38.9344C25.3825 39.038 25.3843 39.138 25.3825 39.2361C25.377 39.6323 25.0359 39.96 24.6193 39.9692C23.3638 39.9989 22.1047 40.0562 20.8437 40.1284C19.5845 40.2006 18.3217 40.2988 17.0644 40.4061C16.6496 40.4413 16.3159 40.1729 16.327 39.8008C16.3307 39.7026 16.3307 39.6119 16.3325 39.5138C16.3417 39.138 16.6846 38.7844 17.0957 38.7418ZM17.1676 35.7038C18.4176 35.5372 19.6675 35.3891 20.9193 35.2817C22.1692 35.1744 23.4228 35.0966 24.6709 35.0485C25.082 35.0318 25.4101 35.3502 25.4046 35.7483C25.4028 35.8464 25.4064 35.9464 25.4046 36.0463C25.3991 36.4425 25.0654 36.7757 24.6561 36.7905C23.4007 36.8313 22.1452 36.8979 20.8934 36.9886C19.638 37.0812 18.3844 37.2108 17.1308 37.3608C16.7178 37.4107 16.3915 37.1571 16.397 36.7757C16.3989 36.6869 16.397 36.5869 16.3989 36.4925C16.4136 36.1148 16.7528 35.7575 17.1676 35.7038ZM17.234 32.664C18.4821 32.4585 19.7265 32.2771 20.9672 32.1438C22.2116 32.0105 23.4578 31.9216 24.6985 31.8661C25.1059 31.8476 25.4341 32.1641 25.4341 32.5603C25.4341 32.6584 25.4378 32.7584 25.4359 32.8584C25.4286 33.2509 25.0912 33.5804 24.6838 33.597C23.4339 33.6489 22.1895 33.7341 20.9414 33.8544C19.6933 33.9766 18.4471 34.1284 17.1971 34.3154C16.7879 34.3764 16.4597 34.1321 16.4671 33.7544C16.4689 33.6656 16.4708 33.5656 16.4726 33.4712C16.4837 33.0953 16.8284 32.7306 17.234 32.664ZM17.3022 29.6112C18.5392 29.3724 19.7799 29.1576 21.0188 29.0021C22.2521 28.8466 23.491 28.7374 24.7262 28.6707C25.1318 28.6485 25.4618 28.9688 25.4562 29.365C25.4544 29.4687 25.4544 29.5686 25.4544 29.6667C25.4544 30.0592 25.1152 30.3887 24.7077 30.411C23.4707 30.4739 22.23 30.5739 20.9948 30.7183C19.7523 30.8627 18.5097 31.0552 17.2709 31.2792C16.8635 31.3533 16.5353 31.1108 16.5464 30.7386C16.5482 30.6498 16.5464 30.5554 16.5482 30.4517C16.5537 30.087 16.893 29.6908 17.3022 29.6112ZM17.3686 26.5677C18.6038 26.2881 19.8353 26.04 21.0667 25.8642C22.2945 25.6883 23.5223 25.5606 24.7501 25.4828C25.1539 25.4569 25.4912 25.7753 25.4876 26.1715C25.4857 26.2715 25.4802 26.3696 25.4802 26.4732C25.4802 26.8694 25.141 27.2008 24.7372 27.2212C23.5039 27.2878 22.2743 27.4137 21.0409 27.5785C19.8076 27.7414 18.5687 27.9654 17.3372 28.2227C16.9298 28.3079 16.6054 28.0894 16.6146 27.7118C16.6164 27.6229 16.6164 27.5285 16.6183 27.4341C16.6238 27.0638 16.9612 26.6602 17.3686 26.5677ZM17.4331 23.5241C18.6646 23.2075 19.8906 22.9373 21.1147 22.7318C22.3388 22.5263 23.5555 22.3819 24.7796 22.2949C25.1834 22.2671 25.5078 22.5818 25.506 22.978C25.506 23.078 25.5042 23.1761 25.5023 23.276C25.4968 23.6722 25.1705 24.0092 24.7649 24.0351C23.5426 24.1091 22.3148 24.2461 21.0889 24.4368C19.8611 24.6275 18.6296 24.883 17.4018 25.181C16.9925 25.281 16.6736 25.0718 16.6791 24.696C16.6809 24.6016 16.6828 24.5127 16.6846 24.4183C16.6975 24.0351 17.0257 23.6296 17.4331 23.5241ZM17.4976 20.475C18.7236 20.1196 19.9422 19.8141 21.1608 19.5883C22.3738 19.3642 23.5924 19.205 24.8091 19.1125C25.2073 19.0828 25.5263 19.3957 25.5263 19.7863C25.5263 19.89 25.53 19.99 25.5281 20.0881C25.5226 20.4806 25.1963 20.8194 24.7981 20.8471C23.5813 20.9323 22.3572 21.0823 21.1368 21.2989C19.9164 21.5136 18.6904 21.8098 17.4645 22.1412C17.0626 22.2504 16.7436 22.0468 16.7492 21.6747C16.751 21.5803 16.7492 21.4858 16.751 21.3877C16.7639 21.0156 17.0976 20.5917 17.4976 20.475ZM17.5695 17.4315C17.1695 17.5592 16.8358 17.9924 16.8303 18.3682C16.8284 18.4571 16.8284 18.5515 16.8266 18.6515C16.8155 19.0236 17.1289 19.2069 17.5327 19.0828C18.7494 18.707 19.968 18.396 21.1847 18.1553C22.3959 17.9147 23.6127 17.7425 24.8257 17.6499C25.2221 17.6203 25.5502 17.2889 25.5502 16.8909C25.5502 16.7928 25.5521 16.6928 25.5521 16.5928C25.5558 16.1967 25.2313 15.8856 24.8349 15.919C23.6293 16.0189 22.4181 16.1893 21.2105 16.4447C19.9975 16.7021 18.7863 17.0409 17.5695 17.4315ZM17.6341 14.3879C18.8453 13.9621 20.0491 13.5863 21.2566 13.3123C22.4568 13.0402 23.6625 12.8403 24.8589 12.7329C25.2516 12.6977 25.5871 13.005 25.5779 13.4031C25.5761 13.5012 25.5724 13.6011 25.5724 13.7011C25.5705 14.1028 25.2479 14.4398 24.8497 14.475C23.6477 14.5786 22.4383 14.7712 21.2327 15.0303C20.0215 15.2914 18.8121 15.6357 17.6046 16.0412C17.2027 16.1763 16.8782 16.0115 16.8966 15.6302C16.9003 15.5358 16.9003 15.4413 16.9022 15.3469C16.9077 14.9693 17.234 14.5286 17.6341 14.3879ZM17.6986 11.3296C17.2985 11.4833 16.9796 11.9498 16.9685 12.3219C16.9649 12.4256 16.9667 12.5144 16.9649 12.6088C16.9538 12.981 17.2709 13.1476 17.6691 13.0013C18.8729 12.5589 20.0823 12.1793 21.2843 11.8905C22.4807 11.6036 23.6846 11.4018 24.8829 11.2852C25.2756 11.2481 25.5945 10.9038 25.6 10.5113C25.6019 10.4114 25.5982 10.3132 25.6 10.2096C25.6055 9.81708 25.2829 9.50606 24.8939 9.54494C23.7012 9.66528 22.5029 9.86892 21.3101 10.1651C20.1044 10.4632 18.9006 10.8649 17.6986 11.3296ZM17.7668 8.28791C18.9633 7.78991 20.1579 7.3567 21.3543 7.03458C22.5434 6.71245 23.7343 6.49029 24.9234 6.35515C25.3124 6.31072 25.6277 6.62359 25.6277 7.01977C25.6277 7.11789 25.6221 7.21786 25.6221 7.31783C25.6221 7.714 25.2977 8.04909 24.9068 8.09167C23.7159 8.21941 22.5158 8.43786 21.3267 8.74518C20.1302 9.0562 18.9301 9.46719 17.7355 9.94482C17.3336 10.1059 17.022 9.95963 17.0331 9.58382C17.0349 9.49496 17.0349 9.40054 17.0367 9.30057C17.046 8.92661 17.3686 8.45267 17.7668 8.28791ZM17.8295 5.24437C17.4313 5.42394 17.1179 5.90343 17.1105 6.27554C17.1087 6.36996 17.1087 6.46438 17.105 6.55324C17.0902 6.94016 17.3999 7.07716 17.7963 6.90498C18.9891 6.38847 20.18 5.94601 21.3709 5.61093C22.5563 5.27769 23.7436 5.04072 24.929 4.90188C25.3198 4.85559 25.6406 4.52421 25.6461 4.12803C25.6479 4.02806 25.6461 3.92994 25.6461 3.82997C25.6461 3.42824 25.3327 3.11537 24.9456 3.16165C23.7638 3.3005 22.5784 3.54672 21.3967 3.89477C20.2076 4.24652 19.0204 4.70564 17.8295 5.24437ZM17.8922 2.21934C19.0776 1.64544 20.2593 1.15114 21.4428 0.782731C22.619 0.414321 23.797 0.15699 24.9714 0.0051829C25.3548 -0.0448023 25.6682 0.273623 25.6682 0.664247C25.6682 0.76792 25.6682 0.86789 25.6682 0.966009C25.6664 1.36219 25.3419 1.69727 24.9585 1.74356C23.7786 1.88981 22.595 2.13973 21.4189 2.49704C20.2335 2.85804 19.0499 3.33567 17.8645 3.88551C17.4663 4.07064 17.1603 3.94475 17.1769 3.56894C17.1805 3.48008 17.1805 3.38566 17.1805 3.28199C17.1805 2.90988 17.5013 2.41002 17.8922 2.21934ZM27.545 47.7984C28.8188 47.8021 30.0946 47.8151 31.3703 47.828C32.6442 47.841 33.9218 47.8558 35.1994 47.878C35.6178 47.8854 35.9607 48.1946 35.9663 48.5722C35.9681 48.6667 35.97 48.7611 35.9718 48.8555C35.9773 49.2276 35.6363 49.5238 35.2178 49.5238C33.9365 49.5238 32.6571 49.5238 31.3777 49.5238C30.0983 49.5238 28.8188 49.5238 27.5376 49.5238C27.1173 49.5238 26.778 49.2109 26.778 48.8203C26.778 48.7203 26.778 48.6222 26.778 48.5185C26.7744 48.1205 27.1265 47.7965 27.545 47.7984ZM27.556 44.616C28.8244 44.6345 30.0927 44.6586 31.3629 44.6956C32.6331 44.7326 33.9015 44.7826 35.1717 44.84C35.5865 44.8585 35.9331 45.1825 35.9349 45.5583C35.9349 45.6472 35.9386 45.7416 35.9386 45.836C35.9441 46.2118 35.6012 46.5025 35.1901 46.4895C33.9181 46.4525 32.6442 46.4229 31.3722 46.4007C30.1001 46.3784 28.8281 46.3544 27.556 46.347C27.1375 46.3451 26.7928 46.0193 26.7928 45.6287C26.7928 45.5287 26.7909 45.4306 26.7928 45.3306C26.7965 44.9326 27.1394 44.6086 27.556 44.616ZM27.5671 41.4225C28.8262 41.4521 30.0927 41.504 31.3537 41.5614C32.6129 41.6187 33.8794 41.6965 35.1385 41.7946C35.5552 41.8261 35.9073 42.1667 35.9091 42.5388C35.9091 42.637 35.9054 42.7277 35.9073 42.8221C35.9128 43.1998 35.5718 43.4756 35.1606 43.4515C33.896 43.3812 32.6276 43.3127 31.3629 43.2683C30.0964 43.2238 28.8299 43.1831 27.5671 43.1646C27.1523 43.159 26.8094 42.8332 26.8149 42.4352C26.8168 42.3352 26.8149 42.2371 26.8149 42.1371C26.8112 41.7409 27.1523 41.4132 27.5671 41.4225ZM27.5837 38.2401C28.8336 38.2808 30.0909 38.3438 31.3445 38.429C32.6 38.5123 33.8554 38.6252 35.1146 38.7511C35.5257 38.7918 35.8704 39.1473 35.8778 39.5194C35.8796 39.6193 35.8815 39.7119 35.8815 39.8063C35.8833 40.1784 35.5404 40.4524 35.133 40.4154C33.872 40.3025 32.6092 40.2043 31.3519 40.1321C30.0946 40.0599 28.8354 40.0118 27.5781 39.9785C27.1615 39.9674 26.8241 39.636 26.8278 39.2398C26.8278 39.1399 26.8278 39.0417 26.8278 38.9381C26.8278 38.5474 27.1707 38.2272 27.5837 38.2401ZM27.5947 35.0577C28.8447 35.1022 30.0891 35.1892 31.339 35.2966C32.5852 35.4021 33.8351 35.5428 35.0887 35.7131C35.5054 35.7705 35.8391 36.1296 35.8464 36.5055C35.8483 36.5943 35.852 36.6943 35.852 36.7887C35.8538 37.1645 35.5183 37.4218 35.109 37.3737C33.8536 37.2238 32.6 37.0886 31.3463 36.9979C30.0927 36.9072 28.8391 36.835 27.5874 36.7943C27.1744 36.7813 26.8426 36.4462 26.8426 36.05C26.8426 35.9501 26.8389 35.8519 26.8407 35.752C26.8463 35.3558 27.1855 35.0448 27.5947 35.0577ZM27.6113 31.8772C28.8502 31.9364 30.0964 32.0253 31.3353 32.1604C32.5778 32.2937 33.8185 32.4696 35.0592 32.6807C35.4722 32.751 35.8059 33.1176 35.8114 33.4934C35.8133 33.5822 35.8133 33.6767 35.8151 33.7766C35.8225 34.1487 35.4869 34.3876 35.0777 34.3265C33.8278 34.1395 32.5778 33.984 31.3334 33.8655C30.0891 33.747 28.8428 33.6581 27.5947 33.6026C27.1855 33.5841 26.8555 33.2601 26.8555 32.8695C26.8555 32.7695 26.8518 32.6714 26.8536 32.5714C26.8665 32.1734 27.2039 31.8568 27.6113 31.8772ZM27.6224 28.6837C28.8557 28.754 30.089 28.8707 31.3242 29.0262C32.5612 29.1817 33.7983 29.3927 35.0334 29.6353C35.439 29.7149 35.7745 30.1055 35.7764 30.4739C35.7764 30.572 35.7838 30.6664 35.7838 30.7572C35.7893 31.1293 35.4556 31.3662 35.0537 31.2922C33.813 31.0682 32.5705 30.883 31.3279 30.7368C30.0927 30.5905 28.8539 30.4924 27.615 30.4239C27.2076 30.4017 26.8739 30.0722 26.8758 29.6797C26.8758 29.5797 26.885 29.4816 26.8831 29.3779C26.8813 28.9818 27.2187 28.6615 27.6224 28.6837ZM27.6316 25.5013C28.8594 25.5828 30.0891 25.705 31.315 25.8882C32.5447 26.0715 33.7743 26.314 35.0021 26.5973C35.4077 26.6898 35.7524 27.0879 35.7524 27.4655C35.7524 27.56 35.7506 27.6488 35.7524 27.7432C35.7579 28.1153 35.4224 28.3394 35.0224 28.2542C33.7872 27.9932 32.5502 27.7692 31.3187 27.6007C30.089 27.4322 28.8539 27.3174 27.6298 27.2397C27.226 27.2138 26.8905 26.8824 26.8997 26.4918C26.9016 26.3881 26.8979 26.2881 26.8979 26.19C26.8979 25.7901 27.2279 25.4754 27.6316 25.5013ZM27.6445 22.3189C28.8612 22.4115 30.0872 22.554 31.3076 22.7595C32.5299 22.965 33.754 23.2427 34.9818 23.563C35.3874 23.6685 35.7137 24.074 35.7211 24.4498C35.7229 24.5442 35.7211 24.6386 35.7211 24.7275C35.7229 25.1033 35.4003 25.3162 35.0003 25.2181C33.7688 24.9181 32.5391 24.6608 31.3132 24.4646C30.089 24.2683 28.8649 24.1425 27.6427 24.0536C27.2408 24.024 26.9163 23.6926 26.9163 23.2946C26.9163 23.1946 26.9126 23.0965 26.9145 22.9965C26.9163 22.6077 27.2389 22.2893 27.6445 22.3189ZM27.6519 19.1328C27.2537 19.0995 26.9292 19.4161 26.9255 19.8067C26.9255 19.9104 26.9255 20.0103 26.9255 20.1085C26.9274 20.4991 27.2481 20.8342 27.65 20.8675C28.8649 20.9638 30.0835 21.1211 31.3021 21.3377C32.5225 21.5562 33.7448 21.8431 34.9708 22.1801C35.369 22.2893 35.6934 22.0912 35.6916 21.7135C35.6916 21.6247 35.6879 21.5303 35.6861 21.4266C35.6805 21.0656 35.3561 20.6361 34.9505 20.5195C33.7319 20.1659 32.5133 19.8548 31.2966 19.6216C30.0835 19.3902 28.8668 19.2365 27.6519 19.1328ZM27.6722 15.9449C28.876 16.0597 30.0835 16.2374 31.291 16.4947C32.5004 16.7521 33.7079 17.0964 34.921 17.4907C35.3192 17.6203 35.6492 18.0461 35.6547 18.4182C35.6566 18.5126 35.6566 18.6071 35.6584 18.7015C35.6639 19.0736 35.3395 19.255 34.9394 19.1328C33.7227 18.7589 32.5041 18.4423 31.291 18.2016C30.0798 17.961 28.8668 17.7888 27.6574 17.6814C27.2629 17.6462 26.9421 17.3149 26.9458 16.9187C26.9458 16.8206 26.9458 16.7206 26.9458 16.6206C26.9458 16.217 27.2776 15.9079 27.6722 15.9449ZM27.6851 12.7625C27.2905 12.7218 26.9569 13.0309 26.9587 13.4271C26.9587 13.5252 26.9587 13.6252 26.9587 13.7289C26.955 14.1251 27.2795 14.4527 27.6759 14.4916C28.8778 14.6101 30.0835 14.8045 31.2892 15.0711C32.4967 15.3395 33.7024 15.695 34.9118 16.1023C35.3081 16.2355 35.6326 16.0671 35.6271 15.6913C35.6252 15.5968 35.6234 15.4987 35.6234 15.408C35.6234 15.0303 35.2934 14.5934 34.8952 14.4509C33.6895 14.0177 32.4875 13.6456 31.2818 13.366C30.0817 13.0883 28.876 12.8847 27.6851 12.7625ZM27.6906 9.57641C28.8834 9.71156 30.0798 9.93001 31.2689 10.2299C32.4672 10.5335 33.6655 10.9353 34.8675 11.4055C35.2657 11.561 35.5828 12.0257 35.5865 12.3922C35.5865 12.4922 35.592 12.5848 35.592 12.6792C35.5976 13.0458 35.2823 13.2142 34.8878 13.0661C33.6821 12.6144 32.482 12.2275 31.2763 11.9368C30.0835 11.648 28.8815 11.4518 27.6832 11.3166C27.2887 11.2722 26.9716 10.9353 26.9716 10.5428C26.9716 10.4428 26.9679 10.3447 26.9698 10.241C26.9753 9.84855 27.3016 9.53198 27.6906 9.57641ZM27.698 6.39403C27.3108 6.34589 26.9864 6.65691 26.9827 7.05309C26.9827 7.15306 26.9845 7.25118 26.9845 7.35115C26.9845 7.74177 27.3016 8.07871 27.6906 8.12499C28.8852 8.26384 30.0743 8.4934 31.2652 8.80812C32.4599 9.12655 33.6545 9.54679 34.8546 10.0318C35.2454 10.191 35.5644 10.0374 35.557 9.67083C35.5552 9.57086 35.5607 9.47644 35.5588 9.38758C35.5515 9.00621 35.2325 8.54339 34.8399 8.37677C33.6452 7.86581 32.4488 7.43631 31.2579 7.10307C30.0743 6.77169 28.8834 6.53843 27.698 6.39403ZM27.7072 3.21164C28.8871 3.3727 30.0706 3.61892 31.2486 3.97067C32.434 4.32427 33.6231 4.7982 34.8104 5.33878C35.203 5.51651 35.5164 5.99414 35.522 6.36996C35.5238 6.46437 35.5257 6.55324 35.5257 6.64765C35.5294 7.02902 35.2141 7.16972 34.8251 6.9994C33.6323 6.47548 32.4433 6.02376 31.2523 5.68127C30.0706 5.34063 28.8871 5.09997 27.7035 4.94816C27.3164 4.89817 26.9974 4.55753 27.0011 4.1595C27.0011 4.06139 26.9974 3.96142 26.9993 3.86144C27.0066 3.46341 27.3219 3.1598 27.7072 3.21164ZM27.7219 0.0385064C27.3385 -0.018884 27.0232 0.292135 27.0232 0.68276C27.0232 0.786433 27.0177 0.886403 27.0159 0.984522C27.0066 1.3807 27.3311 1.72319 27.7164 1.77688C28.8907 1.94535 30.0706 2.19712 31.2486 2.55998C32.4303 2.92469 33.6121 3.41343 34.7975 3.97808C35.1864 4.16321 35.5072 4.02806 35.4999 3.6504C35.498 3.55598 35.4962 3.46156 35.4943 3.36715C35.4888 2.99504 35.1735 2.50629 34.7882 2.31561C33.6065 1.73245 32.4248 1.2363 31.2468 0.853079C30.0706 0.477265 28.8926 0.21438 27.7219 0.0385064ZM52.4678 48.2964C51.6217 48.2427 50.7736 48.2038 49.9274 48.1798C49.0831 48.1575 48.2351 48.1501 47.3889 48.1464C47.1123 48.1464 46.8837 48.4038 46.8837 48.7166C46.8837 48.7962 46.8837 48.8777 46.8837 48.9555C46.8837 49.2683 47.1123 49.522 47.3926 49.522C48.248 49.522 49.1034 49.522 49.9569 49.522C50.8123 49.522 51.6677 49.522 52.5213 49.522C52.8015 49.522 53.0172 49.2998 53.0043 49.0295C53.0006 48.9629 52.9969 48.8925 52.9933 48.824C52.9822 48.5537 52.7444 48.3131 52.4678 48.2964ZM52.3646 46.0397C51.5313 45.8897 50.6999 45.7731 49.8703 45.7101C49.0425 45.6472 48.2111 45.6268 47.3797 45.6213C47.1087 45.6194 46.8856 45.8804 46.8856 46.1933C46.8856 46.2729 46.8856 46.3525 46.8856 46.4321C46.8856 46.745 47.1105 46.9949 47.387 46.9968C48.2258 46.9986 49.0665 47.0116 49.9035 47.0542C50.7423 47.0967 51.5829 47.1708 52.4218 47.2671C52.6983 47.2985 52.9103 47.1116 52.8974 46.8413C52.8937 46.7728 52.89 46.7043 52.8863 46.6339C52.8716 46.3618 52.6375 46.0878 52.3646 46.0397ZM52.2614 43.7792C51.4447 43.533 50.6298 43.3423 49.8113 43.2349C49.002 43.1294 48.1853 43.0979 47.3704 43.0905C47.1031 43.0868 46.8856 43.3516 46.8856 43.6644C46.8856 43.744 46.8856 43.8255 46.8856 43.9033C46.8856 44.2161 47.1068 44.4642 47.376 44.466C48.1982 44.4716 49.0223 44.4975 49.8426 44.5827C50.6667 44.6678 51.4926 44.8178 52.3167 45.0085C52.5895 45.0714 52.7978 44.9178 52.7849 44.6475C52.7812 44.5808 52.7776 44.5105 52.7739 44.442C52.761 44.1698 52.5324 43.8607 52.2614 43.7792ZM52.1563 41.5225C51.3562 41.1818 50.5561 40.9152 49.7523 40.7653C48.9614 40.6172 48.1576 40.5765 47.3612 40.5654C47.0994 40.5617 46.8837 40.8282 46.8837 41.1393C46.8837 41.2189 46.8837 41.3003 46.8837 41.3781C46.8837 41.6909 47.1013 41.9353 47.3649 41.939C48.1705 41.9483 48.9817 41.9853 49.7836 42.1112C50.593 42.2371 51.4041 42.4629 52.2116 42.7517C52.4826 42.848 52.6854 42.7295 52.6725 42.4574C52.6688 42.3889 52.6651 42.3204 52.6614 42.25C52.6504 41.9779 52.4273 41.6373 52.1563 41.5225ZM52.053 39.262C52.3222 39.4101 52.5397 39.786 52.5526 40.0581C52.5563 40.1266 52.56 40.1969 52.5637 40.2636C52.5766 40.5357 52.3794 40.6209 52.1102 40.4913C51.3175 40.1081 50.5247 39.8082 49.7283 39.6379C48.9467 39.4712 48.1503 39.4212 47.3594 39.4083C47.0994 39.4046 46.8874 39.1621 46.8874 38.851C46.8874 38.7733 46.8874 38.6918 46.8874 38.6122C46.8874 38.2994 47.0994 38.0291 47.3557 38.0346C48.1373 38.0494 48.9264 38.105 49.6988 38.292C50.486 38.4845 51.2695 38.827 52.053 39.262ZM51.9498 37.0053C51.1829 36.4758 50.4178 36.0593 49.638 35.8223C48.8858 35.5928 48.1097 35.5261 47.3446 35.5076C47.0921 35.502 46.8856 35.7742 46.8856 36.0871C46.8856 36.1667 46.8856 36.2481 46.8856 36.3259C46.8856 36.6387 47.0939 36.8757 47.3483 36.8813C48.1226 36.8961 48.9061 36.9609 49.6693 37.1682C50.4547 37.3811 51.2308 37.7569 52.007 38.2346C52.2743 38.3993 52.466 38.3456 52.4531 38.0735C52.4494 38.005 52.4457 37.9365 52.442 37.868C52.4273 37.594 52.2171 37.1886 51.9498 37.0053ZM51.8466 34.7467C52.1102 34.9652 52.3167 35.4039 52.3314 35.6742C52.3351 35.7446 52.3388 35.8131 52.3425 35.8816C52.3554 36.1519 52.1692 36.1741 51.9037 35.9741C51.1442 35.4021 50.3865 34.9504 49.6122 34.693C48.8711 34.445 48.0986 34.3709 47.3409 34.3524C47.0921 34.3468 46.8874 34.1117 46.8874 33.7988C46.8874 33.7211 46.8874 33.6415 46.8874 33.56C46.8874 33.2472 47.0902 32.9695 47.3354 32.9769C48.0857 32.9991 48.8508 33.0824 49.5808 33.3508C50.3478 33.6322 51.0944 34.1228 51.8466 34.7467ZM51.7433 32.4881C51.0078 31.7735 50.2795 31.2052 49.5219 30.8756C48.8121 30.5683 48.0599 30.4702 47.3262 30.4461C47.0847 30.4387 46.8874 30.7201 46.8874 31.033C46.8874 31.1126 46.8874 31.1922 46.8874 31.2718C46.8874 31.5847 47.0884 31.8161 47.3317 31.8235C48.0747 31.8457 48.8342 31.9364 49.555 32.2215C50.3201 32.5252 51.0594 33.0528 51.8023 33.7155C52.0659 33.9507 52.2466 33.9599 52.2337 33.6896C52.23 33.6211 52.2263 33.5526 52.2226 33.4841C52.2061 33.212 52.0033 32.7418 51.7433 32.4881ZM0.537022 48.2964C1.38321 48.2427 2.23124 48.2038 3.07743 48.1798C3.92177 48.1575 4.7698 48.1501 5.61599 48.1464C5.89252 48.1464 6.12112 48.4038 6.12112 48.7166C6.12112 48.7962 6.12112 48.8777 6.12112 48.9555C6.12112 49.2683 5.89252 49.522 5.6123 49.522C4.7569 49.522 3.9015 49.522 3.04794 49.522C2.19253 49.522 1.33712 49.522 0.483564 49.522C0.203345 49.522 -0.0123547 49.2998 0.000550109 49.0295C0.0042372 48.9629 0.00792946 48.8925 0.0116166 48.824C0.0226778 48.5537 0.260491 48.3131 0.537022 48.2964ZM0.64026 46.0397C1.47354 45.8897 2.30498 45.7731 3.13458 45.7101C3.96233 45.6472 4.79377 45.6268 5.62521 45.6213C5.89621 45.6194 6.11928 45.8804 6.11928 46.1933C6.11928 46.2729 6.11928 46.3525 6.11928 46.4321C6.11928 46.745 5.89436 46.9949 5.61783 46.9968C4.77902 46.9986 3.93836 47.0116 3.10139 47.0542C2.26258 47.0967 1.42192 47.1708 0.583111 47.2671C0.306579 47.2985 0.094574 47.1116 0.107479 46.8413C0.111166 46.7728 0.114853 46.7043 0.11854 46.6339C0.133288 46.3618 0.367416 46.0878 0.64026 46.0397ZM0.743504 43.7792C1.56019 43.533 2.37504 43.3423 3.19357 43.2349C4.00289 43.1294 4.81958 43.0979 5.63443 43.0905C5.90174 43.0868 6.11928 43.3516 6.11928 43.6644C6.11928 43.744 6.11928 43.8255 6.11928 43.9033C6.11928 44.2161 5.89806 44.4642 5.6289 44.466C4.80668 44.4716 3.98261 44.4975 3.16223 44.5827C2.33817 44.6678 1.51226 44.8178 0.688194 45.0085C0.41535 45.0714 0.207028 44.9178 0.219932 44.6475C0.223619 44.5808 0.227306 44.5105 0.230993 44.442C0.243898 44.1698 0.472503 43.8607 0.743504 43.7792ZM0.848582 41.5225C1.64868 41.1818 2.44878 40.9152 3.25257 40.7653C4.04345 40.6172 4.84723 40.5765 5.64364 40.5654C5.90543 40.5617 6.12112 40.8282 6.12112 41.1393C6.12112 41.2189 6.12112 41.3003 6.12112 41.3781C6.12112 41.6909 5.90359 41.9353 5.63996 41.939C4.83433 41.9483 4.02317 41.9853 3.22122 42.1112C2.41191 42.2371 1.60075 42.4629 0.793278 42.7517C0.522277 42.848 0.319487 42.7295 0.332392 42.4574C0.336079 42.3889 0.339765 42.3204 0.343452 42.25C0.354514 41.9779 0.579424 41.6373 0.848582 41.5225ZM0.95182 39.262C0.682662 39.4101 0.465126 39.786 0.452221 40.0581C0.448534 40.1266 0.444847 40.1969 0.44116 40.2636C0.428255 40.5357 0.625513 40.6209 0.89467 40.4913C1.68739 40.1081 2.48012 39.8082 3.27653 39.6379C4.0582 39.4712 4.85461 39.4212 5.64549 39.4083C5.90543 39.4046 6.11744 39.1621 6.11744 38.851C6.11744 38.7733 6.11744 38.6918 6.11744 38.6122C6.11744 38.2994 5.90543 38.0291 5.64917 38.0346C4.86751 38.0494 4.07848 38.105 3.30603 38.292C2.51884 38.4845 1.73533 38.827 0.95182 39.262ZM1.05506 37.0053C1.82197 36.4758 2.58705 36.0593 3.36686 35.8223C4.11903 35.5928 4.89516 35.5261 5.66023 35.5076C5.9128 35.502 6.11928 35.7742 6.11928 36.0871C6.11928 36.1667 6.11928 36.2481 6.11928 36.3259C6.11928 36.6387 5.91096 36.8757 5.65655 36.8813C4.88226 36.8961 4.09875 36.9609 3.33553 37.1682C2.55018 37.3811 1.77404 37.7569 0.997909 38.2346C0.730595 38.3993 0.538869 38.3456 0.551774 38.0735C0.555461 38.005 0.559148 37.9365 0.562835 37.868C0.577583 37.594 0.787744 37.1886 1.05506 37.0053ZM1.16014 34.7467C0.896514 34.9652 0.690037 35.4039 0.675288 35.6742C0.671601 35.7446 0.667914 35.8131 0.664227 35.8816C0.651323 36.1519 0.837521 36.1741 1.10299 35.9741C1.86253 35.4021 2.62023 34.9504 3.39452 34.693C4.13562 34.445 4.90807 34.3709 5.66577 34.3524C5.91464 34.3468 6.11928 34.1117 6.11928 33.7988C6.11928 33.7211 6.11928 33.6415 6.11928 33.56C6.11928 33.2472 5.91649 32.9695 5.6713 32.9769C4.92097 32.9991 4.1559 33.0824 3.42586 33.3508C2.6571 33.6322 1.91046 34.1228 1.16014 34.7467ZM1.26154 32.4881C1.99711 31.7735 2.72531 31.2052 3.48301 30.8756C4.19277 30.5683 4.94494 30.4702 5.67867 30.4461C5.92018 30.4387 6.11744 30.7201 6.11744 31.033C6.11744 31.1126 6.11744 31.1922 6.11744 31.2718C6.11744 31.5847 5.91649 31.8161 5.67314 31.8235C4.93019 31.8457 4.17065 31.9364 3.44983 32.2215C2.68476 32.5252 1.94549 33.0528 1.20254 33.7155C0.938918 33.9507 0.758251 33.9599 0.771156 33.6896C0.774843 33.6211 0.77853 33.5526 0.782217 33.4841C0.798809 33.212 1.0016 32.7418 1.26154 32.4881ZM44.8503 48.0779C43.7626 48.0409 42.6749 48.0057 41.5872 47.9835C40.4995 47.9613 39.4119 47.952 38.3242 47.9465C37.9684 47.9446 37.6771 48.239 37.6771 48.5963C37.6771 48.6907 37.6771 48.7814 37.6771 48.8703C37.6771 49.2294 37.9684 49.5201 38.3242 49.5201C39.4119 49.5201 40.5014 49.5201 41.5872 49.5201C42.6749 49.5201 43.7626 49.5201 44.8503 49.5201C45.2061 49.5201 45.4974 49.2591 45.4974 48.9369C45.4974 48.8573 45.4974 48.7722 45.4974 48.6889C45.4974 48.3686 45.2061 48.0909 44.8503 48.0779ZM44.8503 45.4195C43.7626 45.3084 42.6749 45.2158 41.5872 45.1547C40.5014 45.0936 39.4119 45.0659 38.3242 45.0474C37.9684 45.0418 37.6771 45.3325 37.6771 45.6953C37.6771 45.786 37.6771 45.8767 37.6771 45.9675C37.6771 46.3303 37.9684 46.6247 38.3242 46.6284C39.4119 46.6413 40.5014 46.6561 41.5872 46.695C42.6749 46.7357 43.7626 46.7931 44.8503 46.8653C45.2061 46.8894 45.4974 46.6506 45.4974 46.3248C45.4974 46.2451 45.4974 46.16 45.4974 46.0804C45.4974 45.7546 45.2061 45.4565 44.8503 45.4195ZM44.8503 42.7573C43.7645 42.574 42.6749 42.4241 41.5872 42.3241C40.5014 42.226 39.4119 42.1741 38.3242 42.1464C37.9684 42.1371 37.6771 42.4278 37.6771 42.7906C37.6771 42.8813 37.6771 42.972 37.6771 43.0628C37.6771 43.4219 37.9684 43.7181 38.3242 43.7274C39.4119 43.7533 40.5014 43.7866 41.5872 43.8644C42.6749 43.944 43.7645 44.0625 44.8503 44.2069C45.2061 44.2531 45.4974 44.0365 45.4974 43.7144C45.4974 43.633 45.4974 43.5497 45.4974 43.47C45.4974 43.1442 45.2061 42.8184 44.8503 42.7573ZM44.8503 40.097C43.7645 39.8415 42.6768 39.6304 41.5872 39.4935C40.5032 39.3565 39.4119 39.288 38.3242 39.2454C37.9684 39.2306 37.6771 39.5268 37.6771 39.8859C37.6771 39.9803 37.6771 40.0711 37.6771 40.1599C37.6771 40.5191 37.9684 40.8153 38.3242 40.8264C39.4119 40.8616 40.5032 40.9171 41.5872 41.0337C42.6768 41.1504 43.7645 41.3262 44.8503 41.5428C45.208 41.615 45.4974 41.4225 45.4974 41.1004C45.4974 41.0189 45.4974 40.9356 45.4974 40.8523C45.4974 40.532 45.208 40.1803 44.8503 40.097ZM44.8503 37.4385C43.7663 37.1108 42.6786 36.8387 41.5872 36.661C40.5051 36.4832 39.4119 36.4055 38.3242 36.3499C37.9684 36.3314 37.6771 36.6258 37.6771 36.9831C37.6771 37.0775 37.6771 37.1682 37.6771 37.2571C37.6771 37.6162 37.9702 37.9124 38.3242 37.9272C39.4119 37.9754 40.5051 38.0476 41.5872 38.2012C42.6786 38.3586 43.7663 38.5974 44.8503 38.8844C45.208 38.9788 45.4974 38.8103 45.4974 38.4882C45.4974 38.4086 45.4974 38.3234 45.4974 38.2401C45.4974 37.9198 45.208 37.5459 44.8503 37.4385ZM44.8503 34.7763C45.2098 34.9078 45.4974 35.3095 45.4974 35.6316C45.4974 35.7131 45.4974 35.7964 45.4974 35.876C45.4974 36.2018 45.2098 36.3425 44.8503 36.224C43.7663 35.8667 42.6805 35.565 41.5872 35.3687C40.5051 35.1762 39.4119 35.0818 38.3242 35.0244C37.9684 35.0059 37.6771 34.7134 37.6771 34.3505C37.6771 34.2598 37.6771 34.1691 37.6771 34.0784C37.6771 33.7192 37.9702 33.4267 38.3242 33.4489C39.4119 33.5156 40.5069 33.6156 41.5872 33.8303C42.6805 34.0488 43.7663 34.3802 44.8503 34.7763ZM44.8503 32.1179C43.7682 31.6513 42.6823 31.2589 41.5872 31.0015C40.5069 30.7479 39.4119 30.6276 38.3242 30.5498C37.9684 30.5239 37.6771 30.8145 37.6771 31.1774C37.6771 31.2681 37.6771 31.3588 37.6771 31.4495C37.6771 31.8087 37.9702 32.1031 38.3242 32.1271C39.4119 32.1975 40.5069 32.3122 41.5872 32.5437C42.6823 32.7788 43.7682 33.1398 44.8503 33.5693C45.2098 33.7118 45.4974 33.5896 45.4974 33.2675C45.4974 33.1861 45.4974 33.1028 45.4974 33.0232C45.4974 32.6955 45.2098 32.2734 44.8503 32.1179ZM44.8503 29.4557C45.2135 29.6371 45.4974 30.0833 45.4974 30.4036C45.4974 30.4869 45.4974 30.5702 45.4974 30.6516C45.4974 30.9738 45.2135 31.07 44.8503 30.9034C43.77 30.4036 42.6841 29.9833 41.5872 29.7093C40.5088 29.4409 39.4119 29.3039 38.3242 29.2224C37.9684 29.1965 37.6771 28.9003 37.6771 28.5411C37.6771 28.4504 37.6771 28.3597 37.6771 28.2672C37.6771 27.908 37.9702 27.6155 38.3242 27.6433C39.4137 27.7321 40.5106 27.8765 41.5872 28.1672C42.6841 28.4652 43.77 28.917 44.8503 29.4557ZM44.8503 26.7954C43.7718 26.1863 42.6897 25.6735 41.5872 25.3365C40.5125 25.0089 39.4119 24.8478 38.3242 24.746C37.9684 24.7127 37.6771 25.007 37.6771 25.3662C37.6771 25.4606 37.6771 25.5513 37.6771 25.6402C37.6771 25.9993 37.9702 26.2974 38.3242 26.327C39.4137 26.4196 40.5125 26.5677 41.5872 26.8768C42.6878 27.1915 43.7718 27.6729 44.8503 28.2449C45.2135 28.4375 45.4974 28.3616 45.4974 28.0413C45.4974 27.958 45.4974 27.8765 45.4974 27.7932C45.4974 27.4729 45.2153 27.0009 44.8503 26.7954ZM44.8503 24.1369C45.2172 24.3683 45.4974 24.8608 45.4974 25.1829C45.4974 25.2643 45.4974 25.3477 45.4974 25.4273C45.4974 25.7531 45.2153 25.8031 44.8503 25.5846C43.7718 24.9404 42.6897 24.4016 41.5872 24.0462C40.5143 23.7 39.4119 23.5315 38.3242 23.426C37.9684 23.3908 37.6771 23.0983 37.6771 22.7355C37.6771 22.6448 37.6771 22.554 37.6771 22.4633C37.6771 22.1042 37.9702 21.8098 38.3242 21.8468C39.4137 21.9579 40.5161 22.143 41.5872 22.5078C42.6915 22.8836 43.7737 23.4575 44.8503 24.1369ZM44.8503 21.4784C43.7737 20.7287 42.6952 20.0955 41.5872 19.679C40.518 19.2772 39.4137 19.0717 38.3242 18.9477C37.9702 18.907 37.6771 19.1995 37.6771 19.5605C37.6771 19.6512 37.6771 19.7419 37.6771 19.8326C37.6771 20.1955 37.9702 20.488 38.3242 20.5269C39.4137 20.6453 40.518 20.8342 41.5872 21.2174C42.6934 21.6136 43.7737 22.2115 44.8503 22.9243C45.2172 23.1668 45.4974 23.1428 45.4974 22.8169C45.4974 22.7336 45.4974 22.6522 45.4974 22.5726C45.4974 22.2467 45.2172 21.7339 44.8503 21.4784ZM8.15455 45.4195C9.2404 45.3084 10.3299 45.2158 11.4176 45.1547C12.5035 45.0936 13.593 45.0659 14.6807 45.0474C15.0365 45.0418 15.3278 45.3325 15.3278 45.6953C15.3278 45.786 15.3278 45.8767 15.3278 45.9675C15.3278 46.3303 15.0365 46.6247 14.6807 46.6284C13.593 46.6413 12.5035 46.6561 11.4176 46.695C10.3299 46.7357 9.2404 46.7931 8.15455 46.8653C7.79875 46.8894 7.50746 46.6506 7.50746 46.3248C7.50746 46.2451 7.50746 46.16 7.50746 46.0804C7.50931 45.7546 7.79875 45.4565 8.15455 45.4195ZM8.15455 42.7573C9.2404 42.574 10.3299 42.4241 11.4176 42.3241C12.5035 42.226 13.593 42.1741 14.6807 42.1464C15.0365 42.1371 15.3278 42.4278 15.3278 42.7906C15.3278 42.8813 15.3278 42.972 15.3278 43.0628C15.3278 43.4219 15.0365 43.7181 14.6807 43.7274C13.593 43.7533 12.5035 43.7866 11.4176 43.8644C10.3299 43.944 9.2404 44.0625 8.15455 44.2069C7.79875 44.2531 7.50746 44.0365 7.50746 43.7144C7.50746 43.633 7.50746 43.5497 7.50746 43.47C7.50931 43.1442 7.79875 42.8184 8.15455 42.7573ZM8.15455 40.097C9.2404 39.8415 10.3281 39.6304 11.4176 39.4935C12.5016 39.3565 13.593 39.288 14.6807 39.2454C15.0365 39.2306 15.3278 39.5268 15.3278 39.8859C15.3278 39.9803 15.3278 40.0711 15.3278 40.1599C15.3278 40.5191 15.0365 40.8153 14.6807 40.8264C13.593 40.8616 12.5016 40.9171 11.4176 41.0337C10.3281 41.1504 9.2404 41.3262 8.15455 41.5428C7.7969 41.615 7.50746 41.4225 7.50746 41.1004C7.50746 41.0189 7.50746 40.9356 7.50746 40.8523C7.50931 40.532 7.79875 40.1803 8.15455 40.097ZM8.15455 37.4385C9.23855 37.1108 10.3262 36.8387 11.4176 36.661C12.4998 36.4832 13.593 36.4055 14.6807 36.3499C15.0365 36.3314 15.3278 36.6258 15.3278 36.9831C15.3278 37.0775 15.3278 37.1682 15.3278 37.2571C15.3278 37.6162 15.0365 37.9124 14.6807 37.9272C13.593 37.9754 12.4998 38.0476 11.4176 38.2012C10.3262 38.3586 9.23855 38.5974 8.15455 38.8844C7.7969 38.9788 7.50746 38.8103 7.50746 38.4882C7.50746 38.4086 7.50746 38.3234 7.50746 38.2401C7.50931 37.9198 7.7969 37.5459 8.15455 37.4385ZM8.15455 34.7763C7.79506 34.9078 7.50746 35.3095 7.50746 35.6316C7.50746 35.7131 7.50746 35.7964 7.50746 35.876C7.50746 36.2018 7.79506 36.3425 8.15455 36.224C9.23855 35.8667 10.3244 35.565 11.4176 35.3687C12.4998 35.1762 13.593 35.0818 14.6807 35.0244C15.0365 35.0059 15.3278 34.7134 15.3278 34.3505C15.3278 34.2598 15.3278 34.1691 15.3278 34.0784C15.3278 33.7192 15.0347 33.4267 14.6807 33.4489C13.593 33.5156 12.4979 33.6156 11.4176 33.8303C10.3244 34.0488 9.23855 34.3802 8.15455 34.7763ZM8.15455 32.1179C9.23671 31.6513 10.3226 31.2589 11.4176 31.0015C12.4979 30.7479 13.593 30.6276 14.6807 30.5498C15.0365 30.5239 15.3278 30.8145 15.3278 31.1774C15.3278 31.2681 15.3278 31.3588 15.3278 31.4495C15.3278 31.8087 15.0347 32.1031 14.6807 32.1271C13.593 32.1975 12.4979 32.3122 11.4176 32.5437C10.3226 32.7788 9.23671 33.1398 8.15455 33.5693C7.79506 33.7118 7.50746 33.5896 7.50746 33.2675C7.50746 33.1861 7.50746 33.1028 7.50746 33.0232C7.50931 32.6955 7.79506 32.2734 8.15455 32.1179ZM8.15455 29.4557C7.79137 29.6371 7.50746 30.0833 7.50746 30.4036C7.50746 30.4869 7.50746 30.5702 7.50746 30.6516C7.50746 30.9738 7.79137 31.07 8.15455 30.9034C9.23487 30.4036 10.3207 29.9833 11.4176 29.7093C12.4961 29.4409 13.593 29.3039 14.6807 29.2224C15.0365 29.1965 15.3278 28.9003 15.3278 28.5411C15.3278 28.4504 15.3278 28.3597 15.3278 28.2672C15.3278 27.908 15.0347 27.6155 14.6807 27.6433C13.5912 27.7321 12.4943 27.8765 11.4176 28.1672C10.3207 28.4652 9.23671 28.917 8.15455 29.4557ZM8.15455 26.7954C9.23302 26.1863 10.3152 25.6735 11.4176 25.3365C12.4924 25.0089 13.593 24.8478 14.6807 24.746C15.0347 24.7127 15.3278 25.007 15.3278 25.3662C15.3278 25.4606 15.3278 25.5513 15.3278 25.6402C15.3278 25.9993 15.0347 26.2974 14.6807 26.327C13.5912 26.4196 12.4924 26.5677 11.4176 26.8768C10.317 27.1915 9.23302 27.6729 8.15455 28.2449C7.79137 28.4375 7.50746 28.3616 7.50746 28.0413C7.50746 27.958 7.50746 27.8765 7.50746 27.7932C7.50931 27.4729 7.79137 27.0009 8.15455 26.7954ZM8.15455 24.1369C7.78769 24.3683 7.50746 24.8608 7.50746 25.1829C7.50746 25.2643 7.50746 25.3477 7.50746 25.4273C7.50746 25.7531 7.78953 25.8031 8.15455 25.5846C9.23302 24.9404 10.3152 24.4016 11.4176 24.0462C12.4906 23.7 13.593 23.5315 14.6807 23.426C15.0347 23.3908 15.3278 23.0983 15.3278 22.7355C15.3278 22.6448 15.3278 22.554 15.3278 22.4633C15.3278 22.1042 15.0347 21.8098 14.6807 21.8468C13.5912 21.9579 12.4887 22.143 11.4176 22.5078C10.3133 22.8836 9.23302 23.4575 8.15455 24.1369ZM8.15455 21.4784C9.23118 20.7287 10.3097 20.0955 11.4176 19.679C12.4869 19.2772 13.5912 19.0717 14.6807 18.9477C15.0347 18.907 15.3278 19.1995 15.3278 19.5605C15.3278 19.6512 15.3278 19.7419 15.3278 19.8326C15.3278 20.1955 15.0347 20.488 14.6807 20.5269C13.5912 20.6453 12.4869 20.8342 11.4176 21.2174C10.3115 21.6136 9.23118 22.2115 8.15455 22.9243C7.78769 23.1668 7.50746 23.1428 7.50746 22.8169C7.50746 22.7336 7.50746 22.6522 7.50746 22.5726C7.50931 22.2467 7.78769 21.7339 8.15455 21.4784ZM8.15455 18.8144C7.78584 19.0958 7.50746 19.6364 7.50746 19.9567C7.50746 20.04 7.50746 20.1214 7.50746 20.2047C7.50746 20.5269 7.78584 20.5343 8.15455 20.2658C9.22934 19.4809 10.3078 18.8255 11.4176 18.3886C12.485 17.9684 13.5912 17.7592 14.6807 17.6277C15.0347 17.5851 15.3278 17.2889 15.3278 16.9298C15.3278 16.8391 15.3278 16.7484 15.3278 16.6558C15.3278 16.2966 15.0347 16.0004 14.6807 16.0449C13.5912 16.1819 12.4814 16.4022 11.4176 16.8428C10.306 17.3019 9.22934 17.9924 8.15455 18.8144ZM44.8503 18.8144C45.219 19.0958 45.4974 19.6364 45.4974 19.9567C45.4974 20.04 45.4974 20.1214 45.4974 20.2047C45.4974 20.5269 45.219 20.5343 44.8503 20.2658C43.7755 19.4809 42.6971 18.8255 41.5872 18.3886C40.5198 17.9684 39.4137 17.7592 38.3242 17.6277C37.9702 17.5851 37.6771 17.2889 37.6771 16.9298C37.6771 16.8391 37.6771 16.7484 37.6771 16.6558C37.6771 16.2966 37.9702 16.0004 38.3242 16.0449C39.4137 16.1819 40.5235 16.4022 41.5872 16.8428C42.6989 17.3019 43.7755 17.9924 44.8503 18.8144Z" fill="white"/>
<path fill-rule="evenodd" clip-rule="evenodd" d="M279.923 22.0428V22.0048H291.64V25.0524H287.376V42.0619H284.153V25.0524H279.927V22.4095L278.408 28.1286C278.172 28.9952 277.835 29.8571 277.343 30.6095C277.083 31.0095 276.771 31.3381 276.406 31.5952C276.889 31.8619 277.296 32.2381 277.589 32.7524C278.039 33.5381 278.361 34.4 278.602 35.2762L280.372 42.0619H277.116L275.64 36.1143C275.521 35.6286 275.351 35.119 275.091 34.6952C274.901 34.3905 274.669 34.0952 274.376 33.8857C274.116 33.7 273.822 33.5714 273.51 33.5095C273.15 33.4333 272.781 33.4 272.417 33.4H270.557V42.0619H267.334V22.0428H270.557V30.5095H272.029C272.355 30.5095 272.682 30.4762 272.999 30.419C273.321 30.3619 273.624 30.2428 273.907 30.0809C274.22 29.9 274.475 29.6428 274.688 29.3571C274.968 28.9809 275.143 28.4809 275.256 28.0238L276.856 22.0476H279.923V22.0428ZM169.649 23.9048C169.966 23.4905 170.344 23.119 170.794 22.8048C171.878 22.0381 173.184 21.7714 174.495 21.7714C175.962 21.7714 177.51 22.0524 178.669 23.0238C179.918 24.0667 180.202 25.8524 180.202 27.3952V42.0666H176.937V41.0381C176.539 41.4143 176.08 41.7238 175.55 41.9095C174.774 42.1809 173.965 42.3047 173.141 42.3047C172.356 42.3047 171.551 42.1714 170.856 41.7809C170.255 41.4428 169.748 40.9905 169.355 40.419C168.963 39.8476 168.693 39.2095 168.537 38.5381C168.371 37.8381 168.291 37.1238 168.291 36.4095C168.291 35.6428 168.376 34.8809 168.532 34.1333C168.698 33.3619 169 32.6476 169.455 32.0048C169.919 31.3476 170.524 30.8286 171.225 30.4333C172.072 29.9571 173.075 29.8143 174.031 29.8143H176.975V27.419C176.975 26.7476 176.856 26.0286 176.44 25.4809C176.009 24.9095 175.03 24.8286 174.377 24.8286C173.828 24.8286 173.298 25.0095 172.815 25.2666C172.28 25.5524 171.987 26.019 171.849 26.6047L171.741 27.0524L168.645 26.0857L168.769 25.6762C168.83 25.4667 168.906 25.2619 168.986 25.0619H165.38V42.0714H162.157V25.0619H157.931V22.0143H169.649V23.9048ZM82.6309 13.8095C84.363 13.8095 86.0573 14.2333 87.3161 15.4952C88.575 16.7619 88.9915 18.4667 88.9915 20.2095V20.5667L85.7165 21.2047L85.726 20.6714C85.7449 19.6905 85.6077 18.5524 84.9404 17.7857C84.3346 17.0857 83.4875 16.8619 82.5883 16.8619C82.0866 16.8619 81.5566 16.9428 81.1165 17.1952C80.7237 17.419 80.4066 17.719 80.1557 18.1C79.8907 18.5048 79.7062 18.9524 79.5973 19.4238C79.4743 19.9428 79.4127 20.4714 79.4127 21.0095V35.5381C79.4127 36.0238 79.4743 36.5047 79.5926 36.9809C79.7014 37.4143 79.8813 37.819 80.1463 38.1809C80.3971 38.5286 80.7189 38.7952 81.1023 38.9952C81.5519 39.2286 82.0914 39.3 82.593 39.3C83.4544 39.3 84.2352 39.0619 84.8457 38.4333C85.5556 37.7 85.7165 36.4428 85.7307 35.4714L85.7402 34.9667L89.0435 35.5476L89.0341 35.919C88.9867 37.6952 88.5466 39.4857 87.212 40.7333C85.9484 41.9143 84.3346 42.3524 82.6356 42.3524C80.8656 42.3524 79.1051 41.9286 77.8463 40.6C76.5827 39.2619 76.1946 37.4333 76.1946 35.6381V21.319C76.1946 20.3667 76.294 19.4143 76.5164 18.4857C76.7246 17.6238 77.0701 16.8048 77.5954 16.0905C78.1207 15.3714 78.8022 14.8286 79.5926 14.4381C80.5249 13.9571 81.5992 13.8095 82.6309 13.8095ZM96.786 25.0524V42.0619H93.5631V25.0524H89.3369V22.0048H101.055V25.0524H96.786ZM104.855 41.1047V49.5952H101.627V22.0428H104.855V23.0619C105.12 22.7952 105.414 22.5571 105.731 22.3524C106.464 21.8809 107.453 21.7714 108.31 21.7714C108.802 21.7714 109.294 21.8476 109.772 21.9571C110.345 22.0905 110.865 22.3428 111.334 22.6952C111.873 23.0952 112.29 23.6524 112.621 24.2333C113.057 25.0048 113.26 25.9286 113.345 26.8047C113.43 27.6286 113.464 28.4571 113.464 29.2857C113.464 30.1524 113.464 31.0143 113.464 31.8809C113.464 33.2095 113.44 34.5333 113.383 35.8619C113.336 36.9428 113.189 38.0666 112.82 39.0905C112.498 39.9905 111.982 40.7714 111.249 41.3857C110.378 42.1143 109.171 42.3047 108.073 42.3047C107.207 42.3047 106.341 42.1381 105.598 41.6714C105.333 41.5 105.082 41.3143 104.855 41.1047ZM121.542 21.7667C122.777 21.7667 124.131 21.9619 125.158 22.7048C125.991 23.3048 126.62 24.0857 126.966 25.0571C127.264 25.9 127.382 26.8619 127.434 27.7524C127.5 28.8 127.534 29.8524 127.534 30.9V32.8095C127.534 33.5095 127.519 34.2143 127.496 34.9143C127.467 35.6619 127.415 36.4047 127.34 37.1476C127.25 38.0333 127.027 38.9381 126.563 39.7095C126.18 40.3428 125.688 40.9 125.068 41.3095C124.495 41.6905 123.866 41.9571 123.194 42.1095C122.564 42.2571 121.916 42.3333 121.268 42.3333C119.947 42.3333 118.466 42.1047 117.444 41.1905C116.611 40.4524 116.033 39.5428 115.754 38.4571C115.65 38.0524 115.593 37.619 115.551 37.2047C115.494 36.6762 115.456 36.1476 115.432 35.619C115.404 35.0476 115.395 34.4762 115.395 33.9C115.395 33.3524 115.395 32.8095 115.395 32.2619C115.395 31.5762 115.399 30.8905 115.413 30.2048C115.428 29.5381 115.456 28.8714 115.513 28.2048C115.56 27.6333 115.617 27.0571 115.688 26.4905C115.745 26.0428 115.835 25.5714 116.005 25.1667C116.379 24.1333 117.032 23.3095 117.936 22.6952C118.991 21.9857 120.293 21.7667 121.542 21.7667ZM134.188 16.6762C134.637 17.1619 135.172 17.3952 135.83 17.3952C136.502 17.3952 137.084 17.1952 137.557 16.7048C138.007 16.2429 138.281 15.6952 138.348 15.0476L138.39 14.6619H141.192L141.144 15.1381C141.083 15.7048 140.936 16.2619 140.728 16.7905C140.496 17.3857 140.16 17.9238 139.739 18.4047C139.285 18.9238 138.726 19.3238 138.111 19.619C137.401 19.9619 136.615 20.0905 135.83 20.0905C135.021 20.0905 134.197 19.9667 133.459 19.619C132.834 19.3238 132.271 18.9238 131.821 18.3952C131.41 17.9143 131.088 17.3762 130.87 16.7809C130.676 16.2429 130.543 15.6857 130.515 15.1143L130.491 14.6571H133.293L133.35 15.0238C133.445 15.6667 133.757 16.2095 134.188 16.6762ZM138.854 28.6905L132.579 42.0666H129.588V22.0428H132.81V35.3857C133.705 33.4809 134.59 31.5667 135.461 29.6524C136.582 27.1857 137.728 24.7333 138.896 22.2905L139.015 22.0476H142.082V42.0714H138.859V28.6905H138.854ZM151.225 13.8095C152.957 13.8095 154.651 14.2333 155.91 15.4952C157.169 16.7619 157.585 18.4667 157.585 20.2095V20.5667L154.31 21.2047L154.32 20.6714C154.339 19.6905 154.202 18.5524 153.534 17.7857C152.929 17.0857 152.081 16.8619 151.182 16.8619C150.681 16.8619 150.151 16.9428 149.71 17.1952C149.318 17.419 149.001 17.719 148.75 18.1C148.485 18.5048 148.3 18.9524 148.191 19.4238C148.068 19.9428 148.007 20.4714 148.007 21.0095V35.5381C148.007 36.0238 148.068 36.5047 148.187 36.9809C148.295 37.4143 148.475 37.819 148.74 38.1809C148.991 38.5286 149.313 38.7952 149.696 38.9952C150.146 39.2286 150.685 39.3 151.187 39.3C152.048 39.3 152.829 39.0619 153.44 38.4333C154.154 37.7 154.31 36.4428 154.325 35.4714L154.334 34.9667L157.637 35.5476L157.628 35.919C157.581 37.6952 157.141 39.4857 155.801 40.7333C154.538 41.9143 152.924 42.3524 151.225 42.3524C149.455 42.3524 147.694 41.9286 146.435 40.6C145.172 39.2619 144.784 37.4333 144.784 35.6381V21.319C144.784 20.3667 144.883 19.4143 145.106 18.4857C145.314 17.6238 145.659 16.8048 146.185 16.0905C146.71 15.3714 147.391 14.8286 148.182 14.4381C149.119 13.9571 150.193 13.8095 151.225 13.8095ZM191.395 25.0524H187.06V33.419C187.06 34.5333 187.013 35.6619 186.861 36.7667C186.743 37.6524 186.53 38.5381 186.17 39.3524C185.848 40.0762 185.418 40.7333 184.859 41.2905C184.282 41.8714 183.596 42.3238 182.862 42.6809L182.512 42.8524L181.007 40.3667L181.348 40.1381C181.816 39.8238 182.266 39.4714 182.654 39.0667C183.004 38.7047 183.264 38.2809 183.458 37.8143C183.695 37.2428 183.823 36.6095 183.894 35.9952C184.003 35.0762 184.026 34.1238 184.026 33.2V22H194.698V42.0619H191.395V25.0524ZM200.127 29.7286H201.996C203.07 29.7286 204.249 29.8286 205.261 30.2048C206.033 30.4905 206.771 30.9143 207.334 31.5286C207.845 32.0857 208.21 32.7333 208.409 33.4619C208.607 34.1905 208.697 34.9476 208.697 35.7047C208.697 36.5381 208.617 37.3762 208.413 38.1905C208.224 38.9571 207.883 39.6571 207.372 40.2571C206.828 40.9 206.113 41.3286 205.328 41.6143C204.343 41.9714 203.217 42.0666 202.176 42.0666H196.899V22.0048H200.122V29.7286H200.127ZM220.245 17.1714H214.007V42.0619H210.784V14.0429H223.472V42.0619H220.249V17.1714H220.245ZM229.251 41.1047V49.5952H226.023V22.0428H229.251V23.0619C229.516 22.7952 229.809 22.5571 230.126 22.3524C230.86 21.8809 231.849 21.7714 232.706 21.7714C233.198 21.7714 233.69 21.8476 234.168 21.9571C234.741 22.0905 235.261 22.3428 235.73 22.6952C236.269 23.0952 236.686 23.6524 237.017 24.2333C237.452 25.0048 237.656 25.9286 237.741 26.8047C237.826 27.6286 237.859 28.4571 237.859 29.2857C237.859 30.1524 237.859 31.0143 237.859 31.8809C237.859 33.2095 237.836 34.5333 237.779 35.8619C237.732 36.9428 237.585 38.0666 237.216 39.0905C236.894 39.9905 236.378 40.7714 235.645 41.3857C234.774 42.1143 233.567 42.3047 232.469 42.3047C231.603 42.3047 230.737 42.1381 229.994 41.6714C229.729 41.5 229.478 41.3143 229.251 41.1047ZM245.938 21.7667C247.173 21.7667 248.527 21.9619 249.554 22.7048C250.387 23.3048 251.016 24.0857 251.361 25.0571C251.66 25.9 251.778 26.8619 251.83 27.7524C251.896 28.8 251.929 29.8524 251.929 30.9V32.8095C251.929 33.5095 251.915 34.2143 251.891 34.9143C251.863 35.6619 251.811 36.4047 251.735 37.1476C251.645 38.0333 251.423 38.9381 250.959 39.7095C250.576 40.3428 250.084 40.9 249.464 41.3095C248.891 41.6905 248.262 41.9571 247.59 42.1095C246.96 42.2571 246.312 42.3333 245.663 42.3333C244.338 42.3333 242.862 42.1047 241.84 41.1905C241.007 40.4524 240.429 39.5428 240.15 38.4571C240.046 38.0524 239.989 37.619 239.946 37.2047C239.89 36.6762 239.852 36.1476 239.828 35.619C239.8 35.0476 239.79 34.4762 239.79 33.9C239.79 33.3524 239.79 32.8095 239.79 32.2619C239.79 31.5762 239.795 30.8905 239.809 30.2048C239.823 29.5381 239.852 28.8714 239.909 28.2048C239.956 27.6333 240.013 27.0571 240.084 26.4905C240.141 26.0428 240.23 25.5714 240.401 25.1667C240.77 24.1333 241.428 23.3095 242.332 22.6952C243.387 21.9857 244.689 21.7667 245.938 21.7667ZM256.747 33.0524C256.752 33.1476 256.752 33.2428 256.761 33.3381C256.776 33.5952 256.78 33.8476 256.78 34.1047C256.78 34.7857 256.799 35.4667 256.837 36.1476C256.861 36.6047 256.913 37.1905 257.069 37.6381C257.448 38.8143 258.271 39.2905 259.478 39.2905C260.169 39.2905 260.879 39.1381 261.333 38.5762C261.802 37.9857 261.986 37.2428 262.029 36.5047L262.057 36.0095L265.341 36.6428L265.308 37.0286C265.185 38.5143 264.712 39.9333 263.59 40.9619C262.445 42.0143 260.902 42.3428 259.393 42.3428C258.645 42.3428 257.873 42.2571 257.168 42.0048C256.591 41.8 256.037 41.519 255.559 41.1333C255.129 40.7809 254.759 40.3666 254.48 39.8809C254.225 39.4333 254.031 38.9571 253.912 38.4571C253.813 38.0476 253.751 37.6285 253.709 37.2143C253.652 36.6857 253.624 36.1476 253.609 35.6143C253.595 35.0476 253.586 34.4809 253.572 33.919C253.557 33.3714 253.553 32.819 253.553 32.2714C253.553 31.5905 253.557 30.9143 253.572 30.2333C253.586 29.5714 253.614 28.9143 253.671 28.2571C253.718 27.6857 253.775 27.1095 253.846 26.5429C253.903 26.0857 253.997 25.6095 254.163 25.1762C254.551 24.1571 255.176 23.3143 256.07 22.6952C257.102 21.9762 258.432 21.7809 259.662 21.7809C261.068 21.7809 262.502 22.0809 263.586 23.0381C264.627 23.9571 265.114 25.2095 265.271 26.5809C265.299 26.8714 265.318 27.1667 265.332 27.4571C265.346 27.7476 265.351 28.0428 265.351 28.3333V33.0571H256.747V33.0524ZM107.624 24.9762C106.829 24.9762 106.123 25.2047 105.598 25.819C105.044 26.4667 104.855 27.2857 104.855 28.1238V35.8619C104.855 36.7095 105.035 37.5381 105.527 38.2381C106.005 38.919 106.748 39.1286 107.548 39.1286C108.859 39.1286 109.616 38.5048 109.943 37.2428C110.108 36.5428 110.156 35.7286 110.184 35.0095C110.227 33.9333 110.241 32.8524 110.241 31.7762C110.241 30.7333 110.231 29.6857 110.184 28.6428C110.156 28 110.094 27.2667 109.909 26.6381C109.777 26.1524 109.545 25.6381 109.119 25.3476C108.688 25.0571 108.125 24.9762 107.624 24.9762ZM121.485 24.819C120.965 24.819 120.473 24.9286 120.009 25.1619C119.526 25.4047 119.218 25.8571 119.015 26.3286C118.793 26.9 118.726 27.7238 118.693 28.3333C118.632 29.4666 118.617 30.6047 118.617 31.7381V32.9857C118.617 33.9238 118.627 34.8667 118.655 35.8095C118.674 36.3619 118.717 37.0667 118.911 37.6143C119.28 38.8714 120.241 39.2857 121.485 39.2857C122.101 39.2857 122.654 39.119 123.132 38.7238C123.62 38.3143 123.904 37.7905 124.05 37.1905C124.159 36.5381 124.202 35.8428 124.24 35.1809C124.292 34.2428 124.315 33.3048 124.315 32.3619C124.315 31.7952 124.311 31.2286 124.296 30.6619C124.282 30.0905 124.273 29.519 124.259 28.9476C124.249 28.4667 124.221 27.9857 124.164 27.5095C124.131 27.2143 124.084 26.8667 123.984 26.5714C123.819 26.0333 123.535 25.5857 123.071 25.2666C122.593 24.9476 122.053 24.819 121.485 24.819ZM176.97 32.7762H174.59C173.761 32.7762 173.014 33.0048 172.379 33.5524C171.646 34.1857 171.509 35.3762 171.509 36.2857C171.509 37.0333 171.646 37.8143 172.096 38.4286C172.54 39.0333 173.34 39.1714 174.045 39.1714C174.84 39.1714 175.612 38.9905 176.199 38.4286C176.795 37.8619 176.97 37.0428 176.97 36.2476V32.7762ZM200.127 38.9333H201.958C202.554 38.9333 203.231 38.8762 203.79 38.6524C204.178 38.4952 204.556 38.2762 204.831 37.9524C205.072 37.6667 205.238 37.3476 205.328 36.9809C205.422 36.5857 205.47 36.1809 205.47 35.7762C205.47 35.3666 205.422 34.9524 205.295 34.5619C205.186 34.2238 204.996 33.9333 204.741 33.6905C204.447 33.4047 204.059 33.2143 203.676 33.0857C203.127 32.9 202.493 32.8524 201.92 32.8524H200.127V38.9333ZM232.019 24.9762C231.224 24.9762 230.519 25.2047 229.994 25.819C229.44 26.4667 229.251 27.2857 229.251 28.1238V35.8619C229.251 36.7095 229.431 37.5381 229.923 38.2381C230.401 38.919 231.144 39.1286 231.944 39.1286C233.255 39.1286 234.012 38.5048 234.338 37.2428C234.504 36.5428 234.551 35.7286 234.58 35.0095C234.622 33.9333 234.637 32.8524 234.637 31.7762C234.637 30.7333 234.627 29.6857 234.58 28.6428C234.551 28 234.49 27.2667 234.305 26.6381C234.173 26.1524 233.941 25.6381 233.515 25.3476C233.084 25.0571 232.521 24.9762 232.019 24.9762ZM245.881 24.819C245.361 24.819 244.868 24.9286 244.405 25.1619C243.922 25.4047 243.614 25.8571 243.411 26.3286C243.188 26.9 243.122 27.7238 243.089 28.3333C243.027 29.4666 243.013 30.6047 243.013 31.7381V32.9857C243.013 33.9238 243.023 34.8667 243.051 35.8095C243.07 36.3619 243.113 37.0667 243.307 37.6143C243.676 38.8714 244.636 39.2857 245.881 39.2857C246.496 39.2857 247.05 39.119 247.528 38.7238C248.016 38.3143 248.299 37.7905 248.446 37.1905C248.555 36.5381 248.598 35.8428 248.635 35.1809C248.688 34.2428 248.711 33.3048 248.711 32.3619C248.711 31.7952 248.706 31.2286 248.692 30.6619C248.678 30.0905 248.669 29.519 248.654 28.9476C248.645 28.4667 248.617 27.9857 248.56 27.5095C248.527 27.2143 248.479 26.8667 248.38 26.5714C248.214 26.0333 247.93 25.5857 247.467 25.2666C246.989 24.9476 246.449 24.819 245.881 24.819ZM256.79 30.2333H262.085V28.6238C262.085 28.1143 262.057 27.6 261.991 27.0905C261.939 26.6667 261.82 26.2619 261.612 25.8905C261.423 25.5619 261.172 25.3 260.855 25.1047C260.462 24.8714 259.956 24.8143 259.511 24.8143C259.019 24.8143 258.55 24.9238 258.115 25.1524C257.642 25.4047 257.339 25.8762 257.135 26.3476C256.96 26.819 256.903 27.4428 256.875 27.9524C256.837 28.7143 256.813 29.4762 256.79 30.2333Z" fill="white"/>
</svg>
