<svg width="62" height="62" viewBox="0 0 62 62" fill="none" xmlns="http://www.w3.org/2000/svg">
<g clip-path="url(#clip0_2164_3822)">
<path d="M31 0C28.8934 0 27.1797 1.71372 27.1797 3.82027C27.1797 5.92681 28.8934 7.64065 31 7.64065C33.1065 7.64065 34.8202 5.92693 34.8202 3.82039C34.8202 1.71384 33.1065 0 31 0ZM31 5.82425C29.895 5.82425 28.9961 4.92537 28.9961 3.82039C28.9961 2.71541 29.895 1.81641 31 1.81641C32.1049 1.81641 33.0038 2.71529 33.0038 3.82027C33.0038 4.92525 32.1049 5.82425 31 5.82425Z" fill="#006DB1"/>
<path d="M3.82039 27.1797C1.71384 27.1797 0 28.8934 0 31C0 33.1065 1.71372 34.8202 3.82027 34.8202C5.92681 34.8202 7.64065 33.1065 7.64065 31C7.64065 28.8934 5.92693 27.1797 3.82039 27.1797ZM3.82039 33.0038C2.71541 33.0038 1.81641 32.105 1.81641 31C1.81641 29.895 2.71529 28.9961 3.82027 28.9961C4.92525 28.9961 5.82425 29.895 5.82425 31C5.82425 32.105 4.92537 33.0038 3.82039 33.0038Z" fill="#006DB1"/>
<path d="M58.1796 27.1797C56.0731 27.1797 54.3594 28.8934 54.3594 31C54.3594 33.1065 56.0731 34.8202 58.1796 34.8202C60.2862 34.8202 61.9999 33.1065 61.9999 31C61.9999 28.8934 60.2862 27.1797 58.1796 27.1797ZM58.1796 33.0038C57.0747 33.0038 56.1758 32.105 56.1758 31C56.1758 29.895 57.0747 28.9961 58.1796 28.9961C59.2846 28.9961 60.1835 29.895 60.1835 31C60.1835 32.105 59.2846 33.0038 58.1796 33.0038Z" fill="#006DB1"/>
<path d="M31 54.3593C28.8934 54.3593 27.1797 56.073 27.1797 58.1796C27.1797 60.2861 28.8934 62 31 62C33.1065 62 34.8202 60.2862 34.8202 58.1797C34.8202 56.0732 33.1065 54.3593 31 54.3593ZM31 60.1836C29.895 60.1836 28.9961 59.2847 28.9961 58.1797C28.9961 57.0747 29.895 56.1758 31 56.1758C32.1049 56.1758 33.0038 57.0747 33.0038 58.1797C33.0038 59.2847 32.1049 60.1836 31 60.1836Z" fill="#006DB1"/>
<path d="M58.2026 23.9772C55.654 14.0776 47.9211 6.34506 38.0216 3.79701C37.5359 3.67192 37.0406 3.96436 36.9156 4.45019C36.7905 4.93601 37.083 5.43117 37.5687 5.55614C46.8275 7.93926 54.06 15.1713 56.4434 24.43C56.5489 24.8398 56.9179 25.112 57.3223 25.112C57.3973 25.112 57.4735 25.1027 57.5494 25.0831C58.0352 24.958 58.3275 24.4629 58.2026 23.9772Z" fill="#006DB1"/>
<path d="M25.0845 4.45029C24.9596 3.96447 24.4641 3.67202 23.9786 3.79711C14.0784 6.34529 6.3454 14.0783 3.79722 23.9784C3.67213 24.4642 3.96457 24.9593 4.45028 25.0843C4.52621 25.1039 4.60237 25.1132 4.67733 25.1132C5.08178 25.1132 5.45076 24.8409 5.55623 24.4312C7.93947 15.1721 15.172 7.93949 24.4314 5.55624C24.9171 5.43127 25.2095 4.93612 25.0845 4.45029Z" fill="#006DB1"/>
<path d="M24.4316 56.4439C15.173 54.0609 7.94069 46.8294 5.55672 37.5712C5.43163 37.0854 4.93623 36.7934 4.45077 36.9182C3.96506 37.0432 3.67262 37.5384 3.79771 38.0241C6.34661 47.923 14.0795 55.6551 23.9788 58.2029C24.0548 58.2226 24.1309 58.2319 24.2059 58.2319C24.6103 58.2319 24.9793 57.9597 25.0848 57.5499C25.2099 57.0641 24.9174 56.5689 24.4316 56.4439Z" fill="#006DB1"/>
<path d="M57.5497 36.9156C57.064 36.7906 56.5687 37.083 56.4438 37.5688C54.0605 46.8281 46.828 54.0606 37.5688 56.444C37.0831 56.5689 36.7906 57.0641 36.9156 57.5499C37.0211 57.9597 37.3899 58.2319 37.7945 58.2319C37.8694 58.2319 37.9456 58.2226 38.0215 58.203C47.9215 55.6547 55.6546 47.9216 58.2028 38.0215C58.3279 37.5358 58.0354 37.0406 57.5497 36.9156Z" fill="#006DB1"/>
<path d="M27.1609 19.5116L26.3115 17.8129C26.0873 17.3643 25.5419 17.1823 25.0931 17.4068C24.6444 17.631 24.4626 18.1766 24.6869 18.6252L25.5363 20.3239C25.6954 20.6422 26.0161 20.8261 26.3493 20.8261C26.4858 20.8261 26.6243 20.7952 26.7547 20.7301C27.2034 20.5058 27.3853 19.9603 27.1609 19.5116Z" fill="#006DB1"/>
<path d="M35.7212 20.5954L35.278 20.191C34.9074 19.8531 34.3331 19.8793 33.9949 20.2498C33.6568 20.6203 33.6832 21.1948 34.0536 21.5329L34.4969 21.9373C34.671 22.0962 34.8903 22.1745 35.1088 22.1745C35.3552 22.1745 35.6008 22.0749 35.7799 21.8785C36.118 21.5079 36.0916 20.9335 35.7212 20.5954Z" fill="#006DB1"/>
<path d="M43.267 18.671C36.4787 11.8829 25.4335 11.8828 18.6452 18.671C12.4065 24.9098 11.8237 34.8328 17.2896 41.753C17.6006 42.1465 18.1716 42.2135 18.5653 41.9028C18.9589 41.5918 19.026 41.0207 18.7151 40.627C16.6203 37.975 15.5185 34.8303 15.3803 31.6625L16.893 33.4453C17.2633 33.8816 17.7355 34.2349 18.2586 34.4665L21.974 36.1127L20.9075 37.6779C20.4506 38.3487 20.5354 39.252 21.1094 39.8261L23.2159 41.9327V44.5117C22.5589 44.1342 21.9218 43.7051 21.311 43.2228C20.9173 42.9121 20.3462 42.979 20.0354 43.3726C19.7244 43.7662 19.7915 44.3374 20.1851 44.6483C23.3592 47.1554 27.1646 48.3898 30.9568 48.3898C35.4325 48.3898 39.8898 46.6697 43.267 43.2927C50.0553 36.5044 50.0553 25.4592 43.267 18.671ZM32.9517 15.5235L32.7249 16.9256C32.6859 17.1671 32.5619 17.3875 32.3761 17.5462L30.3226 19.2996L28.9825 15.5206C30.3 15.3539 31.6346 15.3549 32.9517 15.5235ZM18.1351 31.2711L17.8704 31.7895L15.4924 28.987C15.9182 25.6715 17.4078 22.4773 19.9298 19.9554C20.5438 19.3414 21.1972 18.7906 21.881 18.3006C21.9897 18.4504 22.0572 18.6266 22.0736 18.8167C22.0981 19.1002 22.0081 19.374 21.8203 19.5877L20.4241 21.1766C20.0504 21.6019 19.8892 22.1661 19.982 22.7247C20.0748 23.2833 20.4096 23.7651 20.9007 24.0468L21.6543 24.4789C22.1256 24.7492 22.6905 24.8023 23.2041 24.6245C23.7175 24.4466 24.1286 24.0555 24.3317 23.5512L24.4381 23.287C24.4426 23.2759 24.451 23.2552 24.4846 23.2489C24.5185 23.2423 24.5335 23.2589 24.5418 23.2676L25.8572 24.6732C25.8791 24.6966 25.8799 24.7325 25.8589 24.7567L21.23 30.1058C21.2192 30.1183 21.2042 30.1259 21.1877 30.1272L19.655 30.2529C19.0015 30.3065 18.4333 30.6871 18.1351 31.2711ZM25.0325 45.4036V41.5563C25.0325 41.3155 24.9368 41.0844 24.7664 40.9142L22.4671 38.6148L24.0271 36.3249C24.046 36.2972 24.0833 36.2893 24.1119 36.307L28.352 38.9407C28.8014 39.2198 28.9673 39.7898 28.7379 40.2664L26.0792 45.7907C25.7269 45.6746 25.3777 45.5457 25.0325 45.4036ZM27.8673 46.2638L30.3746 41.0541C31.0073 39.7395 30.5499 38.1676 29.3105 37.3977L25.0704 34.764C24.4944 34.4063 23.8023 34.3968 23.237 34.6805L19.3177 32.9486L19.7525 32.0971C19.7623 32.0779 19.7816 32.0649 19.803 32.0632L21.3358 31.9375C21.8292 31.897 22.2791 31.6686 22.6032 31.2943L27.2322 25.9453C27.863 25.2163 27.8421 24.1358 27.1833 23.4318L25.8679 22.0263C25.4271 21.5553 24.7852 21.345 24.1511 21.4632C23.5171 21.5817 22.9944 22.0096 22.7532 22.608L22.6469 22.8723C22.644 22.8795 22.6363 22.8987 22.6094 22.908C22.5822 22.9173 22.5644 22.907 22.5578 22.9032L21.8042 22.471C21.7966 22.4666 21.7785 22.4562 21.7737 22.427C21.7689 22.3978 21.7825 22.3822 21.7885 22.3755L23.1847 20.7867C23.7027 20.1972 23.9507 19.4421 23.8832 18.6601C23.8413 18.1752 23.6812 17.7212 23.4198 17.3288C24.6144 16.6701 25.8778 16.1797 27.1748 15.8577L28.8117 20.4735C28.9661 20.909 29.3246 21.2403 29.771 21.3597C29.8907 21.3918 30.0127 21.4075 30.1339 21.4075C30.464 21.4075 30.7878 21.2909 31.0446 21.0715L33.5555 18.9273C34.0685 18.4892 34.4103 17.8812 34.518 17.2154L34.7376 15.8577C36.5107 16.2979 38.2208 17.053 39.7784 18.1226L38.6232 19.8087C38.3397 20.2225 38.4453 20.7878 38.8591 21.0712C39.016 21.1788 39.1947 21.2302 39.3715 21.2302C39.6611 21.2302 39.9456 21.0922 40.1216 20.8354L41.2154 19.2389C41.477 19.4677 41.7333 19.7058 41.9827 19.9551C42.1861 20.1588 42.3825 20.3672 42.5732 20.5796L37.5382 23.2716C36.9629 23.5793 36.5932 24.1515 36.5494 24.8024L36.4581 26.1586L35.7947 27.3111C35.5444 27.7458 35.6938 28.301 36.1285 28.5513C36.2247 28.6068 36.3269 28.6409 36.4302 28.6584C35.9414 28.8908 35.528 29.2583 35.237 29.7269L33.8403 31.9757C33.3166 32.8189 33.2718 33.8917 33.7235 34.7757L34.8024 36.8877C35.1766 37.6202 35.9732 38.0212 36.7845 37.8863L38.4793 37.6038C38.4859 37.6027 38.5057 37.5995 38.527 37.6154C38.5485 37.6314 38.5509 37.6514 38.5516 37.6581L39.3317 44.1366C35.897 46.3255 31.771 47.0524 27.8673 46.2638ZM37.9202 27.2596L40.1425 26.9115C40.3848 26.8737 40.633 26.9231 40.8419 27.051L42.6715 28.1706L43.0933 29.3349L40.8834 29.1581C40.8659 29.1567 40.8498 29.148 40.8391 29.1342L40.5216 28.7241C40.062 28.1308 39.2955 27.8678 38.5687 28.0546L37.2311 28.398C37.283 28.3447 37.3298 28.285 37.3686 28.2176L37.9202 27.2596ZM41.9827 42.0082C41.6694 42.3215 41.3452 42.6179 41.0124 42.8992L40.3551 37.4409C40.294 36.934 40.0246 36.4677 39.616 36.1617C39.2074 35.8557 38.6844 35.7283 38.1807 35.8122L36.4859 36.0947C36.4589 36.0992 36.4325 36.0859 36.42 36.0616L35.3409 33.9494C35.1772 33.629 35.1934 33.2401 35.3833 32.9343L36.78 30.6855C36.9212 30.4582 37.1416 30.2964 37.4007 30.2298L39.0204 29.814C39.0446 29.8076 39.0701 29.8165 39.0854 29.8363L39.4029 30.2463C39.7259 30.6636 40.2128 30.9269 40.7387 30.969L43.891 31.2212L46.0717 34.8388C45.3904 37.5282 43.9959 39.9951 41.9827 42.0082ZM45.2516 29.9598L44.5566 28.0416L44.905 27.8833C45.3617 27.6757 45.5635 27.1373 45.356 26.6807C45.1486 26.224 44.61 26.0222 44.1534 26.2297L43.4799 26.5358L41.7897 25.5016C41.2136 25.1491 40.5287 25.0126 39.8614 25.117L38.3325 25.3565L38.3616 24.9246C38.3631 24.9029 38.3754 24.8839 38.3944 24.8737L43.7249 22.0238C45.5608 24.6289 46.55 27.7295 46.55 30.982C46.55 31.3407 46.5371 31.6977 46.5132 32.0525L45.2516 29.9598Z" fill="#006DB1"/>
</g>
<defs>
<clipPath id="clip0_2164_3822">
<rect width="62" height="62" fill="white"/>
</clipPath>
</defs>
</svg>
