<svg width="62" height="62" viewBox="0 0 62 62" fill="none" xmlns="http://www.w3.org/2000/svg">
<g clip-path="url(#clip0_2164_3391)">
<path d="M13.9484 46.6425C11.5118 46.6425 9.52954 48.6247 9.52954 51.0612C9.52954 53.4978 11.5118 55.48 13.9484 55.48C16.3849 55.48 18.3672 53.4978 18.3672 51.0612C18.3672 48.6247 16.3849 46.6425 13.9484 46.6425ZM13.9484 53.6634C12.5134 53.6634 11.3459 52.4961 11.3459 51.0611C11.3459 49.6263 12.5134 48.4588 13.9484 48.4588C15.3833 48.4588 16.5508 49.6263 16.5508 51.0611C16.5508 52.496 15.3833 53.6634 13.9484 53.6634Z" fill="#171717"/>
<path d="M13.9485 49.5673C13.4469 49.5673 13.0403 49.9738 13.0403 50.4755V51.6459C13.0403 52.1476 13.4469 52.5541 13.9485 52.5541C14.4501 52.5541 14.8567 52.1475 14.8567 51.6459V50.4755C14.8567 49.9738 14.4501 49.5673 13.9485 49.5673Z" fill="#006DB1"/>
<path d="M13.9484 46.6424C11.5118 46.6424 9.52954 48.6246 9.52954 51.0611C9.52954 53.4976 11.5118 55.4798 13.9484 55.4798C16.3849 55.4798 18.3672 53.4976 18.3672 51.0611C18.3672 48.6246 16.3849 46.6424 13.9484 46.6424ZM13.9484 53.6635C12.5134 53.6635 11.3459 52.4961 11.3459 51.0612C11.3459 49.6263 12.5134 48.4589 13.9484 48.4589C15.3833 48.4589 16.5508 49.6264 16.5508 51.0612C16.5508 52.4961 15.3833 53.6635 13.9484 53.6635Z" fill="#006DB1"/>
<path d="M13.9485 49.5673C13.4469 49.5673 13.0403 49.9738 13.0403 50.4755V51.6459C13.0403 52.1476 13.4469 52.5541 13.9485 52.5541C14.4501 52.5541 14.8567 52.1476 14.8567 51.6459V50.4755C14.8567 49.9739 14.4501 49.5673 13.9485 49.5673Z" fill="#006DB1"/>
<path d="M46.7984 46.6424C44.3618 46.6424 42.3796 48.6246 42.3796 51.0611C42.3796 53.4976 44.3619 55.4798 46.7984 55.4798C49.2349 55.4798 51.2172 53.4976 51.2172 51.0611C51.2172 48.6246 49.2349 46.6424 46.7984 46.6424ZM46.7984 53.6635C45.3634 53.6635 44.196 52.4961 44.196 51.0612C44.196 49.6263 45.3635 48.4589 46.7984 48.4589C48.2333 48.4589 49.4008 49.6264 49.4008 51.0612C49.4008 52.4961 48.2333 53.6635 46.7984 53.6635Z" fill="#006DB1"/>
<path d="M46.7981 49.5673C46.2965 49.5673 45.8899 49.9738 45.8899 50.4755V51.6459C45.8899 52.1476 46.2965 52.5541 46.7981 52.5541C47.2997 52.5541 47.7063 52.1476 47.7063 51.6459V50.4755C47.7063 49.9739 47.2997 49.5673 46.7981 49.5673Z" fill="#006DB1"/>
<path d="M61.734 49.4156C61.5637 49.2453 61.3327 49.1497 61.0918 49.1497H60.746V46.0459C60.746 45.8879 60.7047 45.7325 60.6263 45.5953L56.6142 38.5738C56.4526 38.2909 56.1517 38.1162 55.8257 38.1162H35.9203V34.9174H39.0244C39.2653 34.9174 39.4963 34.8218 39.6666 34.6515C39.8369 34.4811 39.9326 34.2502 39.9326 34.0092V25.9843C39.9326 22.165 36.8255 19.0579 33.0062 19.0579H28.4923C27.9907 19.0579 27.5841 19.4644 27.5841 19.9661C27.5841 20.4678 27.9907 20.8743 28.4923 20.8743H33.0062C35.8238 20.8743 38.1162 23.1667 38.1162 25.9843V33.101H35.9204V25.9845C35.9204 24.3775 34.6132 23.0702 33.0063 23.0702H21.878V20.8743H24.8368C25.3384 20.8743 25.745 20.4678 25.745 19.9661C25.745 19.4644 25.3384 19.0579 24.8368 19.0579H20.9698C20.4682 19.0579 20.0616 19.4644 20.0616 19.9661V23.0703H17.8657V18.6591L50.1528 10.1126V11.9417V19.5903L48.4129 21.3303C48.2425 21.5006 48.1469 21.7316 48.1469 21.9725V25.9848C48.1469 26.3288 48.3412 26.6433 48.6489 26.7971L52.1592 28.5524V29.9973C52.1592 30.4989 52.5658 30.9055 53.0674 30.9055C53.6727 30.9055 54.1652 31.3978 54.1652 32.0032C54.1652 32.6085 53.6727 33.1009 53.0674 33.1009C52.4621 33.1009 51.9697 32.6085 51.9697 32.0032C51.9697 31.5015 51.5631 31.095 51.0615 31.095C50.5599 31.095 50.1533 31.5015 50.1533 32.0032C50.1533 33.6101 51.4606 34.9173 53.0674 34.9173C54.6743 34.9173 55.9816 33.61 55.9816 32.0032C55.9816 30.7133 55.1392 29.6164 53.9756 29.2339V28.5522L57.4857 26.7971C57.7934 26.6433 57.9878 26.3288 57.9878 25.9848V21.9725C57.9878 21.7316 57.8921 21.5006 57.7218 21.3302L55.9816 19.5903V11.9417V3.91742C55.9816 3.41573 55.575 3.00922 55.0734 3.00922H51.061C50.5594 3.00922 50.1528 3.41573 50.1528 3.91742V4.19388L10.7394 13.0619C10.7336 13.0633 10.7283 13.0656 10.7226 13.067C10.6921 13.0745 10.6621 13.0835 10.6324 13.0941C10.6245 13.0969 10.6165 13.0995 10.6088 13.1025C10.5732 13.1164 10.5384 13.1323 10.5046 13.1507C10.5003 13.1531 10.496 13.1559 10.4917 13.1583C10.4615 13.1754 10.4325 13.1943 10.4043 13.2149C10.3984 13.2191 10.3925 13.2234 10.3867 13.2277C10.3553 13.2517 10.3251 13.2774 10.2967 13.3058L10.2966 13.3059L6.55093 17.052H4.92077C4.4192 17.052 4.01256 17.4585 4.01256 17.9602V33.1009H2.91448C1.30745 33.1009 0.000121094 34.4083 0.000121094 36.0154V48.0497C0.000121094 48.0505 0 48.0512 0 48.052C0 48.0527 0.000121094 48.0535 0.000121094 48.0543V50.0579C0.000121094 50.2987 0.0957852 50.5298 0.266164 50.7002L4.27861 54.7124C4.44898 54.8826 4.67991 54.9783 4.92077 54.9783H7.05819C8.42461 57.3722 11.0003 58.9907 13.9484 58.9907C16.8966 58.9907 19.4721 57.3723 20.8385 54.9784H24.575V56.0764C24.575 56.5781 24.9816 56.9846 25.4832 56.9846H34.5106C35.0122 56.9846 35.4188 56.5781 35.4188 56.0764V54.9784H39.9081C41.2746 57.3723 43.8501 58.9907 46.7983 58.9907C49.7504 58.9907 52.3291 57.368 53.6941 54.9686C53.7352 54.9743 53.7769 54.9783 53.8196 54.9783H61.0918C61.5934 54.9783 62 54.5718 62 54.0701V50.0576C62 49.8169 61.9043 49.586 61.734 49.4156ZM21.8779 29.9985C21.8779 29.9979 21.878 29.9973 21.878 29.9968C21.878 29.9962 21.8779 29.9956 21.8779 29.9951V24.8867H33.0062C33.6116 24.8866 34.104 25.379 34.104 25.9845V33.101L21.8779 33.1009V29.9985ZM34.1039 34.9173V38.1161H23.8839V34.9173H34.1039ZM17.8658 24.8867H20.0616V29.0885H17.8658V24.8867ZM17.8658 30.9049H20.0616V34.0091C20.0616 34.25 20.1573 34.481 20.3276 34.6514C20.4979 34.8216 20.7289 34.9173 20.9698 34.9173H22.0675V38.1161H20.7871L17.8658 33.7343V30.9049ZM51.9692 4.90954C51.9692 4.90676 51.9692 4.90397 51.9692 4.90118V4.82562H54.1652V11.0335H51.9692V4.90954ZM51.9692 12.8499H54.1652V19.0584H51.9692V12.8499ZM51.4371 20.8747H54.6971L56.1713 22.3486V25.4235H56.1714L53.0672 26.9755L49.9633 25.4235V22.3486L51.4371 20.8747ZM50.1528 6.05581V8.23369L17.1207 16.9775L13.207 14.3685L50.1528 6.05581ZM11.0545 15.1167L13.9578 17.052H9.11945L11.0545 15.1167ZM5.82897 18.8684H16.0493V23.9727C16.0493 23.9747 16.049 23.9766 16.049 23.9785C16.049 23.9805 16.0493 23.9824 16.0493 23.9843V29.9908C16.0493 29.9928 16.049 29.9947 16.049 29.9967C16.049 29.9986 16.0493 30.0005 16.0493 30.0025V33.1008H5.82897V18.8684ZM13.9484 57.1744C10.5777 57.1744 7.83525 54.432 7.83525 51.0613C7.83525 47.6904 10.5777 44.9481 13.9484 44.9481C17.3192 44.9481 20.0616 47.6904 20.0616 51.0613C20.0616 54.432 17.3192 57.1744 13.9484 57.1744ZM24.5751 53.1621H21.5933C21.7775 52.4925 21.878 51.7886 21.878 51.0611C21.878 46.6888 18.3209 43.1316 13.9484 43.1316C9.57597 43.1316 6.01884 46.6888 6.01884 51.0611C6.01884 51.7884 6.11923 52.4924 6.30353 53.162H5.29712L1.81665 49.6819V48.9603H4.9204C5.22411 48.9603 5.50759 48.8086 5.67603 48.5558L9.41879 42.9418H18.4776L22.22 48.5558C22.3884 48.8086 22.672 48.9603 22.9757 48.9603H24.5751V53.1621ZM27.5842 55.1684H26.3914V54.0738C26.3914 54.0726 26.3915 54.0715 26.3915 54.0703C26.3915 54.0691 26.3914 54.068 26.3914 54.0668V48.9603H27.5842V55.1684ZM30.5932 55.1684H29.4005V48.9603H29.4955H30.5932V55.1684ZM32.4097 55.1683V48.9602H33.5076H33.6024V55.1683H32.4097ZM34.5107 47.1439H33.5077H29.4957H25.4833H23.4619L19.7195 41.5299C19.5511 41.2771 19.2675 41.1254 18.9638 41.1254H8.93272C8.62902 41.1254 8.34542 41.2771 8.1771 41.5299L4.43433 47.1439H1.81653V36.0155C1.81653 35.4099 2.30902 34.9173 2.91448 34.9173H16.4714L19.5454 39.5281C19.7138 39.7808 19.9973 39.9325 20.301 39.9325H55.2987L58.9296 46.287V49.1497H56.734V48.0521C56.734 47.8729 56.6808 47.6975 56.5815 47.5483L52.5695 41.5299C52.401 41.2771 52.1174 41.1254 51.8137 41.1254H41.7828C41.5052 41.1254 41.243 41.2523 41.0708 41.4699L36.5789 47.1439H34.5107ZM46.7983 57.1744C43.4275 57.1744 40.6851 54.432 40.6851 51.0613C40.6851 47.6904 43.4275 44.9481 46.7983 44.9481C50.169 44.9481 52.9114 47.6904 52.9114 51.0613C52.9114 54.432 50.169 57.1744 46.7983 57.1744ZM46.798 43.1316C42.4257 43.1316 38.8684 46.6888 38.8684 51.0611C38.8684 51.7886 38.9688 52.4925 39.1531 53.1621H35.4188V48.9603H37.0182C37.2958 48.9603 37.5581 48.8334 37.7303 48.6158L42.2221 42.9417H51.3275L54.9175 48.327V49.1496H54.4933C53.6354 45.6978 50.5114 43.1316 46.798 43.1316ZM60.1836 53.1621H54.4433C54.6274 52.4926 54.728 51.7887 54.728 51.0613C54.728 51.0293 54.7259 50.9979 54.7255 50.9661H55.8212C55.8228 50.9661 55.8243 50.9663 55.8259 50.9663C55.8275 50.9663 55.8291 50.9661 55.8306 50.9661H59.8331C59.8347 50.9661 59.8363 50.9663 59.8379 50.9663C59.8394 50.9663 59.841 50.9661 59.8426 50.9661H60.1836V53.1621Z" fill="#006DB1"/>
<path d="M12.9449 21.0644H8.93262C8.43105 21.0644 8.02441 21.4709 8.02441 21.9726C8.02441 22.4743 8.43105 22.8808 8.93262 22.8808H12.9449C13.4465 22.8808 13.8531 22.4743 13.8531 21.9726C13.8531 21.4709 13.4465 21.0644 12.9449 21.0644Z" fill="#006DB1"/>
<path d="M12.9449 25.0763H8.93262C8.43105 25.0763 8.02441 25.4828 8.02441 25.9845C8.02441 26.4862 8.43105 26.8927 8.93262 26.8927H12.9449C13.4465 26.8927 13.8531 26.4862 13.8531 25.9845C13.8531 25.4829 13.4465 25.0763 12.9449 25.0763Z" fill="#006DB1"/>
<path d="M12.9449 29.0884H8.93262C8.43105 29.0884 8.02441 29.4949 8.02441 29.9966C8.02441 30.4983 8.43105 30.9048 8.93262 30.9048H12.9449C13.4465 30.9048 13.8531 30.4983 13.8531 29.9966C13.8531 29.4952 13.4465 29.0884 12.9449 29.0884Z" fill="#006DB1"/>
</g>
<defs>
<clipPath id="clip0_2164_3391">
<rect width="62" height="62" fill="white"/>
</clipPath>
</defs>
</svg>
