<svg width="46" height="44" viewBox="0 0 46 44" fill="none" xmlns="http://www.w3.org/2000/svg">
<path d="M19.0623 1.17295C19.519 1.48342 19.6376 2.10538 19.3271 2.56214L2.49509 43.5075C2.18462 43.9642 1.56266 44.0828 1.10591 43.7723C0.64915 43.4618 0.530566 42.8399 0.841039 42.3831L17.6731 1.43781C17.9836 0.98106 18.6055 0.862475 19.0623 1.17295Z" fill="#006DB1"/>
<path d="M27.0635 1.17375C27.5198 1.48487 27.6375 2.107 27.3263 2.56331L14.8263 35.5633C14.5152 36.0196 13.8931 36.1373 13.4368 35.8262C12.9805 35.5151 12.8628 34.893 13.1739 34.4366L25.6739 1.43664C25.985 0.980326 26.6071 0.862626 27.0635 1.17375Z" fill="#006DB1"/>
<path d="M35.3258 2.71783C35.6373 2.26175 35.52 1.63954 35.064 1.32807C34.6079 1.0166 33.9857 1.13383 33.6742 1.58991L25.6742 22.0899C25.3627 22.546 25.48 23.1682 25.936 23.4797C26.3921 23.7911 27.0143 23.6739 27.3258 23.2178L35.3258 2.71783Z" fill="#006DB1"/>
</svg>
