<svg width="59" height="53" viewBox="0 0 59 53" fill="none" xmlns="http://www.w3.org/2000/svg">
<path d="M55.4032 0.0546875H44.2853C43.808 0.0546875 43.421 0.441644 43.421 0.918945C43.421 1.39625 43.808 1.7832 44.2853 1.7832H55.4032C56.4334 1.7832 57.2715 2.6213 57.2715 3.6515V36.4903H1.72852V3.6515C1.72852 2.6213 2.56662 1.7832 3.59681 1.7832H40.2519C40.7292 1.7832 41.1162 1.39625 41.1162 0.918945C41.1162 0.441644 40.7292 0.0546875 40.2519 0.0546875H3.59681C1.61351 0.0546875 0 1.6682 0 3.6515V39.2314C0 41.2147 1.61351 42.8282 3.59681 42.8282H11.8708C12.3481 42.8282 12.735 42.4412 12.735 41.9639C12.735 41.4866 12.3481 41.0997 11.8708 41.0997H3.59681C2.56662 41.0997 1.72852 40.2616 1.72852 39.2314V38.2188H57.2715V39.2314C57.2715 40.2616 56.4334 41.0997 55.4032 41.0997H15.8659C15.3886 41.0997 15.0017 41.4866 15.0017 41.9639C15.0017 42.4412 15.3886 42.8282 15.8659 42.8282H21.3055L20.4521 47.7596H18.875C17.4453 47.7596 16.2823 48.9227 16.2823 50.3524C16.2823 51.7821 17.4453 52.9452 18.875 52.9452H40.125C41.5547 52.9452 42.7177 51.7821 42.7177 50.3524C42.7177 48.9227 41.5547 47.7596 40.125 47.7596H38.5479L37.6945 42.8282H55.4031C57.3864 42.8282 58.9999 41.2147 58.9999 39.2314V3.6515C59 1.6682 57.3865 0.0546875 55.4032 0.0546875ZM36.7936 47.7596H34.4408C33.9635 47.7596 33.5765 48.1466 33.5765 48.6239C33.5765 49.1012 33.9635 49.4882 34.4408 49.4882H40.125C40.6016 49.4882 40.9892 49.8758 40.9892 50.3524C40.9892 50.829 40.6016 51.2167 40.125 51.2167H18.875C18.3984 51.2167 18.0108 50.829 18.0108 50.3524C18.0108 49.8758 18.3984 49.4882 18.875 49.4882H30.4062C30.8835 49.4882 31.2705 49.1012 31.2705 48.6239C31.2705 48.1466 30.8835 47.7596 30.4062 47.7596H22.2064L23.0597 42.8282H35.9405L36.7936 47.7596Z" fill="#006DB1"/>
<path d="M46.7526 21.9225C46.4274 21.9225 46.1297 22.105 45.9822 22.3948L41.9036 30.4111L38.4618 23.6463C38.3143 23.3565 38.0166 23.1739 37.6914 23.1739C37.3663 23.1739 37.0686 23.3565 36.9211 23.6463L35.0553 27.3134H32.0764C31.5991 27.3134 31.2122 27.7003 31.2122 28.1776C31.2122 28.6549 31.5991 29.0419 32.0764 29.0419H35.5853C35.9105 29.0419 36.2081 28.8594 36.3556 28.5696L37.6914 25.9442L41.1333 32.709C41.2808 32.9988 41.5784 33.1814 41.9036 33.1814C42.2288 33.1814 42.5265 32.9988 42.674 32.709L46.7526 24.6927L48.725 28.5697C48.8725 28.8595 49.1702 29.042 49.4954 29.042H53.0043C53.4816 29.042 53.8685 28.6551 53.8685 28.1778C53.8685 27.7005 53.4816 27.3135 53.0043 27.3135H50.0253L47.5229 22.3949C47.3754 22.105 47.0777 21.9225 46.7526 21.9225Z" fill="#006DB1"/>
<path d="M32.0769 19.3622H36.5617C37.039 19.3622 37.426 18.9753 37.426 18.498V9.39978C37.426 8.92248 37.039 8.53552 36.5617 8.53552H32.0769C31.5996 8.53552 31.2126 8.92248 31.2126 9.39978V18.498C31.2126 18.9753 31.5996 19.3622 32.0769 19.3622ZM32.9412 10.264H35.6975V17.6337H32.9412V10.264Z" fill="#006DB1"/>
<path d="M44.8134 11.0078H40.3286C39.8513 11.0078 39.4644 11.3948 39.4644 11.8721V18.4979C39.4644 18.9752 39.8513 19.3622 40.3286 19.3622H44.8134C45.2907 19.3622 45.6777 18.9752 45.6777 18.4979V11.8721C45.6777 11.3948 45.2907 11.0078 44.8134 11.0078ZM43.9492 17.6337H41.1929V12.7363H43.9492V17.6337Z" fill="#006DB1"/>
<path d="M53.0046 19.3622C53.4819 19.3622 53.8688 18.9752 53.8688 18.4979V7.11865C53.8688 6.64135 53.4819 6.25439 53.0046 6.25439H48.5198C48.0425 6.25439 47.6555 6.64135 47.6555 7.11865V18.4979C47.6555 18.9752 48.0425 19.3622 48.5198 19.3622H53.0046ZM49.384 7.98291H52.1403V17.6337H49.384V7.98291Z" fill="#006DB1"/>
<path d="M25.5706 16.0311H5.98071C5.50341 16.0311 5.11646 16.4181 5.11646 16.8954C5.11646 17.3727 5.50341 17.7596 5.98071 17.7596H25.5706C26.0479 17.7596 26.4348 17.3727 26.4348 16.8954C26.4348 16.4181 26.0479 16.0311 25.5706 16.0311Z" fill="#006DB1"/>
<path d="M5.98071 22.3507H9.48637C9.96368 22.3507 10.3506 21.9638 10.3506 21.4865C10.3506 21.0091 9.96368 20.6222 9.48637 20.6222H5.98071C5.50341 20.6222 5.11646 21.0091 5.11646 21.4865C5.11646 21.9638 5.50341 22.3507 5.98071 22.3507Z" fill="#006DB1"/>
<path d="M25.5702 20.6222H13.446C12.9687 20.6222 12.5818 21.0091 12.5818 21.4865C12.5818 21.9638 12.9687 22.3507 13.446 22.3507H25.5702C26.0475 22.3507 26.4345 21.9638 26.4345 21.4865C26.4345 21.0091 26.0475 20.6222 25.5702 20.6222Z" fill="#006DB1"/>
<path d="M25.5706 6.25439H5.98071C5.50341 6.25439 5.11646 6.64135 5.11646 7.11865C5.11646 7.59595 5.50341 7.98291 5.98071 7.98291H25.5706C26.0479 7.98291 26.4348 7.59595 26.4348 7.11865C26.4348 6.64135 26.0479 6.25439 25.5706 6.25439Z" fill="#006DB1"/>
<path d="M5.98071 12.5741H18.129C18.6063 12.5741 18.9932 12.1871 18.9932 11.7098C18.9932 11.2325 18.6063 10.8456 18.129 10.8456H5.98071C5.50341 10.8456 5.11646 11.2325 5.11646 11.7098C5.11646 12.1871 5.50341 12.5741 5.98071 12.5741Z" fill="#006DB1"/>
<path d="M25.5702 10.8456H22.0886C21.6113 10.8456 21.2244 11.2325 21.2244 11.7098C21.2244 12.1871 21.6113 12.5741 22.0886 12.5741H25.5702C26.0475 12.5741 26.4345 12.1871 26.4345 11.7098C26.4345 11.2325 26.0475 10.8456 25.5702 10.8456Z" fill="#006DB1"/>
<path d="M26.4348 26.0219C26.4348 25.5446 26.0479 25.1576 25.5706 25.1576H5.98071C5.50341 25.1576 5.11646 25.5446 5.11646 26.0219C5.11646 26.4992 5.50341 26.8861 5.98071 26.8861H25.5706C26.0479 26.8861 26.4348 26.4992 26.4348 26.0219Z" fill="#006DB1"/>
<path d="M5.98071 29.7244C5.50341 29.7244 5.11646 30.1113 5.11646 30.5886C5.11646 31.0659 5.50341 31.4529 5.98071 31.4529H15.1995C15.6768 31.4529 16.0637 31.0659 16.0637 30.5886C16.0637 30.1113 15.6768 29.7244 15.1995 29.7244H5.98071Z" fill="#006DB1"/>
</svg>
