<svg width="18" height="18" viewBox="0 0 18 18" fill="none" xmlns="http://www.w3.org/2000/svg">
<path fill-rule="evenodd" clip-rule="evenodd" d="M12.4412 7.2795C12.4412 9.10691 10.9598 10.5883 9.13241 10.5883C7.305 10.5883 5.82359 9.10691 5.82359 7.2795C5.82359 5.45208 7.305 3.97067 9.13241 3.97067C10.9598 3.97067 12.4412 5.45208 12.4412 7.2795ZM11.3824 7.2795C11.3824 8.52214 10.3751 9.5295 9.13241 9.5295C7.88977 9.5295 6.88241 8.52214 6.88241 7.2795C6.88241 6.03686 7.88977 5.0295 9.13241 5.0295C10.3751 5.0295 11.3824 6.03686 11.3824 7.2795Z" fill="#006DB1"/>
<path fill-rule="evenodd" clip-rule="evenodd" d="M9.28592 0.132872C5.32616 -0.0255184 1.98535 2.88039 1.98535 7.54421C1.98535 8.76636 2.45481 10.0019 3.11075 11.1401C3.76982 12.2838 4.64105 13.3703 5.49994 14.305C6.36046 15.2415 7.21921 16.0369 7.86201 16.5978C8.18379 16.8785 8.45239 17.1013 8.64127 17.2545C8.73574 17.3311 8.81033 17.3903 8.86173 17.4308C8.88744 17.451 8.90735 17.4665 8.92106 17.4771L8.93692 17.4894L8.94253 17.4937L8.94293 17.494C8.94293 17.494 8.94317 17.4942 9.26476 17.0736L8.94317 17.4942L9.27039 17.7444L9.59337 17.4887L9.26476 17.0736C9.59337 17.4887 9.59362 17.4885 9.59362 17.4885L9.59524 17.4872L9.5994 17.4839L9.61449 17.4718C9.62749 17.4614 9.64634 17.4462 9.67064 17.4264C9.71923 17.3868 9.78966 17.3287 9.87879 17.2537C10.057 17.1035 10.3103 16.8851 10.6137 16.6091C11.2197 16.0578 12.0291 15.2738 12.8401 14.3445C13.6498 13.4168 14.4705 12.3335 15.091 11.1829C15.7095 10.0361 16.1471 8.78938 16.1471 7.54421C16.1471 5.17769 15.3952 3.34831 14.1287 2.09223C12.8671 0.840971 11.1439 0.207192 9.28592 0.132872ZM9.90115 15.8259C9.64277 16.0609 9.42284 16.252 9.2584 16.3916C9.08163 16.2474 8.8416 16.0473 8.55814 15.7999C7.93532 15.2565 7.10656 14.4885 6.27958 13.5886C5.45098 12.6869 4.63471 11.664 4.02815 10.6115C3.41847 9.55348 3.04418 8.5059 3.04418 7.54421C3.04418 3.47274 5.89371 1.05685 9.2436 1.19085C10.8914 1.25676 12.3447 1.81416 13.3831 2.84401C14.4167 3.86906 15.0883 5.41073 15.0883 7.54421C15.0883 8.54905 14.7318 9.61847 14.1591 10.6803C13.5884 11.7384 12.8209 12.7562 12.0424 13.6483C11.2652 14.5389 10.4863 15.2935 9.90115 15.8259Z" fill="#006DB1"/>
</svg>
