<svg width="56" height="51" viewBox="0 0 56 51" fill="none" xmlns="http://www.w3.org/2000/svg">
<rect width="56" height="40" fill="#006DB1"/>
<path d="M16.3438 25.5V14.125H19.5859C20.6224 14.125 21.401 14.3776 21.9219 14.8828C22.4479 15.388 22.7109 16.1458 22.7109 17.1562C22.7109 17.6875 22.5781 18.1562 22.3125 18.5625C22.0469 18.9688 21.6875 19.2839 21.2344 19.5078C21.7552 19.6641 22.1667 19.9844 22.4688 20.4688C22.776 20.9531 22.9297 21.5365 22.9297 22.2188C22.9297 23.2396 22.6484 24.0417 22.0859 24.625C21.5286 25.2083 20.7318 25.5 19.6953 25.5H16.3438ZM17.7734 20.1797V24.2734H19.7266C20.2682 24.2734 20.6979 24.0964 21.0156 23.7422C21.3333 23.3828 21.4922 22.8802 21.4922 22.2344C21.4922 20.8646 20.9141 20.1797 19.7578 20.1797H17.7734ZM17.7734 18.9766H19.6094C20.1042 18.9766 20.5026 18.8099 20.8047 18.4766C21.112 18.1432 21.2656 17.7005 21.2656 17.1484C21.2656 16.5234 21.1276 16.0703 20.8516 15.7891C20.5755 15.5026 20.1536 15.3594 19.5859 15.3594H17.7734V18.9766ZM32.2109 21.8906C32.1484 23.1094 31.8047 24.0417 31.1797 24.6875C30.5599 25.3333 29.6823 25.6562 28.5469 25.6562C27.4062 25.6562 26.5 25.224 25.8281 24.3594C25.1562 23.4896 24.8203 22.3125 24.8203 20.8281V18.7656C24.8203 17.2865 25.1641 16.1172 25.8516 15.2578C26.5443 14.3984 27.487 13.9688 28.6797 13.9688C29.7786 13.9688 30.6276 14.2995 31.2266 14.9609C31.8307 15.6172 32.1589 16.5573 32.2109 17.7812H30.7656C30.7031 16.8542 30.5078 16.1927 30.1797 15.7969C29.8516 15.401 29.3516 15.2031 28.6797 15.2031C27.9036 15.2031 27.3073 15.5078 26.8906 16.1172C26.474 16.7214 26.2656 17.6094 26.2656 18.7812V20.8672C26.2656 22.0182 26.4583 22.901 26.8438 23.5156C27.2344 24.1302 27.8021 24.4375 28.5469 24.4375C29.2917 24.4375 29.8281 24.2526 30.1562 23.8828C30.4844 23.513 30.6875 22.849 30.7656 21.8906H32.2109ZM39.6094 20.2422H35.5859V24.2734H40.2734V25.5H34.1562V14.125H40.1953V15.3594H35.5859V19.0156H39.6094V20.2422Z" fill="white"/>
<path d="M28 51L16.5 40H39.5L28 51Z" fill="#006DB1"/>
</svg>
