<svg width="18" height="18" viewBox="0 0 18 18" fill="none" xmlns="http://www.w3.org/2000/svg">
<path fill-rule="evenodd" clip-rule="evenodd" d="M12.4412 7.27952C12.4412 9.10694 10.9598 10.5884 9.13241 10.5884C7.305 10.5884 5.82359 9.10694 5.82359 7.27952C5.82359 5.4521 7.305 3.97069 9.13241 3.97069C10.9598 3.97069 12.4412 5.4521 12.4412 7.27952ZM11.3824 7.27952C11.3824 8.52216 10.3751 9.52953 9.13241 9.52953C7.88977 9.52953 6.88241 8.52216 6.88241 7.27952C6.88241 6.03687 7.88977 5.02951 9.13241 5.02951C10.3751 5.02951 11.3824 6.03687 11.3824 7.27952Z" fill="white"/>
<path fill-rule="evenodd" clip-rule="evenodd" d="M9.28592 0.132872C5.32616 -0.0255188 1.98535 2.88039 1.98535 7.54424C1.98535 8.76638 2.45481 10.0019 3.11075 11.1402C3.76982 12.2838 4.64105 13.3704 5.49994 14.305C6.36046 15.2415 7.21921 16.0369 7.86201 16.5978C8.18379 16.8786 8.45239 17.1014 8.64127 17.2546C8.73574 17.3312 8.81033 17.3904 8.86173 17.4308C8.88744 17.451 8.90735 17.4665 8.92106 17.4772L8.93692 17.4894L8.94253 17.4937L8.94293 17.494C8.94293 17.494 8.94317 17.4942 9.26476 17.0737L8.94317 17.4942L9.27039 17.7444L9.59337 17.4888L9.26476 17.0737C9.59337 17.4888 9.59362 17.4886 9.59362 17.4886L9.59524 17.4873L9.5994 17.484L9.61449 17.4719C9.62749 17.4614 9.64634 17.4462 9.67064 17.4264C9.71923 17.3868 9.78966 17.3288 9.87879 17.2537C10.057 17.1036 10.3103 16.8851 10.6137 16.6091C11.2197 16.0578 12.0291 15.2739 12.8401 14.3446C13.6498 13.4168 14.4705 12.3335 15.091 11.183C15.7095 10.0362 16.1471 8.78941 16.1471 7.54424C16.1471 5.17771 15.3952 3.34832 14.1287 2.09224C12.8671 0.840973 11.1439 0.207192 9.28592 0.132872ZM9.90115 15.8259C9.64277 16.061 9.42284 16.252 9.2584 16.3917C9.08163 16.2475 8.8416 16.0473 8.55814 15.8C7.93532 15.2566 7.10656 14.4886 6.27958 13.5886C5.45098 12.6869 4.63471 11.664 4.02815 10.6115C3.41847 9.55351 3.04418 8.50592 3.04418 7.54424C3.04418 3.47275 5.89371 1.05686 9.2436 1.19085C10.8914 1.25677 12.3447 1.81416 13.3831 2.84402C14.4167 3.86907 15.0883 5.41075 15.0883 7.54424C15.0883 8.54907 14.7318 9.6185 14.1591 10.6803C13.5884 11.7385 12.8209 12.7562 12.0424 13.6484C11.2652 14.5389 10.4863 15.2936 9.90115 15.8259Z" fill="white"/>
</svg>
