<svg width="18" height="27" viewBox="0 0 18 27" fill="none" xmlns="http://www.w3.org/2000/svg">
<path fill-rule="evenodd" clip-rule="evenodd" d="M15.5512 16.9014C15.0522 16.3978 14.3872 16.1205 13.6783 16.1205H13.6761C12.9664 16.1211 12.3009 16.3995 11.8022 16.9044L10.7344 17.9856C8.16995 16.9108 6.1209 14.8598 5.04758 12.2968L6.1375 11.1932C7.15752 10.1605 7.14848 8.48905 6.11735 7.46737L3.62717 5H3.41015C1.52979 5 0 6.52979 0 8.41016C0 10.3795 0.385839 12.2903 1.14672 14.0893C1.88159 15.8268 2.9335 17.387 4.27323 18.7267C5.61297 20.0665 7.17323 21.1184 8.91062 21.8533C10.7097 22.6142 12.6204 23 14.5898 23C16.4702 23 18 21.4702 18 19.5899V19.3729L15.5512 16.9014ZM14.5898 21.9453C7.12651 21.9453 1.05469 15.8735 1.05469 8.41016C1.05469 7.18134 2.00042 6.1693 3.20231 6.06379L5.37499 8.21652C5.99367 8.82954 5.99912 9.83237 5.38709 10.452L3.81599 12.0428L3.93704 12.3599C5.10707 15.4254 7.53074 17.8687 10.5866 19.0635L10.9946 19.223L12.5526 17.6455C12.8518 17.3426 13.2511 17.1755 13.6769 17.1752H13.6782C14.1035 17.1752 14.5026 17.3415 14.802 17.6437L16.9362 19.7977C16.8307 20.9996 15.8186 21.9453 14.5898 21.9453ZM15.364 7.63609C13.664 5.93621 11.404 5 8.99998 5V6.05469C13.381 6.05469 16.9453 9.61894 16.9453 14H18C18 11.596 17.0638 9.33593 15.364 7.63609ZM8.99998 9.21875V8.16407C12.2179 8.16407 14.8359 10.782 14.8359 14H13.7812C13.7812 11.3636 11.6364 9.21875 8.99998 9.21875Z" fill="white"/>
</svg>
