<svg width="18" height="27" viewBox="0 0 18 27" fill="none" xmlns="http://www.w3.org/2000/svg">
<path d="M16.418 7.14453H1.58203C0.710789 7.14453 0 7.85455 0 8.72657V19.2735C0 20.1425 0.707625 20.8555 1.58203 20.8555H16.418C17.287 20.8555 18 20.1479 18 19.2735V8.72657C18 7.8575 17.2924 7.14453 16.418 7.14453ZM16.1995 8.19922L9.03354 15.3652L1.80559 8.19922H16.1995ZM1.05469 19.0551V8.93993L6.13403 13.9757L1.05469 19.0551ZM1.80046 19.8008L6.883 14.7183L8.66391 16.4839C8.87006 16.6883 9.20275 16.6876 9.40806 16.4823L11.1445 14.7458L16.1995 19.8008H1.80046ZM16.9453 19.055L11.8903 14L16.9453 8.94496V19.055Z" fill="white"/>
</svg>
