<svg width="18" height="18" viewBox="0 0 18 18" fill="none" xmlns="http://www.w3.org/2000/svg">
<g clip-path="url(#clip0_2377_3105)">
<path d="M15.364 2.63603C13.6641 0.936172 11.4039 0 9 0C6.59605 0 4.33589 0.936172 2.63603 2.63603C0.936172 4.33589 0 6.59605 0 9C0 11.4039 0.936172 13.6641 2.63603 15.364C4.33589 17.0638 6.59605 18 9 18C11.4039 18 13.6641 17.0638 15.364 15.364C17.0638 13.6641 18 11.4039 18 9C18 6.59605 17.0638 4.33589 15.364 2.63603ZM9 16.9453C4.61893 16.9453 1.05469 13.3811 1.05469 9C1.05469 4.61893 4.61893 1.05469 9 1.05469C13.3811 1.05469 16.9453 4.61893 16.9453 9C16.9453 13.3811 13.3811 16.9453 9 16.9453Z" fill="white"/>
<path d="M9.31585 4.56348H8.11267V9.6339H12.169V8.5677H9.31585V4.56348Z" fill="white"/>
</g>
<defs>
<clipPath id="clip0_2377_3105">
<rect width="18" height="18" fill="white"/>
</clipPath>
</defs>
</svg>
