<svg width="92" height="78" viewBox="0 0 92 78" fill="none" xmlns="http://www.w3.org/2000/svg">
<path fill-rule="evenodd" clip-rule="evenodd" d="M25.893 52.3566C27.0833 52.3163 28.2737 52.278 29.464 52.2538C30.6544 52.2297 31.8447 52.2196 33.0351 52.2135C33.4244 52.2115 33.7432 52.532 33.7432 52.921C33.7432 53.0238 33.7432 53.1225 33.7432 53.2193C33.7432 53.6103 33.4244 53.9267 33.0351 53.9267C31.8447 53.9267 30.6523 53.9267 29.464 53.9267C28.2737 53.9267 27.0833 53.9267 25.893 53.9267C25.5036 53.9267 25.1848 53.6425 25.1848 53.2918C25.1848 53.2052 25.1848 53.1125 25.1848 53.0218C25.1868 52.6731 25.5036 52.3707 25.893 52.3566ZM35.4601 52.1329C36.8583 52.1128 38.2544 52.0926 39.6506 52.0845C41.0467 52.0765 42.4429 52.0563 43.837 52.0523C44.299 52.0503 44.6682 52.403 44.6682 52.8343C44.6682 52.9472 44.6662 53.056 44.6662 53.1628C44.6642 53.5881 44.2889 53.9287 43.8269 53.9287C42.4247 53.9287 41.0245 53.9287 39.6244 53.9287C38.2242 53.9287 36.824 53.9287 35.4238 53.9287C34.9638 53.9287 34.6007 53.6042 34.6067 53.2011C34.6087 53.0983 34.6108 52.9955 34.6128 52.8928C34.6168 52.4836 35.0022 52.139 35.4601 52.1329ZM35.5348 48.8235C36.9249 48.763 38.313 48.7066 39.701 48.6662C41.0871 48.6259 42.4772 48.5957 43.8693 48.5796C44.3232 48.5735 44.6985 48.9242 44.6904 49.3576C44.6884 49.4644 44.6904 49.5732 44.6904 49.6821C44.6884 50.1134 44.3131 50.4681 43.8551 50.4701C42.463 50.4782 41.0689 50.5044 39.6768 50.5286C38.2847 50.5528 36.8886 50.585 35.5005 50.6253C35.0445 50.6394 34.6713 50.3169 34.6794 49.9078C34.6814 49.8111 34.6814 49.7083 34.6834 49.6055C34.6955 49.2024 35.0788 48.8436 35.5348 48.8235ZM35.6074 45.51C36.9894 45.4092 38.3715 45.3165 39.7535 45.25C41.1355 45.1855 42.5175 45.1391 43.8975 45.1089C44.3494 45.0988 44.7287 45.4535 44.7227 45.8869C44.7207 45.9957 44.7166 46.1025 44.7166 46.2114C44.7146 46.6427 44.3394 46.9934 43.8854 46.9994C42.4994 47.0196 41.1153 47.0639 39.7293 47.1123C38.3452 47.1607 36.9572 47.2373 35.5731 47.3179C35.1172 47.3441 34.748 47.0317 34.7601 46.6266C34.7641 46.5238 34.7641 46.421 34.7661 46.3242C34.7742 45.9151 35.1555 45.5442 35.6074 45.51ZM35.678 42.1924C37.054 42.0514 38.43 41.9284 39.8059 41.8357C41.1799 41.743 42.5538 41.6765 43.9237 41.6362C44.3757 41.6221 44.7469 41.9768 44.7469 42.4021C44.7469 42.5149 44.7489 42.6238 44.7469 42.7306C44.7409 43.1619 44.3676 43.5187 43.9116 43.5287C42.5377 43.561 41.1597 43.6235 39.7797 43.7021C38.4017 43.7807 37.0197 43.8875 35.6437 44.0044C35.1898 44.0427 34.8246 43.7504 34.8367 43.3453C34.8408 43.2385 34.8408 43.1397 34.8428 43.0329C34.8529 42.6238 35.2281 42.2388 35.678 42.1924ZM35.7567 38.885C37.1246 38.7036 38.4925 38.5424 39.8624 38.4255C41.2303 38.3086 42.6023 38.2239 43.9681 38.1715C44.418 38.1534 44.7772 38.5 44.7711 38.9334C44.7691 39.0402 44.7731 39.149 44.7711 39.2579C44.7651 39.6892 44.3999 40.052 43.952 40.0681C42.578 40.1124 41.2041 40.185 39.8342 40.2838C38.4602 40.3845 37.0883 40.5256 35.7164 40.6889C35.2644 40.7433 34.9073 40.4672 34.9134 40.052C34.9154 39.9552 34.9134 39.8464 34.9154 39.7436C34.9315 39.3324 35.3028 38.9435 35.7567 38.885ZM35.8294 35.5756C37.1952 35.3518 38.5571 35.1543 39.9149 35.0092C41.2767 34.8641 42.6406 34.7673 43.9984 34.7069C44.4443 34.6867 44.8034 35.0314 44.8034 35.4627C44.8034 35.5695 44.8074 35.6783 44.8054 35.7872C44.7973 36.2145 44.4281 36.5732 43.9823 36.5914C42.6144 36.6478 41.2525 36.7405 39.8866 36.8715C38.5208 37.0045 37.1569 37.1698 35.789 37.3734C35.3411 37.4399 34.982 37.1738 34.9901 36.7627C34.9921 36.6659 34.9941 36.5571 34.9961 36.4543C35.0082 36.0452 35.3855 35.6481 35.8294 35.5756ZM35.904 32.252C37.2578 31.992 38.6156 31.7582 39.9714 31.5889C41.3211 31.4196 42.6769 31.3007 44.0287 31.2281C44.4725 31.2039 44.8337 31.5526 44.8276 31.9839C44.8256 32.0968 44.8256 32.2056 44.8256 32.3125C44.8256 32.7397 44.4544 33.0985 44.0085 33.1227C42.6547 33.1912 41.2969 33.3 39.9451 33.4573C38.5853 33.6145 37.2255 33.8241 35.8697 34.068C35.4238 34.1486 35.0647 33.8845 35.0768 33.4794C35.0788 33.3827 35.0768 33.2799 35.0788 33.167C35.0849 32.77 35.4561 32.3386 35.904 32.252ZM35.9766 28.9385C37.3284 28.6342 38.6761 28.3641 40.0238 28.1726C41.3675 27.9811 42.7112 27.8421 44.0549 27.7574C44.4967 27.7292 44.8659 28.0759 44.8619 28.5072C44.8599 28.616 44.8538 28.7228 44.8538 28.8357C44.8538 29.267 44.4826 29.6278 44.0408 29.65C42.691 29.7225 41.3453 29.8596 39.9956 30.039C38.6458 30.2163 37.2901 30.4602 35.9423 30.7404C35.4965 30.8331 35.1414 30.5952 35.1515 30.1841C35.1535 30.0873 35.1535 29.9845 35.1555 29.8818C35.1615 29.4786 35.5308 29.0393 35.9766 28.9385ZM36.0473 25.625C37.395 25.2804 38.7366 24.9861 40.0763 24.7624C41.4159 24.5387 42.7475 24.3814 44.0872 24.2867C44.529 24.2565 44.8841 24.5991 44.8821 25.0304C44.8821 25.1393 44.8801 25.2461 44.878 25.3549C44.872 25.7862 44.5149 26.1531 44.071 26.1813C42.7334 26.2619 41.3897 26.4111 40.048 26.6187C38.7044 26.8262 37.3566 27.1044 36.013 27.4289C35.5651 27.5377 35.216 27.31 35.2221 26.9008C35.2241 26.798 35.2261 26.7013 35.2281 26.5985C35.2422 26.1813 35.6014 25.7399 36.0473 25.625ZM36.1179 22.3055C37.4595 21.9185 38.7931 21.5859 40.1267 21.34C41.4543 21.0962 42.7879 20.9228 44.1194 20.8221C44.5552 20.7898 44.9043 21.1304 44.9043 21.5557C44.9043 21.6686 44.9083 21.7774 44.9063 21.8842C44.9002 22.3115 44.5431 22.6804 44.1073 22.7106C42.7758 22.8033 41.4361 22.9666 40.1005 23.2024C38.7649 23.4362 37.4232 23.7586 36.0815 24.1194C35.6417 24.2383 35.2927 24.0166 35.2987 23.6115C35.3008 23.5087 35.2987 23.4059 35.3008 23.2991C35.3149 22.894 35.6801 22.4324 36.1179 22.3055ZM36.1965 18.992C35.7587 19.1311 35.3936 19.6027 35.3875 20.0118C35.3855 20.1086 35.3855 20.2114 35.3835 20.3202C35.3714 20.7253 35.7144 20.9249 36.1562 20.7898C37.4878 20.3807 38.8214 20.0421 40.153 19.78C41.4785 19.518 42.8101 19.3306 44.1376 19.2298C44.5714 19.1976 44.9305 18.8368 44.9305 18.4035C44.9305 18.2966 44.9325 18.1878 44.9325 18.079C44.9365 17.6476 44.5815 17.309 44.1477 17.3453C42.8282 17.4542 41.5027 17.6396 40.1812 17.9177C38.8537 18.1979 37.5281 18.5667 36.1965 18.992ZM36.2672 15.6785C37.5927 15.2149 38.9101 14.8058 40.2316 14.5075C41.5451 14.2112 42.8645 13.9935 44.1739 13.8766C44.6037 13.8383 44.9708 14.1729 44.9608 14.6062C44.9587 14.7131 44.9547 14.8219 44.9547 14.9307C44.9527 15.3681 44.5996 15.7349 44.1638 15.7732C42.8484 15.8861 41.5249 16.0957 40.2054 16.3779C38.8799 16.6621 37.5564 17.0369 36.2349 17.4783C35.7951 17.6255 35.44 17.4461 35.4601 17.0309C35.4642 16.9281 35.4642 16.8253 35.4662 16.7225C35.4723 16.3114 35.8294 15.8317 36.2672 15.6785ZM36.3378 12.3489C35.9 12.5162 35.5509 13.0241 35.5388 13.4292C35.5348 13.5421 35.5368 13.6388 35.5348 13.7416C35.5227 14.1467 35.8697 14.3281 36.3055 14.1689C37.623 13.6872 38.9465 13.274 40.2619 12.9596C41.5713 12.6472 42.8887 12.4275 44.2001 12.3005C44.6299 12.2602 44.9789 11.8853 44.985 11.458C44.987 11.3492 44.983 11.2424 44.985 11.1295C44.991 10.7022 44.638 10.3636 44.2123 10.4059C42.9069 10.5369 41.5955 10.7587 40.2901 11.0811C38.9707 11.4056 37.6532 11.843 36.3378 12.3489ZM36.4124 9.03741C37.7218 8.49524 39.0292 8.02361 40.3386 7.67292C41.6399 7.32222 42.9432 7.08036 44.2445 6.93322C44.6702 6.88485 45.0152 7.22547 45.0152 7.65679C45.0152 7.76361 45.0092 7.87245 45.0092 7.98129C45.0092 8.41261 44.6541 8.77741 44.2264 8.82377C42.923 8.96284 41.6096 9.20067 40.3083 9.53524C38.9989 9.87385 37.6855 10.3213 36.3781 10.8413C35.9383 11.0166 35.5973 10.8574 35.6094 10.4483C35.6115 10.3515 35.6115 10.2487 35.6135 10.1399C35.6236 9.73276 35.9766 9.21679 36.4124 9.03741ZM36.481 5.72392C36.0452 5.91943 35.7023 6.44144 35.6942 6.84656C35.6922 6.94935 35.6922 7.05214 35.6881 7.14888C35.672 7.57012 36.0109 7.71927 36.4447 7.53183C37.7501 6.9695 39.0534 6.4878 40.3567 6.12299C41.654 5.7602 42.9533 5.50222 44.2506 5.35106C44.6783 5.30067 45.0294 4.93989 45.0354 4.50857C45.0374 4.39974 45.0354 4.29292 45.0354 4.18408C45.0354 3.74671 44.6924 3.40609 44.2687 3.45648C42.9755 3.60764 41.6782 3.87571 40.385 4.25462C39.0837 4.63757 37.7844 5.13741 36.481 5.72392ZM36.5496 2.43059C37.8469 1.80578 39.1401 1.26764 40.4354 0.866559C41.7226 0.465474 43.0118 0.185318 44.297 0.0200469C44.7166 -0.0343717 45.0596 0.312296 45.0596 0.737567C45.0596 0.850435 45.0596 0.959272 45.0596 1.06609C45.0576 1.49741 44.7025 1.86222 44.2829 1.9126C42.9916 2.07183 41.6964 2.34392 40.4092 2.73291C39.1119 3.12594 37.8166 3.64594 36.5194 4.24454C36.0836 4.44609 35.7487 4.30904 35.7668 3.89989C35.7708 3.80315 35.7708 3.70036 35.7708 3.58749C35.7708 3.18237 36.1219 2.63819 36.5496 2.43059ZM47.1135 52.0523C48.5076 52.0563 49.9037 52.0704 51.2999 52.0845C52.694 52.0987 54.0922 52.1148 55.4903 52.139C55.9483 52.147 56.3236 52.4836 56.3296 52.8948C56.3316 52.9976 56.3337 53.1004 56.3357 53.2031C56.3417 53.6083 55.9685 53.9307 55.5105 53.9307C54.1083 53.9307 52.7081 53.9307 51.308 53.9307C49.9078 53.9307 48.5076 53.9307 47.1054 53.9307C46.6454 53.9307 46.2742 53.5901 46.2742 53.1649C46.2742 53.056 46.2742 52.9492 46.2742 52.8363C46.2701 52.403 46.6555 52.0503 47.1135 52.0523ZM47.1256 48.5876C48.5137 48.6078 49.9017 48.634 51.2918 48.6743C52.6819 48.7146 54.07 48.769 55.4601 48.8315C55.914 48.8517 56.2933 49.2044 56.2953 49.6135C56.2953 49.7103 56.2994 49.8131 56.2994 49.9159C56.3054 50.325 55.9301 50.6414 55.4802 50.6273C54.0881 50.587 52.694 50.5548 51.3019 50.5306C49.9098 50.5064 48.5177 50.4802 47.1256 50.4721C46.6676 50.4701 46.2903 50.1154 46.2903 49.6901C46.2903 49.5813 46.2883 49.4745 46.2903 49.3656C46.2944 48.9323 46.6696 48.5796 47.1256 48.5876ZM47.1377 45.1109C48.5157 45.1431 49.9017 45.1996 51.2817 45.2621C52.6597 45.3245 54.0458 45.4092 55.4237 45.516C55.8797 45.5503 56.2651 45.9211 56.2671 46.3262C56.2671 46.4331 56.263 46.5318 56.2651 46.6346C56.2711 47.0458 55.8979 47.3461 55.448 47.3199C54.0639 47.2433 52.6758 47.1687 51.2918 47.1204C49.9058 47.072 48.5197 47.0276 47.1377 47.0075C46.6837 47.0014 46.3085 46.6467 46.3145 46.2134C46.3165 46.1045 46.3145 45.9977 46.3145 45.8889C46.3105 45.4576 46.6837 45.1008 47.1377 45.1109ZM47.1559 41.6462C48.5237 41.6906 49.8997 41.7591 51.2716 41.8518C52.6456 41.9425 54.0195 42.0655 55.3975 42.2025C55.8474 42.2469 56.2247 42.6338 56.2328 43.039C56.2348 43.1478 56.2368 43.2486 56.2368 43.3514C56.2388 43.7565 55.8636 44.0548 55.4177 44.0145C54.0377 43.8915 52.6557 43.7847 51.2797 43.7061C49.9037 43.6275 48.5258 43.5751 47.1498 43.5388C46.6938 43.5267 46.3246 43.1659 46.3287 42.7346C46.3287 42.6258 46.3287 42.519 46.3287 42.4061C46.3287 41.9808 46.7039 41.6321 47.1559 41.6462ZM47.168 38.1816C48.5359 38.23 49.8977 38.3247 51.2656 38.4416C52.6294 38.5565 53.9973 38.7097 55.3693 38.8951C55.8252 38.9576 56.1904 39.3486 56.1985 39.7577C56.2005 39.8545 56.2045 39.9633 56.2045 40.0661C56.2065 40.4752 55.8394 40.7554 55.3915 40.703C54.0175 40.5397 52.6456 40.3926 51.2737 40.2938C49.9017 40.1951 48.5298 40.1165 47.1599 40.0721C46.708 40.058 46.3448 39.6932 46.3448 39.2619C46.3448 39.1531 46.3408 39.0462 46.3428 38.9374C46.3488 38.5061 46.7201 38.1675 47.168 38.1816ZM47.1861 34.719C48.5419 34.7835 49.9058 34.8802 51.2615 35.0273C52.6214 35.1725 53.9792 35.3639 55.337 35.5937C55.7889 35.6703 56.1541 36.0693 56.1601 36.4785C56.1622 36.5752 56.1622 36.678 56.1642 36.7869C56.1723 37.192 55.8051 37.452 55.3572 37.3855C53.9893 37.1819 52.6214 37.0126 51.2595 36.8836C49.8977 36.7546 48.5338 36.6579 47.168 36.5974C46.7201 36.5773 46.3589 36.2245 46.3589 35.7993C46.3589 35.6904 46.3549 35.5836 46.3569 35.4748C46.371 35.0414 46.7402 34.6968 47.1861 34.719ZM47.1982 31.2422C48.548 31.3188 49.8977 31.4458 51.2494 31.6151C52.6032 31.7844 53.957 32.0142 55.3087 32.2782C55.7526 32.3648 56.1198 32.7901 56.1218 33.1912C56.1218 33.298 56.1299 33.4008 56.1299 33.4996C56.1359 33.9047 55.7708 34.1627 55.3309 34.0821C53.9731 33.8382 52.6133 33.6366 51.2535 33.4774C49.9017 33.3182 48.5459 33.2114 47.1901 33.1368C46.7443 33.1126 46.3791 32.7538 46.3811 32.3266C46.3811 32.2177 46.3912 32.1109 46.3892 31.998C46.3872 31.5667 46.7564 31.218 47.1982 31.2422ZM47.2083 27.7776C48.552 27.8662 49.8977 27.9993 51.2394 28.1988C52.5851 28.3983 53.9308 28.6624 55.2744 28.9707C55.7183 29.0715 56.0956 29.5049 56.0956 29.916C56.0956 30.0188 56.0936 30.1155 56.0956 30.2183C56.1016 30.6235 55.7344 30.8673 55.2966 30.7746C53.9449 30.4904 52.5911 30.2466 51.2434 30.0631C49.8977 29.8797 48.5459 29.7548 47.2063 29.6701C46.7644 29.6419 46.3972 29.2811 46.4073 28.8559C46.4094 28.743 46.4053 28.6342 46.4053 28.5273C46.4053 28.092 46.7665 27.7493 47.2083 27.7776ZM47.2224 24.3129C48.554 24.4137 49.8957 24.5689 51.2313 24.7926C52.5689 25.0163 53.9086 25.3187 55.2523 25.6673C55.6961 25.7822 56.0532 26.2236 56.0613 26.6328C56.0633 26.7355 56.0613 26.8383 56.0613 26.9351C56.0633 27.3442 55.7102 27.576 55.2724 27.4692C53.9247 27.1427 52.579 26.8625 51.2373 26.6489C49.8977 26.4352 48.558 26.2982 47.2204 26.2014C46.7806 26.1692 46.4255 25.8084 46.4255 25.3751C46.4255 25.2662 46.4215 25.1594 46.4235 25.0506C46.4255 24.6273 46.7786 24.2807 47.2224 24.3129ZM47.2305 20.8442C46.7947 20.808 46.4396 21.1526 46.4356 21.5779C46.4356 21.6907 46.4356 21.7996 46.4356 21.9064C46.4376 22.3317 46.7887 22.6965 47.2285 22.7328C48.558 22.8376 49.8916 23.0089 51.2252 23.2447C52.5608 23.4825 53.8985 23.7949 55.2401 24.1618C55.6759 24.2807 56.031 24.065 56.029 23.6538C56.029 23.5571 56.025 23.4543 56.023 23.3414C56.0169 22.9484 55.6618 22.4808 55.218 22.3538C53.8844 21.9689 52.5508 21.6303 51.2192 21.3763C49.8916 21.1244 48.5601 20.9571 47.2305 20.8442ZM47.2527 17.3735C48.5701 17.4985 49.8916 17.692 51.2131 17.9721C52.5366 18.2523 53.8581 18.6272 55.1857 19.0565C55.6215 19.1976 55.9826 19.6611 55.9887 20.0662C55.9907 20.169 55.9907 20.2718 55.9927 20.3746C55.9987 20.7797 55.6437 20.9773 55.2058 20.8442C53.8743 20.4371 52.5407 20.0924 51.2131 19.8304C49.8876 19.5684 48.5601 19.381 47.2366 19.2641C46.8048 19.2258 46.4537 18.865 46.4578 18.4337C46.4578 18.3269 46.4578 18.218 46.4578 18.1092C46.4578 17.6698 46.8209 17.3332 47.2527 17.3735ZM47.2668 13.9089C46.8351 13.8645 46.4699 14.2011 46.4719 14.6325C46.4719 14.7393 46.4719 14.8481 46.4719 14.961C46.4679 15.3923 46.823 15.749 47.2567 15.7914C48.5722 15.9204 49.8916 16.132 51.2111 16.4222C52.5326 16.7145 53.8521 17.1014 55.1756 17.5449C55.6094 17.69 55.9644 17.5066 55.9584 17.0974C55.9564 16.9946 55.9544 16.8878 55.9544 16.789C55.9544 16.3779 55.5932 15.9022 55.1574 15.747C53.838 15.2754 52.5225 14.8703 51.203 14.5659C49.8896 14.2636 48.5701 14.0419 47.2668 13.9089ZM47.2729 10.4402C48.5782 10.5873 49.8876 10.8252 51.1889 11.1517C52.5003 11.4822 53.8117 11.9196 55.1272 12.4315C55.563 12.6008 55.91 13.1067 55.914 13.5058C55.914 13.6146 55.9201 13.7154 55.9201 13.8182C55.9261 14.2173 55.5811 14.4007 55.1494 14.2394C53.8299 13.7476 52.5165 13.3264 51.197 13.01C49.8916 12.6955 48.5762 12.4819 47.2648 12.3348C46.833 12.2864 46.486 11.9196 46.486 11.4923C46.486 11.3835 46.482 11.2766 46.484 11.1638C46.4901 10.7365 46.8472 10.3918 47.2729 10.4402ZM47.2809 6.97555C46.8573 6.92315 46.5022 7.26175 46.4981 7.69307C46.4981 7.80191 46.5001 7.90873 46.5001 8.01757C46.5001 8.44284 46.8472 8.80966 47.2729 8.86005C48.5802 9.01121 49.8816 9.26113 51.1849 9.60377C52.4923 9.95043 53.7996 10.408 55.113 10.936C55.5408 11.1093 55.8898 10.9421 55.8817 10.543C55.8797 10.4342 55.8858 10.3314 55.8837 10.2346C55.8757 9.81943 55.5266 9.31555 55.0969 9.13416C53.7895 8.57788 52.4801 8.11028 51.1768 7.74749C49.8815 7.38671 48.5782 7.13276 47.2809 6.97555ZM47.291 3.5109C48.5823 3.68625 49.8775 3.95431 51.1667 4.33726C52.464 4.72222 53.7653 5.23819 55.0646 5.82671C55.4944 6.0202 55.8373 6.5402 55.8434 6.94935C55.8454 7.05214 55.8474 7.14888 55.8474 7.25167C55.8515 7.66687 55.5065 7.82005 55.0808 7.63462C53.7754 7.06423 52.4741 6.57245 51.1708 6.19958C49.8775 5.82873 48.5823 5.56671 47.287 5.40144C46.8633 5.34702 46.5143 4.97617 46.5183 4.54284C46.5183 4.43602 46.5143 4.32718 46.5163 4.21834C46.5244 3.78501 46.8694 3.45447 47.291 3.5109ZM47.3072 0.056326C46.8875 -0.00615459 46.5425 0.332451 46.5425 0.757722C46.5425 0.87059 46.5365 0.979427 46.5344 1.08625C46.5244 1.51757 46.8794 1.89043 47.3011 1.94888C48.5863 2.13229 49.8775 2.4064 51.1667 2.80144C52.46 3.1985 53.7532 3.73059 55.0505 4.34532C55.4762 4.54687 55.8273 4.39974 55.8192 3.98857C55.8172 3.88578 55.8152 3.78299 55.8131 3.6802C55.8071 3.27509 55.4621 2.74299 55.0404 2.5354C53.7472 1.90051 52.4539 1.36036 51.1647 0.943148C49.8775 0.534001 48.5883 0.247799 47.3072 0.056326ZM74.3887 52.5945C73.4626 52.536 72.5345 52.4937 71.6085 52.4675C70.6844 52.4433 69.7564 52.4352 68.8303 52.4312C68.5277 52.4312 68.2775 52.7114 68.2775 53.052C68.2775 53.1387 68.2775 53.2273 68.2775 53.312C68.2775 53.6526 68.5277 53.9287 68.8344 53.9287C69.7705 53.9287 70.7066 53.9287 71.6408 53.9287C72.5769 53.9287 73.513 53.9287 74.4472 53.9287C74.7538 53.9287 74.9899 53.6869 74.9758 53.3926C74.9717 53.32 74.9677 53.2435 74.9637 53.1689C74.9515 52.8746 74.6913 52.6126 74.3887 52.5945ZM74.2757 50.1376C73.3638 49.9743 72.4538 49.8473 71.5459 49.7788C70.6401 49.7103 69.7301 49.6881 68.8202 49.6821C68.5237 49.68 68.2795 49.9642 68.2795 50.3049C68.2795 50.3915 68.2795 50.4782 68.2795 50.5648C68.2795 50.9055 68.5257 51.1776 68.8283 51.1796C69.7463 51.1816 70.6663 51.1957 71.5822 51.2421C72.5002 51.2884 73.4202 51.369 74.3382 51.4738C74.6409 51.5081 74.8729 51.3045 74.8587 51.0103C74.8547 50.9357 74.8507 50.8611 74.8466 50.7845C74.8305 50.4883 74.5743 50.19 74.2757 50.1376ZM74.1627 47.6766C73.2689 47.4086 72.3772 47.201 71.4814 47.0841C70.5957 46.9692 69.7019 46.9349 68.8101 46.9269C68.5176 46.9228 68.2795 47.2111 68.2795 47.5517C68.2795 47.6383 68.2795 47.727 68.2795 47.8117C68.2795 48.1523 68.5216 48.4224 68.8162 48.4244C69.716 48.4304 70.6179 48.4587 71.5157 48.5514C72.4175 48.6441 73.3214 48.8073 74.2232 49.0149C74.5218 49.0835 74.7498 48.9162 74.7357 48.6219C74.7316 48.5493 74.7276 48.4728 74.7236 48.3982C74.7094 48.1019 74.4593 47.7653 74.1627 47.6766ZM74.0477 45.2197C73.1721 44.8489 72.2965 44.5586 71.4168 44.3954C70.5513 44.2341 69.6716 44.1898 68.8001 44.1777C68.5136 44.1737 68.2775 44.4639 68.2775 44.8025C68.2775 44.8892 68.2775 44.9779 68.2775 45.0625C68.2775 45.4031 68.5156 45.6692 68.8041 45.6732C69.6858 45.6833 70.5735 45.7236 71.4511 45.8607C72.3368 45.9977 73.2245 46.2436 74.1082 46.558C74.4048 46.6628 74.6267 46.5338 74.6126 46.2376C74.6086 46.163 74.6045 46.0884 74.6005 46.0118C74.5884 45.7155 74.3443 45.3447 74.0477 45.2197ZM73.9347 42.7588C74.2293 42.92 74.4673 43.3292 74.4815 43.6255C74.4855 43.7 74.4895 43.7766 74.4936 43.8492C74.5077 44.1455 74.2918 44.2382 73.9973 44.0971C73.1297 43.6799 72.2622 43.3534 71.3906 43.1679C70.5351 42.9866 69.6636 42.9321 68.798 42.918C68.5136 42.914 68.2816 42.65 68.2816 42.3114C68.2816 42.2267 68.2816 42.138 68.2816 42.0514C68.2816 41.7107 68.5136 41.4165 68.794 41.4225C69.6494 41.4386 70.513 41.4991 71.3583 41.7027C72.2198 41.9123 73.0773 42.2852 73.9347 42.7588ZM73.8217 40.3019C72.9824 39.7255 72.1451 39.272 71.2917 39.014C70.4686 38.7641 69.6192 38.6915 68.7819 38.6714C68.5055 38.6653 68.2795 38.9616 68.2795 39.3022C68.2795 39.3889 68.2795 39.4776 68.2795 39.5622C68.2795 39.9028 68.5075 40.1608 68.7859 40.1669C69.6333 40.183 70.4908 40.2535 71.326 40.4793C72.1855 40.7111 73.0349 41.1202 73.8843 41.6402C74.1768 41.8196 74.3866 41.7611 74.3725 41.4649C74.3685 41.3903 74.3644 41.3157 74.3604 41.2411C74.3443 40.9428 74.1143 40.5014 73.8217 40.3019ZM73.7087 37.843C73.9973 38.0808 74.2232 38.5585 74.2394 38.8528C74.2434 38.9293 74.2474 39.0039 74.2515 39.0785C74.2656 39.3728 74.0618 39.3969 73.7713 39.1793C72.9401 38.5565 72.1108 38.0647 71.2635 37.7845C70.4524 37.5145 69.6071 37.4338 68.7779 37.4137C68.5055 37.4076 68.2816 37.1517 68.2816 36.8111C68.2816 36.7264 68.2816 36.6397 68.2816 36.5511C68.2816 36.2104 68.5035 35.9081 68.7718 35.9162C69.593 35.9404 70.4302 36.0311 71.2292 36.3233C72.0685 36.6297 72.8856 37.1638 73.7087 37.843ZM73.5958 35.3841C72.7908 34.6061 71.9938 33.9873 71.1646 33.6286C70.3879 33.294 69.5647 33.1872 68.7617 33.161C68.4974 33.1529 68.2816 33.4593 68.2816 33.7999C68.2816 33.8866 68.2816 33.9732 68.2816 34.0599C68.2816 34.4005 68.5015 34.6524 68.7678 34.6605C69.5808 34.6847 70.4121 34.7835 71.2009 35.0938C72.0382 35.4244 72.8472 35.9988 73.6603 36.7204C73.9488 36.9763 74.1466 36.9864 74.1324 36.6921C74.1284 36.6176 74.1244 36.543 74.1203 36.4684C74.1022 36.1721 73.8802 35.6602 73.5958 35.3841ZM17.5565 52.5945C18.4825 52.536 19.4106 52.4937 20.3366 52.4675C21.2607 52.4433 22.1887 52.4352 23.1148 52.4312C23.4174 52.4312 23.6676 52.7114 23.6676 53.052C23.6676 53.1387 23.6676 53.2273 23.6676 53.312C23.6676 53.6526 23.4174 53.9287 23.1108 53.9287C22.1746 53.9287 21.2385 53.9287 20.3044 53.9287C19.3682 53.9287 18.4321 53.9287 17.498 53.9287C17.1913 53.9287 16.9552 53.6869 16.9694 53.3926C16.9734 53.32 16.9774 53.2435 16.9815 53.1689C16.9936 52.8746 17.2538 52.6126 17.5565 52.5945ZM17.6694 50.1376C18.5814 49.9743 19.4913 49.8473 20.3992 49.7788C21.3051 49.7103 22.215 49.6881 23.1249 49.6821C23.4215 49.68 23.6656 49.9642 23.6656 50.3049C23.6656 50.3915 23.6656 50.4782 23.6656 50.5648C23.6656 50.9055 23.4194 51.1776 23.1168 51.1796C22.1988 51.1816 21.2788 51.1957 20.3629 51.2421C19.4449 51.2884 18.5249 51.369 17.6069 51.4738C17.3043 51.5081 17.0723 51.3045 17.0864 51.0103C17.0904 50.9357 17.0944 50.8611 17.0985 50.7845C17.1146 50.4883 17.3708 50.19 17.6694 50.1376ZM17.7824 47.6766C18.6762 47.4086 19.5679 47.201 20.4637 47.0841C21.3494 46.9692 22.2432 46.9349 23.135 46.9269C23.4275 46.9228 23.6656 47.2111 23.6656 47.5517C23.6656 47.6383 23.6656 47.727 23.6656 47.8117C23.6656 48.1523 23.4235 48.4224 23.1289 48.4244C22.2291 48.4304 21.3273 48.4587 20.4294 48.5514C19.5276 48.6441 18.6237 48.8073 17.7219 49.0149C17.4233 49.0835 17.1953 48.9162 17.2094 48.6219C17.2135 48.5493 17.2175 48.4728 17.2215 48.3982C17.2357 48.1019 17.4858 47.7653 17.7824 47.6766ZM17.8974 45.2197C18.773 44.8489 19.6487 44.5586 20.5283 44.3954C21.3938 44.2341 22.2735 44.1898 23.1451 44.1777C23.4315 44.1737 23.6676 44.4639 23.6676 44.8025C23.6676 44.8892 23.6676 44.9779 23.6676 45.0625C23.6676 45.4031 23.4295 45.6692 23.141 45.6732C22.2594 45.6833 21.3716 45.7236 20.494 45.8607C19.6083 45.9977 18.7206 46.2436 17.8369 46.558C17.5403 46.6628 17.3184 46.5338 17.3325 46.2376C17.3365 46.163 17.3406 46.0884 17.3446 46.0118C17.3567 45.7155 17.6029 45.3447 17.8974 45.2197ZM18.0104 42.7588C17.7158 42.92 17.4778 43.3292 17.4637 43.6255C17.4596 43.7 17.4556 43.7766 17.4515 43.8492C17.4374 44.1455 17.6533 44.2382 17.9479 44.0971C18.8154 43.6799 19.683 43.3534 20.5545 43.1679C21.41 42.9866 22.2815 42.9321 23.1471 42.918C23.4316 42.914 23.6636 42.65 23.6636 42.3114C23.6636 42.2267 23.6636 42.138 23.6636 42.0514C23.6636 41.7107 23.4315 41.4165 23.1511 41.4225C22.2957 41.4386 21.4322 41.4991 20.5868 41.7027C19.7253 41.9123 18.8679 42.2852 18.0104 42.7588ZM18.1234 40.3019C18.9627 39.7255 19.8 39.272 20.6534 39.014C21.4765 38.7641 22.3259 38.6915 23.1632 38.6714C23.4396 38.6653 23.6656 38.9616 23.6656 39.3022C23.6656 39.3889 23.6656 39.4776 23.6656 39.5622C23.6656 39.9028 23.4376 40.1608 23.1592 40.1669C22.3118 40.183 21.4544 40.2535 20.6191 40.4793C19.7596 40.7111 18.9102 41.1202 18.0608 41.6402C17.7683 41.8196 17.5585 41.7611 17.5726 41.4649C17.5766 41.3903 17.5807 41.3157 17.5847 41.2411C17.6008 40.9428 17.8308 40.5014 18.1234 40.3019ZM18.2384 37.843C17.9499 38.0808 17.7239 38.5585 17.7078 38.8528C17.7037 38.9293 17.6997 39.0039 17.6957 39.0785C17.6815 39.3728 17.8853 39.3969 18.1758 39.1793C19.0071 38.5565 19.8363 38.0647 20.6837 37.7845C21.4947 37.5145 22.3401 37.4338 23.1693 37.4137C23.4416 37.4076 23.6656 37.1517 23.6656 36.8111C23.6656 36.7264 23.6656 36.6397 23.6656 36.5511C23.6656 36.2104 23.4437 35.9081 23.1753 35.9162C22.3542 35.9404 21.5169 36.0311 20.718 36.3233C19.8766 36.6297 19.0595 37.1638 18.2384 37.843ZM18.3494 35.3841C19.1544 34.6061 19.9513 33.9873 20.7805 33.6286C21.5572 33.294 22.3804 33.1872 23.1834 33.161C23.4477 33.1529 23.6636 33.4593 23.6636 33.7999C23.6636 33.8866 23.6636 33.9732 23.6636 34.0599C23.6636 34.4005 23.4437 34.6524 23.1773 34.6605C22.3643 34.6847 21.533 34.7835 20.7442 35.0938C19.9069 35.4244 19.0979 35.9988 18.2848 36.7204C17.9963 36.9763 17.7986 36.9864 17.8127 36.6921C17.8167 36.6176 17.8208 36.543 17.8248 36.4684C17.843 36.1721 18.0649 35.6602 18.3494 35.3841ZM66.0522 52.3566C64.8618 52.3163 63.6715 52.278 62.4811 52.2538C61.2908 52.2297 60.1004 52.2196 58.9101 52.2135C58.5207 52.2115 58.2019 52.532 58.2019 52.921C58.2019 53.0238 58.2019 53.1225 58.2019 53.2193C58.2019 53.6103 58.5207 53.9267 58.9101 53.9267C60.1004 53.9267 61.2928 53.9267 62.4811 53.9267C63.6715 53.9267 64.8618 53.9267 66.0522 53.9267C66.4416 53.9267 66.7603 53.6425 66.7603 53.2918C66.7603 53.2052 66.7603 53.1125 66.7603 53.0218C66.7603 52.6731 66.4416 52.3707 66.0522 52.3566ZM66.0522 49.4624C64.8618 49.3414 63.6715 49.2407 62.4811 49.1742C61.2928 49.1076 60.1004 49.0774 58.9101 49.0573C58.5207 49.0512 58.2019 49.3676 58.2019 49.7627C58.2019 49.8614 58.2019 49.9602 58.2019 50.059C58.2019 50.454 58.5207 50.7745 58.9101 50.7785C60.1004 50.7926 61.2928 50.8087 62.4811 50.8511C63.6715 50.8954 64.8618 50.9579 66.0522 51.0365C66.4416 51.0627 66.7603 50.8027 66.7603 50.4479C66.7603 50.3613 66.7603 50.2686 66.7603 50.1819C66.7603 49.8272 66.4416 49.5027 66.0522 49.4624ZM66.0522 46.5641C64.8638 46.3645 63.6715 46.2013 62.4811 46.0924C61.2928 45.9856 60.1004 45.9292 58.9101 45.899C58.5207 45.8889 58.2019 46.2053 58.2019 46.6004C58.2019 46.6991 58.2019 46.7979 58.2019 46.8966C58.2019 47.2876 58.5207 47.6101 58.9101 47.6202C60.1004 47.6484 61.2928 47.6847 62.4811 47.7693C63.6715 47.856 64.8638 47.985 66.0522 48.1422C66.4416 48.1926 66.7603 47.9568 66.7603 47.6061C66.7603 47.5174 66.7603 47.4267 66.7603 47.34C66.7603 46.9853 66.4416 46.6306 66.0522 46.5641ZM66.0522 43.6678C64.8638 43.3897 63.6735 43.1599 62.4811 43.0107C61.2948 42.8616 60.1004 42.787 58.9101 42.7407C58.5207 42.7245 58.2019 43.047 58.2019 43.438C58.2019 43.5408 58.2019 43.6396 58.2019 43.7363C58.2019 44.1273 58.5207 44.4498 58.9101 44.4619C60.1004 44.5002 61.2948 44.5607 62.4811 44.6876C63.6735 44.8146 64.8638 45.0061 66.0522 45.2419C66.4436 45.3205 66.7603 45.1109 66.7603 44.7602C66.7603 44.6715 66.7603 44.5808 66.7603 44.4901C66.7603 44.1414 66.4436 43.7585 66.0522 43.6678ZM66.0522 40.7735C64.8659 40.4168 63.6755 40.1205 62.4811 39.927C61.2968 39.7335 60.1004 39.6489 58.9101 39.5884C58.5207 39.5683 58.2019 39.8887 58.2019 40.2777C58.2019 40.3805 58.2019 40.4793 58.2019 40.576C58.2019 40.967 58.5227 41.2895 58.9101 41.3056C60.1004 41.358 61.2968 41.4366 62.4811 41.6039C63.6755 41.7752 64.8659 42.0352 66.0522 42.3476C66.4436 42.4504 66.7603 42.267 66.7603 41.9163C66.7603 41.8297 66.7603 41.7369 66.7603 41.6462C66.7603 41.2976 66.4436 40.8904 66.0522 40.7735ZM66.0522 37.8752C66.4456 38.0183 66.7603 38.4557 66.7603 38.8064C66.7603 38.8951 66.7603 38.9858 66.7603 39.0724C66.7603 39.4272 66.4456 39.5804 66.0522 39.4514C64.8659 39.0624 63.6775 38.7338 62.4811 38.5202C61.2968 38.3106 60.1004 38.2078 58.9101 38.1453C58.5207 38.1252 58.2019 37.8067 58.2019 37.4117C58.2019 37.3129 58.2019 37.2142 58.2019 37.1154C58.2019 36.7244 58.5227 36.4059 58.9101 36.4301C60.1004 36.5027 61.2988 36.6115 62.4811 36.8453C63.6775 37.0831 64.8659 37.4439 66.0522 37.8752ZM66.0522 34.981C64.8679 34.4731 63.6795 34.0458 62.4811 33.7656C61.2988 33.4895 60.1004 33.3585 58.9101 33.2738C58.5207 33.2456 58.2019 33.5621 58.2019 33.9571C58.2019 34.0559 58.2019 34.1546 58.2019 34.2534C58.2019 34.6444 58.5227 34.9648 58.9101 34.9911C60.1004 35.0676 61.2988 35.1926 62.4811 35.4445C63.6795 35.7005 64.8679 36.0935 66.0522 36.5611C66.4456 36.7163 66.7603 36.5833 66.7603 36.2326C66.7603 36.1439 66.7603 36.0532 66.7603 35.9666C66.7603 35.6098 66.4456 35.1503 66.0522 34.981ZM66.0522 32.0827C66.4496 32.2802 66.7603 32.7659 66.7603 33.1146C66.7603 33.2053 66.7603 33.296 66.7603 33.3847C66.7603 33.7354 66.4496 33.8402 66.0522 33.6588C64.8699 33.1146 63.6816 32.6571 62.4811 32.3588C61.3008 32.0666 60.1004 31.9174 58.9101 31.8287C58.5207 31.8005 58.2019 31.478 58.2019 31.087C58.2019 30.9883 58.2019 30.8895 58.2019 30.7887C58.2019 30.3977 58.5227 30.0793 58.9101 30.1095C60.1024 30.2062 61.3029 30.3635 62.4811 30.6799C63.6816 31.0044 64.8699 31.4962 66.0522 32.0827ZM66.0522 29.1864C64.8719 28.5233 63.6876 27.965 62.4811 27.5982C61.3049 27.2414 60.1004 27.0661 58.9101 26.9552C58.5207 26.919 58.2019 27.2394 58.2019 27.6304C58.2019 27.7332 58.2019 27.832 58.2019 27.9287C58.2019 28.3197 58.5227 28.6442 58.9101 28.6765C60.1024 28.7773 61.3049 28.9385 62.4811 29.2751C63.6856 29.6177 64.8719 30.1418 66.0522 30.7645C66.4496 30.9742 66.7603 30.8915 66.7603 30.5428C66.7603 30.4521 66.7603 30.3635 66.7603 30.2728C66.7603 29.9241 66.4516 29.4101 66.0522 29.1864ZM66.0522 26.2921C66.4537 26.5441 66.7603 27.0802 66.7603 27.4309C66.7603 27.5196 66.7603 27.6103 66.7603 27.6969C66.7603 28.0517 66.4516 28.1061 66.0522 27.8683C64.8719 27.1669 63.6876 26.5804 62.4811 26.1934C61.3069 25.8165 60.1004 25.6331 58.9101 25.5182C58.5207 25.4799 58.2019 25.1614 58.2019 24.7664C58.2019 24.6676 58.2019 24.5689 58.2019 24.4701C58.2019 24.0791 58.5227 23.7586 58.9101 23.799C60.1024 23.9199 61.3089 24.1214 62.4811 24.5185C63.6896 24.9276 64.8739 25.5524 66.0522 26.2921ZM66.0522 23.3979C64.8739 22.5816 63.6937 21.8923 62.4811 21.4388C61.3109 21.0014 60.1024 20.7777 58.9101 20.6427C58.5227 20.5983 58.2019 20.9168 58.2019 21.3098C58.2019 21.4086 58.2019 21.5073 58.2019 21.6061C58.2019 22.0011 58.5227 22.3196 58.9101 22.3619C60.1024 22.4909 61.3109 22.6965 62.4811 23.1137C63.6916 23.545 64.8739 24.196 66.0522 24.972C66.4537 25.236 66.7603 25.2098 66.7603 24.8551C66.7603 24.7644 66.7603 24.6757 66.7603 24.589C66.7603 24.2343 66.4537 23.676 66.0522 23.3979ZM25.893 49.4624C27.0813 49.3414 28.2737 49.2407 29.464 49.1742C30.6523 49.1076 31.8447 49.0774 33.0351 49.0573C33.4244 49.0512 33.7432 49.3676 33.7432 49.7627C33.7432 49.8614 33.7432 49.9602 33.7432 50.059C33.7432 50.454 33.4244 50.7745 33.0351 50.7785C31.8447 50.7926 30.6523 50.8087 29.464 50.8511C28.2737 50.8954 27.0813 50.9579 25.893 51.0365C25.5036 51.0627 25.1848 50.8027 25.1848 50.4479C25.1848 50.3613 25.1848 50.2686 25.1848 50.1819C25.1868 49.8272 25.5036 49.5027 25.893 49.4624ZM25.893 46.5641C27.0813 46.3645 28.2737 46.2013 29.464 46.0924C30.6523 45.9856 31.8447 45.9292 33.0351 45.899C33.4244 45.8889 33.7432 46.2053 33.7432 46.6004C33.7432 46.6991 33.7432 46.7979 33.7432 46.8966C33.7432 47.2876 33.4244 47.6101 33.0351 47.6202C31.8447 47.6484 30.6523 47.6847 29.464 47.7693C28.2737 47.856 27.0813 47.985 25.893 48.1422C25.5036 48.1926 25.1848 47.9568 25.1848 47.6061C25.1848 47.5174 25.1848 47.4267 25.1848 47.34C25.1868 46.9853 25.5036 46.6306 25.893 46.5641ZM25.893 43.6678C27.0813 43.3897 28.2716 43.1599 29.464 43.0107C30.6503 42.8616 31.8447 42.787 33.0351 42.7407C33.4244 42.7245 33.7432 43.047 33.7432 43.438C33.7432 43.5408 33.7432 43.6396 33.7432 43.7363C33.7432 44.1273 33.4244 44.4498 33.0351 44.4619C31.8447 44.5002 30.6503 44.5607 29.464 44.6876C28.2716 44.8146 27.0813 45.0061 25.893 45.2419C25.5015 45.3205 25.1848 45.1109 25.1848 44.7602C25.1848 44.6715 25.1848 44.5808 25.1848 44.4901C25.1868 44.1414 25.5036 43.7585 25.893 43.6678ZM25.893 40.7735C27.0793 40.4168 28.2696 40.1205 29.464 39.927C30.6483 39.7335 31.8447 39.6489 33.0351 39.5884C33.4244 39.5683 33.7432 39.8887 33.7432 40.2777C33.7432 40.3805 33.7432 40.4793 33.7432 40.576C33.7432 40.967 33.4244 41.2895 33.0351 41.3056C31.8447 41.358 30.6483 41.4366 29.464 41.6039C28.2696 41.7752 27.0793 42.0352 25.893 42.3476C25.5015 42.4504 25.1848 42.267 25.1848 41.9163C25.1848 41.8297 25.1848 41.7369 25.1848 41.6462C25.1868 41.2976 25.5015 40.8904 25.893 40.7735ZM25.893 37.8752C25.4995 38.0183 25.1848 38.4557 25.1848 38.8064C25.1848 38.8951 25.1848 38.9858 25.1848 39.0724C25.1848 39.4272 25.4995 39.5804 25.893 39.4514C27.0793 39.0624 28.2676 38.7338 29.464 38.5202C30.6483 38.3106 31.8447 38.2078 33.0351 38.1453C33.4244 38.1252 33.7432 37.8067 33.7432 37.4117C33.7432 37.3129 33.7432 37.2142 33.7432 37.1154C33.7432 36.7244 33.4224 36.4059 33.0351 36.4301C31.8447 36.5027 30.6463 36.6115 29.464 36.8453C28.2676 37.0831 27.0793 37.4439 25.893 37.8752ZM25.893 34.981C27.0772 34.4731 28.2656 34.0458 29.464 33.7656C30.6463 33.4895 31.8447 33.3585 33.0351 33.2738C33.4244 33.2456 33.7432 33.5621 33.7432 33.9571C33.7432 34.0559 33.7432 34.1546 33.7432 34.2534C33.7432 34.6444 33.4224 34.9648 33.0351 34.9911C31.8447 35.0676 30.6463 35.1926 29.464 35.4445C28.2656 35.7005 27.0772 36.0935 25.893 36.5611C25.4995 36.7163 25.1848 36.5833 25.1848 36.2326C25.1848 36.1439 25.1848 36.0532 25.1848 35.9666C25.1868 35.6098 25.4995 35.1503 25.893 34.981ZM25.893 32.0827C25.4955 32.2802 25.1848 32.7659 25.1848 33.1146C25.1848 33.2053 25.1848 33.296 25.1848 33.3847C25.1848 33.7354 25.4955 33.8402 25.893 33.6588C27.0752 33.1146 28.2636 32.6571 29.464 32.3588C30.6443 32.0666 31.8447 31.9174 33.0351 31.8287C33.4244 31.8005 33.7432 31.478 33.7432 31.087C33.7432 30.9883 33.7432 30.8895 33.7432 30.7887C33.7432 30.3977 33.4224 30.0793 33.0351 30.1095C31.8427 30.2062 30.6423 30.3635 29.464 30.6799C28.2636 31.0044 27.0772 31.4962 25.893 32.0827ZM25.893 29.1864C27.0732 28.5233 28.2575 27.965 29.464 27.5982C30.6402 27.2414 31.8447 27.0661 33.0351 26.9552C33.4224 26.919 33.7432 27.2394 33.7432 27.6304C33.7432 27.7332 33.7432 27.832 33.7432 27.9287C33.7432 28.3197 33.4224 28.6442 33.0351 28.6765C31.8427 28.7773 30.6402 28.9385 29.464 29.2751C28.2595 29.6177 27.0732 30.1418 25.893 30.7645C25.4955 30.9742 25.1848 30.8915 25.1848 30.5428C25.1848 30.4521 25.1848 30.3635 25.1848 30.2728C25.1868 29.9241 25.4955 29.4101 25.893 29.1864ZM25.893 26.2921C25.4915 26.5441 25.1848 27.0802 25.1848 27.4309C25.1848 27.5196 25.1848 27.6103 25.1848 27.6969C25.1848 28.0517 25.4935 28.1061 25.893 27.8683C27.0732 27.1669 28.2575 26.5804 29.464 26.1934C30.6382 25.8165 31.8447 25.6331 33.0351 25.5182C33.4224 25.4799 33.7432 25.1614 33.7432 24.7664C33.7432 24.6676 33.7432 24.5689 33.7432 24.4701C33.7432 24.0791 33.4224 23.7586 33.0351 23.799C31.8427 23.9199 30.6362 24.1214 29.464 24.5185C28.2555 24.9276 27.0732 25.5524 25.893 26.2921ZM25.893 23.3979C27.0712 22.5816 28.2515 21.8923 29.464 21.4388C30.6342 21.0014 31.8427 20.7777 33.0351 20.6427C33.4224 20.5983 33.7432 20.9168 33.7432 21.3098C33.7432 21.4086 33.7432 21.5073 33.7432 21.6061C33.7432 22.0011 33.4224 22.3196 33.0351 22.3619C31.8427 22.4909 30.6342 22.6965 29.464 23.1137C28.2535 23.545 27.0712 24.196 25.893 24.972C25.4915 25.236 25.1848 25.2098 25.1848 24.8551C25.1848 24.7644 25.1848 24.6757 25.1848 24.589C25.1868 24.2343 25.4915 23.676 25.893 23.3979ZM25.893 20.4976C25.4894 20.8039 25.1848 21.3924 25.1848 21.7411C25.1848 21.8318 25.1848 21.9205 25.1848 22.0112C25.1848 22.3619 25.4894 22.37 25.893 22.0777C27.0692 21.2231 28.2494 20.5097 29.464 20.034C30.6322 19.5765 31.8427 19.3487 33.0351 19.2056C33.4224 19.1593 33.7432 18.8368 33.7432 18.4458C33.7432 18.347 33.7432 18.2483 33.7432 18.1475C33.7432 17.7565 33.4224 17.434 33.0351 17.4824C31.8427 17.6315 30.6281 17.8714 29.464 18.3511C28.2474 18.8509 27.0692 19.6027 25.893 20.4976ZM66.0522 20.4976C66.4557 20.8039 66.7603 21.3924 66.7603 21.7411C66.7603 21.8318 66.7603 21.9205 66.7603 22.0112C66.7603 22.3619 66.4557 22.37 66.0522 22.0777C64.8759 21.2231 63.6957 20.5097 62.4811 20.034C61.313 19.5765 60.1024 19.3487 58.9101 19.2056C58.5227 19.1593 58.2019 18.8368 58.2019 18.4458C58.2019 18.347 58.2019 18.2483 58.2019 18.1475C58.2019 17.7565 58.5227 17.434 58.9101 17.4824C60.1024 17.6315 61.317 17.8714 62.4811 18.3511C63.6977 18.8509 64.8759 19.6027 66.0522 20.4976Z" fill="white"/>
<path fill-rule="evenodd" clip-rule="evenodd" d="M86.9018 66.2092V66.1931H91.8972V67.483H90.0794V74.6824H88.7055V67.483H86.9038V66.3644L86.2562 68.785C86.1553 69.1518 86.012 69.5166 85.8022 69.8351C85.6912 70.0044 85.5581 70.1434 85.4027 70.2523C85.6085 70.3651 85.782 70.5244 85.9071 70.742C86.0988 71.0746 86.236 71.4394 86.3389 71.8103L87.0934 74.6824H85.7054L85.0759 72.165C85.0255 71.9594 84.9528 71.7437 84.8419 71.5644C84.7612 71.4354 84.6623 71.3104 84.5372 71.2217C84.4262 71.1431 84.3012 71.0887 84.168 71.0625C84.0147 71.0303 83.8573 71.0162 83.7019 71.0162H82.909V74.6824H81.5351V66.2092H82.909V69.7927H83.5365C83.6757 69.7927 83.8149 69.7786 83.9501 69.7544C84.0873 69.7303 84.2164 69.6799 84.3375 69.6113C84.4706 69.5348 84.5796 69.4259 84.6704 69.305C84.7894 69.1458 84.864 68.9341 84.9125 68.7406L85.5944 66.2112H86.9018V66.2092ZM39.891 66.9972C40.0262 66.8219 40.1876 66.6647 40.3792 66.5317C40.8412 66.2072 41.3981 66.0943 41.9569 66.0943C42.5824 66.0943 43.2421 66.2132 43.7364 66.6244C44.269 67.0658 44.3901 67.8216 44.3901 68.4746V74.6844H42.998V74.249C42.8285 74.4082 42.6328 74.5393 42.4069 74.6179C42.076 74.7327 41.731 74.7851 41.3799 74.7851C41.045 74.7851 40.702 74.7287 40.4054 74.5634C40.1492 74.4203 39.9333 74.2289 39.7659 73.987C39.5984 73.7451 39.4834 73.4751 39.4169 73.1909C39.3462 72.8946 39.3119 72.5923 39.3119 72.29C39.3119 71.9655 39.3483 71.643 39.4148 71.3265C39.4854 71 39.6146 70.6977 39.8083 70.4256C40.006 70.1475 40.2642 69.9278 40.5628 69.7605C40.924 69.5589 41.3517 69.4985 41.7592 69.4985H43.0141V68.4847C43.0141 68.2005 42.9637 67.8962 42.7862 67.6644C42.6026 67.4225 42.1849 67.3882 41.9065 67.3882C41.6725 67.3882 41.4465 67.4648 41.2407 67.5737C41.0127 67.6946 40.8876 67.8921 40.8291 68.14L40.7827 68.3295L39.4633 67.9203L39.5157 67.747C39.5419 67.6583 39.5742 67.5717 39.6085 67.487H38.0712V74.6864H36.6972V67.487H34.8955V66.1971H39.891V66.9972ZM2.7944 62.7244C3.53282 62.7244 4.2551 62.9037 4.79177 63.4379C5.32843 63.974 5.50597 64.6955 5.50597 65.4332V65.5844L4.10983 65.8544L4.11387 65.6287C4.12194 65.2135 4.06343 64.7318 3.77896 64.4073C3.52071 64.111 3.15957 64.0163 2.77624 64.0163C2.56238 64.0163 2.33641 64.0506 2.14878 64.1574C1.98133 64.2521 1.84615 64.3791 1.73922 64.5403C1.62624 64.7117 1.54756 64.9011 1.50115 65.1006C1.4487 65.3203 1.42247 65.5441 1.42247 65.7718V71.9211C1.42247 72.1267 1.44869 72.3303 1.49913 72.5318C1.54554 72.7152 1.62221 72.8865 1.73519 73.0397C1.84212 73.1869 1.97931 73.2997 2.14273 73.3844C2.3344 73.4831 2.5644 73.5134 2.77826 73.5134C3.14545 73.5134 3.47834 73.4126 3.73861 73.1465C4.04124 72.8362 4.10983 72.3041 4.11589 71.8929L4.11992 71.6793L5.52817 71.9251L5.52413 72.0824C5.50396 72.8341 5.31633 73.592 4.74738 74.12C4.20869 74.6199 3.52071 74.8053 2.79641 74.8053C2.04185 74.8053 1.29133 74.6259 0.754661 74.0636C0.215977 73.4972 0.0505371 72.7233 0.0505371 71.9634V65.9028C0.0505371 65.4997 0.0929041 65.0966 0.187729 64.7036C0.276501 64.3388 0.423784 63.9921 0.647731 63.6898C0.871679 63.3855 1.1622 63.1557 1.49913 62.9904C1.89659 62.7868 2.35457 62.7244 2.7944 62.7244ZM8.82887 67.483V74.6824H7.45493V67.483H5.65326V66.1931H10.6487V67.483H8.82887ZM12.2688 74.2772V77.8709H10.8928V66.2092H12.2688V66.6405C12.3818 66.5276 12.5069 66.4268 12.642 66.3402C12.9547 66.1406 13.3764 66.0943 13.7416 66.0943C13.9514 66.0943 14.1612 66.1265 14.365 66.1729C14.6091 66.2293 14.8311 66.3361 15.0308 66.4853C15.2608 66.6546 15.4383 66.8904 15.5796 67.1363C15.7652 67.4628 15.8519 67.8538 15.8883 68.2247C15.9246 68.5734 15.9387 68.9241 15.9387 69.2748C15.9387 69.6416 15.9387 70.0064 15.9387 70.3732C15.9387 70.9355 15.9286 71.4958 15.9044 72.0582C15.8842 72.5157 15.8217 72.9913 15.6643 73.4247C15.5271 73.8056 15.3072 74.1361 14.9945 74.3961C14.6233 74.7045 14.1088 74.7851 13.6407 74.7851C13.2715 74.7851 12.9023 74.7146 12.5855 74.5171C12.4726 74.4445 12.3656 74.3659 12.2688 74.2772ZM19.3826 66.0923C19.9092 66.0923 20.4862 66.1749 20.924 66.4893C21.2791 66.7433 21.5475 67.0738 21.6947 67.485C21.8219 67.8417 21.8723 68.2489 21.8945 68.6258C21.9227 69.0692 21.9369 69.5146 21.9369 69.958V70.7662C21.9369 71.0625 21.9308 71.3608 21.9207 71.6571C21.9086 71.9735 21.8864 72.2879 21.8541 72.6024C21.8158 72.9772 21.721 73.3602 21.5233 73.6867C21.3598 73.9548 21.15 74.1906 20.8857 74.3639C20.6416 74.5251 20.3733 74.638 20.0868 74.7025C19.8184 74.765 19.542 74.7972 19.2656 74.7972C18.7027 74.7972 18.0712 74.7005 17.6355 74.3135C17.2804 74.0011 17.0342 73.6162 16.9152 73.1566C16.8708 72.9853 16.8466 72.8019 16.8284 72.6265C16.8042 72.4028 16.7881 72.1791 16.778 71.9554C16.7659 71.7135 16.7619 71.4717 16.7619 71.2278C16.7619 70.996 16.7619 70.7662 16.7619 70.5344C16.7619 70.2442 16.7639 69.954 16.7699 69.6638C16.776 69.3816 16.7881 69.0994 16.8123 68.8172C16.8325 68.5754 16.8567 68.3315 16.8869 68.0917C16.9112 67.9022 16.9495 67.7027 17.0221 67.5313C17.1815 67.094 17.4599 66.7453 17.8453 66.4853C18.2952 66.185 18.85 66.0923 19.3826 66.0923ZM24.7735 63.9377C24.9652 64.1433 25.1932 64.242 25.4736 64.242C25.7601 64.242 26.0083 64.1574 26.21 63.9498C26.4017 63.7543 26.5187 63.5225 26.5469 63.2484L26.5651 63.0851H27.7595L27.7393 63.2867C27.7131 63.5265 27.6505 63.7624 27.5618 63.9861C27.4629 64.238 27.3197 64.4658 27.1401 64.6693C26.9464 64.889 26.7083 65.0583 26.4461 65.1833C26.1434 65.3284 25.8085 65.3828 25.4736 65.3828C25.1286 65.3828 24.7776 65.3304 24.4628 65.1833C24.1965 65.0583 23.9564 64.889 23.7647 64.6653C23.5892 64.4617 23.452 64.234 23.3592 63.982C23.2765 63.7543 23.22 63.5185 23.2079 63.2766L23.1978 63.0831H24.3922L24.4164 63.2383C24.4568 63.5104 24.5899 63.7402 24.7735 63.9377ZM26.7628 69.0228L24.0876 74.6844H22.8125V66.2092H24.1864V71.8566C24.5677 71.0504 24.945 70.2402 25.3162 69.43C25.7944 68.3859 26.2826 67.3479 26.781 66.314L26.8314 66.2112H28.1388V74.6864H26.7648V69.0228H26.7628ZM32.0367 62.7244C32.7751 62.7244 33.4974 62.9037 34.034 63.4379C34.5707 63.974 34.7483 64.6955 34.7483 65.4332V65.5844L33.3521 65.8544L33.3561 65.6287C33.3642 65.2135 33.3057 64.7318 33.0212 64.4073C32.763 64.111 32.4019 64.0163 32.0185 64.0163C31.8047 64.0163 31.5787 64.0506 31.3911 64.1574C31.2236 64.2521 31.0884 64.3791 30.9815 64.5403C30.8685 64.7117 30.7898 64.9011 30.7434 65.1006C30.691 65.3203 30.6647 65.5441 30.6647 65.7718V71.9211C30.6647 72.1267 30.691 72.3303 30.7414 72.5318C30.7878 72.7152 30.8645 72.8865 30.9775 73.0397C31.0844 73.1869 31.2216 73.2997 31.385 73.3844C31.5767 73.4831 31.8067 73.5134 32.0205 73.5134C32.3877 73.5134 32.7206 73.4126 32.9809 73.1465C33.2855 72.8362 33.3521 72.3041 33.3582 71.8929L33.3622 71.6793L34.7705 71.9251L34.7664 72.0824C34.7462 72.8341 34.5586 73.592 33.9876 74.12C33.449 74.6199 32.761 74.8053 32.0367 74.8053C31.2821 74.8053 30.5316 74.6259 29.9949 74.0636C29.4562 73.4972 29.2908 72.7233 29.2908 71.9634V65.9028C29.2908 65.4997 29.3332 65.0966 29.428 64.7036C29.5168 64.3388 29.664 63.9921 29.888 63.6898C30.1119 63.3855 30.4025 63.1557 30.7394 62.9904C31.1389 62.7868 31.5969 62.7244 32.0367 62.7244ZM49.1616 67.483H47.3135V71.0242C47.3135 71.4958 47.2933 71.9735 47.2288 72.4411C47.1783 72.816 47.0876 73.1909 46.9342 73.5355C46.797 73.8419 46.6134 74.12 46.3754 74.3558C46.1292 74.6017 45.8367 74.7932 45.524 74.9444L45.3747 75.0169L44.7331 73.9648L44.8783 73.8681C45.0781 73.7351 45.2698 73.5859 45.4352 73.4146C45.5845 73.2614 45.6954 73.082 45.7782 72.8845C45.879 72.6427 45.9335 72.3746 45.9638 72.1146C46.0102 71.7256 46.0203 71.3225 46.0203 70.9315V66.191H50.5698V74.6824H49.1616V67.483ZM52.884 69.4622H53.6809C54.1389 69.4622 54.6412 69.5045 55.073 69.6638C55.4019 69.7847 55.7166 69.9641 55.9567 70.2241C56.1746 70.4599 56.3299 70.734 56.4147 71.0424C56.4994 71.3507 56.5377 71.6712 56.5377 71.9917C56.5377 72.3444 56.5034 72.6991 56.4167 73.0437C56.336 73.3682 56.1907 73.6645 55.9728 73.9185C55.7408 74.1906 55.4361 74.372 55.1012 74.4929C54.6816 74.6441 54.2014 74.6844 53.7576 74.6844H51.508V66.1931H52.8819V69.4622H52.884ZM61.4605 64.1473H58.8014V74.6824H57.4275V62.8231H62.8365V74.6824H61.4626V64.1473H61.4605ZM65.2999 74.2772V77.8709H63.924V66.2092H65.2999V66.6405C65.4129 66.5276 65.538 66.4268 65.6732 66.3402C65.9859 66.1406 66.4076 66.0943 66.7727 66.0943C66.9826 66.0943 67.1924 66.1265 67.3961 66.1729C67.6403 66.2293 67.8622 66.3361 68.0619 66.4853C68.2919 66.6546 68.4695 66.8904 68.6107 67.1363C68.7963 67.4628 68.8831 67.8538 68.9194 68.2247C68.9557 68.5734 68.9698 68.9241 68.9698 69.2748C68.9698 69.6416 68.9698 70.0064 68.9698 70.3732C68.9698 70.9355 68.9597 71.4958 68.9355 72.0582C68.9154 72.5157 68.8528 72.9913 68.6954 73.4247C68.5583 73.8056 68.3383 74.1361 68.0256 74.3961C67.6544 74.7045 67.1399 74.7851 66.6719 74.7851C66.3027 74.7851 65.9334 74.7146 65.6167 74.5171C65.5037 74.4445 65.3968 74.3659 65.2999 74.2772ZM72.4138 66.0923C72.9404 66.0923 73.5174 66.1749 73.9552 66.4893C74.3103 66.7433 74.5786 67.0738 74.7259 67.485C74.853 67.8417 74.9034 68.2489 74.9256 68.6258C74.9539 69.0692 74.968 69.5146 74.968 69.958V70.7662C74.968 71.0625 74.9619 71.3608 74.9519 71.6571C74.9398 71.9735 74.9176 72.2879 74.8853 72.6024C74.8469 72.9772 74.7521 73.3602 74.5544 73.6867C74.391 73.9548 74.1812 74.1906 73.9169 74.3639C73.6727 74.5251 73.4044 74.638 73.1179 74.7025C72.8496 74.765 72.5732 74.7972 72.2968 74.7972C71.7319 74.7972 71.1024 74.7005 70.6666 74.3135C70.3115 74.0011 70.0654 73.6162 69.9463 73.1566C69.9019 72.9853 69.8777 72.8019 69.8596 72.6265C69.8354 72.4028 69.8192 72.1791 69.8091 71.9554C69.797 71.7135 69.793 71.4717 69.793 71.2278C69.793 70.996 69.793 70.7662 69.793 70.5344C69.793 70.2442 69.795 69.954 69.8011 69.6638C69.8071 69.3816 69.8192 69.0994 69.8434 68.8172C69.8636 68.5754 69.8878 68.3315 69.9181 68.0917C69.9423 67.9022 69.9806 67.7027 70.0533 67.5313C70.2106 67.094 70.4911 66.7453 70.8764 66.4853C71.3263 66.185 71.8811 66.0923 72.4138 66.0923ZM77.0219 70.869C77.0239 70.9093 77.0239 70.9496 77.0279 70.9899C77.034 71.0988 77.036 71.2056 77.036 71.3144C77.036 71.6027 77.0441 71.8909 77.0602 72.1791C77.0703 72.3726 77.0925 72.6205 77.159 72.8099C77.3204 73.3078 77.6715 73.5093 78.186 73.5093C78.4805 73.5093 78.7832 73.4448 78.9769 73.207C79.1766 72.9571 79.2553 72.6427 79.2734 72.3303L79.2855 72.1206L80.6857 72.3887L80.6716 72.552C80.6191 73.1808 80.4174 73.7814 79.9392 74.2168C79.451 74.6622 78.7933 74.8013 78.1497 74.8013C77.8309 74.8013 77.502 74.765 77.2014 74.6582C76.9553 74.5715 76.7192 74.4526 76.5154 74.2893C76.3319 74.1402 76.1745 73.9648 76.0554 73.7592C75.9465 73.5698 75.8638 73.3682 75.8133 73.1566C75.771 72.9833 75.7448 72.8059 75.7266 72.6306C75.7024 72.4068 75.6903 72.1791 75.6842 71.9534C75.6782 71.7135 75.6741 71.4737 75.6681 71.2358C75.662 71.0041 75.66 70.7703 75.66 70.5385C75.66 70.2503 75.662 69.9641 75.6681 69.6758C75.6741 69.3957 75.6862 69.1175 75.7105 68.8394C75.7306 68.5975 75.7548 68.3537 75.7851 68.1138C75.8093 67.9203 75.8497 67.7188 75.9203 67.5354C76.0857 67.1041 76.352 66.7473 76.7334 66.4853C77.1732 66.181 77.7401 66.0983 78.2647 66.0983C78.8639 66.0983 79.4752 66.2253 79.9372 66.6304C80.3811 67.0194 80.5889 67.5495 80.6555 68.1299C80.6676 68.2529 80.6756 68.3779 80.6817 68.5008C80.6877 68.6237 80.6898 68.7487 80.6898 68.8717V70.871H77.0219V70.869ZM13.449 67.4507C13.1101 67.4507 12.8095 67.5475 12.5855 67.8075C12.3495 68.0816 12.2688 68.4282 12.2688 68.783V72.0582C12.2688 72.4169 12.3455 72.7676 12.5553 73.0639C12.759 73.3521 13.0758 73.4408 13.4168 73.4408C13.9756 73.4408 14.2984 73.1768 14.4376 72.6427C14.5083 72.3464 14.5284 72.0017 14.5405 71.6974C14.5587 71.2419 14.5647 70.7844 14.5647 70.3289C14.5647 69.8875 14.5607 69.4441 14.5405 69.0027C14.5284 68.7306 14.5022 68.4202 14.4235 68.1541C14.367 67.9486 14.2682 67.7309 14.0866 67.6079C13.903 67.485 13.6629 67.4507 13.449 67.4507ZM19.3584 67.3842C19.1365 67.3842 18.9267 67.4306 18.729 67.5293C18.5232 67.6321 18.392 67.8236 18.3053 68.0231C18.2105 68.265 18.1822 68.6137 18.1681 68.8717C18.1419 69.3513 18.1358 69.833 18.1358 70.3127V70.8408C18.1358 71.2379 18.1398 71.6369 18.1519 72.036C18.16 72.2698 18.1782 72.5681 18.2609 72.7999C18.4183 73.332 18.8278 73.5073 19.3584 73.5073C19.6207 73.5073 19.8568 73.4368 20.0605 73.2695C20.2683 73.0962 20.3894 72.8744 20.4519 72.6205C20.4983 72.3444 20.5165 72.0501 20.5326 71.7699C20.5548 71.3729 20.5649 70.9758 20.5649 70.5768C20.5649 70.3369 20.5629 70.0971 20.5569 69.8572C20.5508 69.6154 20.5468 69.3735 20.5407 69.1317C20.5367 68.9281 20.5246 68.7245 20.5004 68.523C20.4862 68.398 20.4661 68.2509 20.4237 68.1259C20.3531 67.8982 20.232 67.7087 20.0343 67.5737C19.8305 67.4386 19.6005 67.3842 19.3584 67.3842ZM43.0121 70.7521H41.9973C41.6442 70.7521 41.3254 70.8489 41.0551 71.0806C40.7424 71.3487 40.6839 71.8526 40.6839 72.2375C40.6839 72.554 40.7424 72.8845 40.9341 73.1445C41.1237 73.4005 41.4647 73.4589 41.7653 73.4589C42.1042 73.4589 42.4331 73.3824 42.6833 73.1445C42.9375 72.9047 43.0121 72.558 43.0121 72.2214V70.7521ZM52.884 73.3582H53.6647C53.919 73.3582 54.2075 73.334 54.4455 73.2393C54.611 73.1727 54.7724 73.08 54.8894 72.943C54.9923 72.822 55.0629 72.687 55.1012 72.5318C55.1416 72.3645 55.1618 72.1932 55.1618 72.0219C55.1618 71.8486 55.1416 71.6732 55.0871 71.5079C55.0407 71.3648 54.96 71.2419 54.8511 71.1391C54.726 71.0182 54.5605 70.9375 54.3971 70.8831C54.1631 70.8045 53.8927 70.7844 53.6486 70.7844H52.884V73.3582ZM66.4802 67.4507C66.1412 67.4507 65.8406 67.5475 65.6167 67.8075C65.3806 68.0816 65.2999 68.4282 65.2999 68.783V72.0582C65.2999 72.4169 65.3766 72.7676 65.5864 73.0639C65.7902 73.3521 66.1069 73.4408 66.4479 73.4408C67.0068 73.4408 67.3296 73.1768 67.4688 72.6427C67.5394 72.3464 67.5596 72.0017 67.5717 71.6974C67.5898 71.2419 67.5959 70.7844 67.5959 70.3289C67.5959 69.8875 67.5919 69.4441 67.5717 69.0027C67.5596 68.7306 67.5333 68.4202 67.4547 68.1541C67.3982 67.9486 67.2993 67.7309 67.1177 67.6079C66.9341 67.485 66.694 67.4507 66.4802 67.4507ZM72.3896 67.3842C72.1676 67.3842 71.9578 67.4306 71.7601 67.5293C71.5543 67.6321 71.4232 67.8236 71.3364 68.0231C71.2416 68.265 71.2133 68.6137 71.1992 68.8717C71.173 69.3513 71.1669 69.833 71.1669 70.3127V70.8408C71.1669 71.2379 71.171 71.6369 71.1831 72.036C71.1912 72.2698 71.2093 72.5681 71.292 72.7999C71.4494 73.332 71.859 73.5073 72.3896 73.5073C72.6519 73.5073 72.8879 73.4368 73.0917 73.2695C73.2995 73.0962 73.4205 72.8744 73.4831 72.6205C73.5295 72.3444 73.5476 72.0501 73.5638 71.7699C73.586 71.3729 73.5961 70.9758 73.5961 70.5768C73.5961 70.3369 73.594 70.0971 73.588 69.8572C73.5819 69.6154 73.5779 69.3735 73.5718 69.1317C73.5678 68.9281 73.5557 68.7245 73.5315 68.523C73.5174 68.398 73.4972 68.2509 73.4548 68.1259C73.3842 67.8982 73.2632 67.7087 73.0655 67.5737C72.8617 67.4386 72.6317 67.3842 72.3896 67.3842ZM77.04 69.6758H79.2976V68.9946C79.2976 68.7789 79.2855 68.5613 79.2573 68.3456C79.2351 68.1662 79.1847 67.9949 79.0959 67.8377C79.0152 67.6986 78.9083 67.5878 78.7731 67.5051C78.6056 67.4064 78.3897 67.3822 78.2001 67.3822C77.9903 67.3822 77.7905 67.4286 77.6049 67.5253C77.4032 67.6321 77.274 67.8317 77.1873 68.0312C77.1126 68.2307 77.0884 68.4948 77.0763 68.7104C77.0602 69.0329 77.0501 69.3554 77.04 69.6758Z" fill="white"/>
</svg>
